solid OpenSCAD_Model
  facet normal -1 0 0
    outer loop
      vertex 0 -20 -8
      vertex 0 0 0
      vertex 0 -9.79685e-016 -8
    endloop
  endfacet
  facet normal -1 -0 0
    outer loop
      vertex 0 0 0
      vertex 0 -20 -8
      vertex 0 -20 2.44921e-015
    endloop
  endfacet
  facet normal 0 0 -1
    outer loop
      vertex 42 -20 -8
      vertex 38.5 -10 -8
      vertex 42 -9.79685e-016 -8
    endloop
  endfacet
  facet normal 0 0 -1
    outer loop
      vertex 42 -20 -8
      vertex 37.9271 -11.7634 -8
      vertex 38.5 -10 -8
    endloop
  endfacet
  facet normal 0 0 -1
    outer loop
      vertex 42 -20 -8
      vertex 36.4271 -12.8532 -8
      vertex 37.9271 -11.7634 -8
    endloop
  endfacet
  facet normal 0 0 -1
    outer loop
      vertex 42 -20 -8
      vertex 34.5729 -12.8532 -8
      vertex 36.4271 -12.8532 -8
    endloop
  endfacet
  facet normal 0 0 -1
    outer loop
      vertex 0 -20 -8
      vertex 34.5729 -12.8532 -8
      vertex 42 -20 -8
    endloop
  endfacet
  facet normal 0 0 -1
    outer loop
      vertex 33.0729 -11.7634 -8
      vertex 7.5 -10 -8
      vertex 32.5 -10 -8
    endloop
  endfacet
  facet normal -0 0 -1
    outer loop
      vertex 34.5729 -12.8532 -8
      vertex 0 -20 -8
      vertex 33.0729 -11.7634 -8
    endloop
  endfacet
  facet normal 0 0 -1
    outer loop
      vertex 33.0729 -11.7634 -8
      vertex 6.92705 -11.7634 -8
      vertex 7.5 -10 -8
    endloop
  endfacet
  facet normal -0 0 -1
    outer loop
      vertex 33.0729 -11.7634 -8
      vertex 0 -20 -8
      vertex 6.92705 -11.7634 -8
    endloop
  endfacet
  facet normal 0 0 -1
    outer loop
      vertex 6.92705 -11.7634 -8
      vertex 0 -20 -8
      vertex 5.42705 -12.8532 -8
    endloop
  endfacet
  facet normal -0 0 -1
    outer loop
      vertex 2.07295 -11.7634 -8
      vertex 0 -20 -8
      vertex 1.5 -10 -8
    endloop
  endfacet
  facet normal -0 0 -1
    outer loop
      vertex 3.57295 -12.8532 -8
      vertex 0 -20 -8
      vertex 2.07295 -11.7634 -8
    endloop
  endfacet
  facet normal -0 0 -1
    outer loop
      vertex 5.42705 -12.8532 -8
      vertex 0 -20 -8
      vertex 3.57295 -12.8532 -8
    endloop
  endfacet
  facet normal 0 0 -1
    outer loop
      vertex 37.9271 -8.23664 -8
      vertex 42 -9.79685e-016 -8
      vertex 38.5 -10 -8
    endloop
  endfacet
  facet normal 0 0 -1
    outer loop
      vertex 36.4271 -7.14683 -8
      vertex 42 -9.79685e-016 -8
      vertex 37.9271 -8.23664 -8
    endloop
  endfacet
  facet normal 0 0 -1
    outer loop
      vertex 34.5729 -7.14683 -8
      vertex 42 -9.79685e-016 -8
      vertex 36.4271 -7.14683 -8
    endloop
  endfacet
  facet normal 0 0 -1
    outer loop
      vertex 0 -9.79685e-016 -8
      vertex 34.5729 -7.14683 -8
      vertex 33.0729 -8.23664 -8
    endloop
  endfacet
  facet normal 0 0 -1
    outer loop
      vertex 7.5 -10 -8
      vertex 33.0729 -8.23664 -8
      vertex 32.5 -10 -8
    endloop
  endfacet
  facet normal 0 0 -1
    outer loop
      vertex 6.92705 -8.23664 -8
      vertex 33.0729 -8.23664 -8
      vertex 7.5 -10 -8
    endloop
  endfacet
  facet normal 0 0 -1
    outer loop
      vertex 0 -9.79685e-016 -8
      vertex 33.0729 -8.23664 -8
      vertex 6.92705 -8.23664 -8
    endloop
  endfacet
  facet normal 0 0 -1
    outer loop
      vertex 0 -9.79685e-016 -8
      vertex 6.92705 -8.23664 -8
      vertex 5.42705 -7.14683 -8
    endloop
  endfacet
  facet normal 0 0 -1
    outer loop
      vertex 0 -9.79685e-016 -8
      vertex 5.42705 -7.14683 -8
      vertex 3.57295 -7.14683 -8
    endloop
  endfacet
  facet normal 0 0 -1
    outer loop
      vertex 34.5729 -7.14683 -8
      vertex 0 -9.79685e-016 -8
      vertex 42 -9.79685e-016 -8
    endloop
  endfacet
  facet normal 0 0 -1
    outer loop
      vertex 2.07295 -8.23664 -8
      vertex 0 -9.79685e-016 -8
      vertex 3.57295 -7.14683 -8
    endloop
  endfacet
  facet normal 0 0 -1
    outer loop
      vertex 1.5 -10 -8
      vertex 0 -9.79685e-016 -8
      vertex 2.07295 -8.23664 -8
    endloop
  endfacet
  facet normal 0 0 -1
    outer loop
      vertex 0 -9.79685e-016 -8
      vertex 1.5 -10 -8
      vertex 0 -20 -8
    endloop
  endfacet
  facet normal 1 0 0
    outer loop
      vertex 42 -20 2.44921e-015
      vertex 42 -9.79685e-016 -8
      vertex 42 0 0
    endloop
  endfacet
  facet normal 1 0 0
    outer loop
      vertex 42 -9.79685e-016 -8
      vertex 42 -20 2.44921e-015
      vertex 42 -20 -8
    endloop
  endfacet
  facet normal 0 -1 0
    outer loop
      vertex 0 -20 2.44921e-015
      vertex 9 -20 -5
      vertex 9 -20 2.44921e-015
    endloop
  endfacet
  facet normal 0 -1 -0
    outer loop
      vertex 9 -20 -5
      vertex 0 -20 -8
      vertex 30 -20 -5
    endloop
  endfacet
  facet normal 0 -1 0
    outer loop
      vertex 0 -20 -8
      vertex 9 -20 -5
      vertex 0 -20 2.44921e-015
    endloop
  endfacet
  facet normal 0 -1 0
    outer loop
      vertex 30 -20 -5
      vertex 42 -20 2.44921e-015
      vertex 30 -20 2.44921e-015
    endloop
  endfacet
  facet normal 0 -1 0
    outer loop
      vertex 30 -20 -5
      vertex 42 -20 -8
      vertex 42 -20 2.44921e-015
    endloop
  endfacet
  facet normal 0 -1 0
    outer loop
      vertex 42 -20 -8
      vertex 30 -20 -5
      vertex 0 -20 -8
    endloop
  endfacet
  facet normal 0 1.22461e-016 1
    outer loop
      vertex 9 0 0
      vertex 7.5 -10 1.22461e-015
      vertex 9 -20 2.44921e-015
    endloop
  endfacet
  facet normal -1.29023e-023 1.22461e-016 1
    outer loop
      vertex 9 0 0
      vertex 6.92705 -8.23664 1.00866e-015
      vertex 7.5 -10 1.22461e-015
    endloop
  endfacet
  facet normal 1.74637e-023 1.22461e-016 1
    outer loop
      vertex 9 0 0
      vertex 5.42705 -7.14683 8.75205e-016
      vertex 6.92705 -8.23664 1.00866e-015
    endloop
  endfacet
  facet normal 0 1.22461e-016 1
    outer loop
      vertex 9 0 0
      vertex 3.57295 -7.14683 8.75205e-016
      vertex 5.42705 -7.14683 8.75205e-016
    endloop
  endfacet
  facet normal -0 1.22461e-016 1
    outer loop
      vertex 0 0 0
      vertex 3.57295 -7.14683 8.75205e-016
      vertex 9 0 0
    endloop
  endfacet
  facet normal 1.29023e-023 1.22461e-016 1
    outer loop
      vertex 2.07295 -8.23664 1.00866e-015
      vertex 0 0 0
      vertex 1.5 -10 1.22461e-015
    endloop
  endfacet
  facet normal -1.74637e-023 1.22461e-016 1
    outer loop
      vertex 3.57295 -7.14683 8.75205e-016
      vertex 0 0 0
      vertex 2.07295 -8.23664 1.00866e-015
    endloop
  endfacet
  facet normal 2.5928e-023 1.22461e-016 1
    outer loop
      vertex 6.92705 -11.7634 1.44055e-015
      vertex 9 -20 2.44921e-015
      vertex 7.5 -10 1.22461e-015
    endloop
  endfacet
  facet normal 1.3187e-023 1.22461e-016 1
    outer loop
      vertex 5.42705 -12.8532 1.57401e-015
      vertex 9 -20 2.44921e-015
      vertex 6.92705 -11.7634 1.44055e-015
    endloop
  endfacet
  facet normal -0 1.22461e-016 1
    outer loop
      vertex 3.57295 -12.8532 1.57401e-015
      vertex 9 -20 2.44921e-015
      vertex 5.42705 -12.8532 1.57401e-015
    endloop
  endfacet
  facet normal -1.3187e-023 1.22461e-016 1
    outer loop
      vertex 0 -20 2.44921e-015
      vertex 3.57295 -12.8532 1.57401e-015
      vertex 2.07295 -11.7634 1.44055e-015
    endloop
  endfacet
  facet normal 0 1.22461e-016 1
    outer loop
      vertex 3.57295 -12.8532 1.57401e-015
      vertex 0 -20 2.44921e-015
      vertex 9 -20 2.44921e-015
    endloop
  endfacet
  facet normal -2.59281e-023 1.22461e-016 1
    outer loop
      vertex 1.5 -10 1.22461e-015
      vertex 0 -20 2.44921e-015
      vertex 2.07295 -11.7634 1.44055e-015
    endloop
  endfacet
  facet normal 0 1.22461e-016 1
    outer loop
      vertex 0 -20 2.44921e-015
      vertex 1.5 -10 1.22461e-015
      vertex 0 0 0
    endloop
  endfacet
  facet normal 0 1.22461e-016 1
    outer loop
      vertex 42 0 0
      vertex 38.5 -10 1.22461e-015
      vertex 42 -20 2.44921e-015
    endloop
  endfacet
  facet normal -9.07893e-024 1.22461e-016 1
    outer loop
      vertex 42 0 0
      vertex 37.9271 -8.23664 1.00866e-015
      vertex 38.5 -10 1.22461e-015
    endloop
  endfacet
  facet normal 1.51971e-023 1.22461e-016 1
    outer loop
      vertex 42 0 0
      vertex 36.4271 -7.14683 8.75205e-016
      vertex 37.9271 -8.23664 1.00866e-015
    endloop
  endfacet
  facet normal -0 1.22461e-016 1
    outer loop
      vertex 30 0 0
      vertex 36.4271 -7.14683 8.75205e-016
      vertex 42 0 0
    endloop
  endfacet
  facet normal 0 1.22461e-016 1
    outer loop
      vertex 36.4271 -7.14683 8.75205e-016
      vertex 30 0 0
      vertex 34.5729 -7.14683 8.75205e-016
    endloop
  endfacet
  facet normal 1.06581e-023 1.22461e-016 1
    outer loop
      vertex 33.0729 -8.23664 1.00866e-015
      vertex 30 0 0
      vertex 32.5 -10 1.22461e-015
    endloop
  endfacet
  facet normal -1.62518e-023 1.22461e-016 1
    outer loop
      vertex 34.5729 -7.14683 8.75205e-016
      vertex 30 0 0
      vertex 33.0729 -8.23664 1.00866e-015
    endloop
  endfacet
  facet normal 1.82447e-023 1.22461e-016 1
    outer loop
      vertex 37.9271 -11.7634 1.44055e-015
      vertex 42 -20 2.44921e-015
      vertex 38.5 -10 1.22461e-015
    endloop
  endfacet
  facet normal 1.14755e-023 1.22461e-016 1
    outer loop
      vertex 36.4271 -12.8532 1.57401e-015
      vertex 42 -20 2.44921e-015
      vertex 37.9271 -11.7634 1.44055e-015
    endloop
  endfacet
  facet normal 0 1.22461e-016 1
    outer loop
      vertex 30 -20 2.44921e-015
      vertex 36.4271 -12.8532 1.57401e-015
      vertex 34.5729 -12.8532 1.57401e-015
    endloop
  endfacet
  facet normal -1.22718e-023 1.22461e-016 1
    outer loop
      vertex 30 -20 2.44921e-015
      vertex 34.5729 -12.8532 1.57401e-015
      vertex 33.0729 -11.7634 1.44055e-015
    endloop
  endfacet
  facet normal 0 1.22461e-016 1
    outer loop
      vertex 36.4271 -12.8532 1.57401e-015
      vertex 30 -20 2.44921e-015
      vertex 42 -20 2.44921e-015
    endloop
  endfacet
  facet normal -2.14182e-023 1.22461e-016 1
    outer loop
      vertex 32.5 -10 1.22461e-015
      vertex 30 -20 2.44921e-015
      vertex 33.0729 -11.7634 1.44055e-015
    endloop
  endfacet
  facet normal 0 1.22461e-016 1
    outer loop
      vertex 30 -20 2.44921e-015
      vertex 32.5 -10 1.22461e-015
      vertex 30 0 0
    endloop
  endfacet
  facet normal 0 1 -1.22461e-016
    outer loop
      vertex 42 0 0
      vertex 30 -6.12303e-016 -5
      vertex 30 0 0
    endloop
  endfacet
  facet normal 0 1 -1.22461e-016
    outer loop
      vertex 0 -9.79685e-016 -8
      vertex 30 -6.12303e-016 -5
      vertex 42 -9.79685e-016 -8
    endloop
  endfacet
  facet normal 0 1 -1.22461e-016
    outer loop
      vertex 42 -9.79685e-016 -8
      vertex 30 -6.12303e-016 -5
      vertex 42 0 0
    endloop
  endfacet
  facet normal 0 1 -1.22461e-016
    outer loop
      vertex 9 -6.12303e-016 -5
      vertex 0 0 0
      vertex 9 0 0
    endloop
  endfacet
  facet normal 0 1 -1.22461e-016
    outer loop
      vertex 9 -6.12303e-016 -5
      vertex 0 -9.79685e-016 -8
      vertex 0 0 0
    endloop
  endfacet
  facet normal 0 1 -1.22461e-016
    outer loop
      vertex 30 -6.12303e-016 -5
      vertex 0 -9.79685e-016 -8
      vertex 9 -6.12303e-016 -5
    endloop
  endfacet
  facet normal -0.951056 0.309017 0
    outer loop
      vertex 6.92705 -11.7634 -8
      vertex 7.5 -10 1.22461e-015
      vertex 7.5 -10 -8
    endloop
  endfacet
  facet normal -0.951056 0.309017 0
    outer loop
      vertex 7.5 -10 1.22461e-015
      vertex 6.92705 -11.7634 -8
      vertex 6.92705 -11.7634 1.44055e-015
    endloop
  endfacet
  facet normal 0 1 -0
    outer loop
      vertex 5.42705 -12.8532 -8
      vertex 3.57295 -12.8532 1.57401e-015
      vertex 5.42705 -12.8532 1.57401e-015
    endloop
  endfacet
  facet normal 0 1 0
    outer loop
      vertex 3.57295 -12.8532 1.57401e-015
      vertex 5.42705 -12.8532 -8
      vertex 3.57295 -12.8532 -8
    endloop
  endfacet
  facet normal -0.587785 0.809017 0
    outer loop
      vertex 6.92705 -11.7634 -8
      vertex 5.42705 -12.8532 1.57401e-015
      vertex 6.92705 -11.7634 1.44055e-015
    endloop
  endfacet
  facet normal -0.587785 0.809017 0
    outer loop
      vertex 5.42705 -12.8532 1.57401e-015
      vertex 6.92705 -11.7634 -8
      vertex 5.42705 -12.8532 -8
    endloop
  endfacet
  facet normal 0.587785 0.809017 -0
    outer loop
      vertex 3.57295 -12.8532 -8
      vertex 2.07295 -11.7634 1.44055e-015
      vertex 3.57295 -12.8532 1.57401e-015
    endloop
  endfacet
  facet normal 0.587785 0.809017 0
    outer loop
      vertex 2.07295 -11.7634 1.44055e-015
      vertex 3.57295 -12.8532 -8
      vertex 2.07295 -11.7634 -8
    endloop
  endfacet
  facet normal -0.587785 -0.809017 0
    outer loop
      vertex 5.42705 -7.14683 -8
      vertex 6.92705 -8.23664 1.00866e-015
      vertex 5.42705 -7.14683 8.75205e-016
    endloop
  endfacet
  facet normal -0.587785 -0.809017 -0
    outer loop
      vertex 6.92705 -8.23664 1.00866e-015
      vertex 5.42705 -7.14683 -8
      vertex 6.92705 -8.23664 -8
    endloop
  endfacet
  facet normal 0.587785 -0.809017 0
    outer loop
      vertex 2.07295 -8.23664 -8
      vertex 3.57295 -7.14683 8.75205e-016
      vertex 2.07295 -8.23664 1.00866e-015
    endloop
  endfacet
  facet normal 0.587785 -0.809017 0
    outer loop
      vertex 3.57295 -7.14683 8.75205e-016
      vertex 2.07295 -8.23664 -8
      vertex 3.57295 -7.14683 -8
    endloop
  endfacet
  facet normal 0.951057 0.309017 0
    outer loop
      vertex 2.07295 -11.7634 1.44055e-015
      vertex 1.5 -10 -8
      vertex 1.5 -10 1.22461e-015
    endloop
  endfacet
  facet normal 0.951057 0.309017 0
    outer loop
      vertex 1.5 -10 -8
      vertex 2.07295 -11.7634 1.44055e-015
      vertex 2.07295 -11.7634 -8
    endloop
  endfacet
  facet normal -0.951056 -0.309017 0
    outer loop
      vertex 7.5 -10 -8
      vertex 6.92705 -8.23664 1.00866e-015
      vertex 6.92705 -8.23664 -8
    endloop
  endfacet
  facet normal -0.951056 -0.309017 0
    outer loop
      vertex 6.92705 -8.23664 1.00866e-015
      vertex 7.5 -10 -8
      vertex 7.5 -10 1.22461e-015
    endloop
  endfacet
  facet normal 0 -1 0
    outer loop
      vertex 3.57295 -7.14683 -8
      vertex 5.42705 -7.14683 8.75205e-016
      vertex 3.57295 -7.14683 8.75205e-016
    endloop
  endfacet
  facet normal 0 -1 -0
    outer loop
      vertex 5.42705 -7.14683 8.75205e-016
      vertex 3.57295 -7.14683 -8
      vertex 5.42705 -7.14683 -8
    endloop
  endfacet
  facet normal 0.951057 -0.309017 0
    outer loop
      vertex 1.5 -10 1.22461e-015
      vertex 2.07295 -8.23664 -8
      vertex 2.07295 -8.23664 1.00866e-015
    endloop
  endfacet
  facet normal 0.951057 -0.309017 0
    outer loop
      vertex 2.07295 -8.23664 -8
      vertex 1.5 -10 1.22461e-015
      vertex 1.5 -10 -8
    endloop
  endfacet
  facet normal -0.951057 0.309017 0
    outer loop
      vertex 37.9271 -11.7634 -8
      vertex 38.5 -10 1.22461e-015
      vertex 38.5 -10 -8
    endloop
  endfacet
  facet normal -0.951057 0.309017 0
    outer loop
      vertex 38.5 -10 1.22461e-015
      vertex 37.9271 -11.7634 -8
      vertex 37.9271 -11.7634 1.44055e-015
    endloop
  endfacet
  facet normal 0.951057 -0.309017 0
    outer loop
      vertex 32.5 -10 1.22461e-015
      vertex 33.0729 -8.23664 -8
      vertex 33.0729 -8.23664 1.00866e-015
    endloop
  endfacet
  facet normal 0.951057 -0.309017 0
    outer loop
      vertex 33.0729 -8.23664 -8
      vertex 32.5 -10 1.22461e-015
      vertex 32.5 -10 -8
    endloop
  endfacet
  facet normal 0 1 -0
    outer loop
      vertex 36.4271 -12.8532 -8
      vertex 34.5729 -12.8532 1.57401e-015
      vertex 36.4271 -12.8532 1.57401e-015
    endloop
  endfacet
  facet normal 0 1 0
    outer loop
      vertex 34.5729 -12.8532 1.57401e-015
      vertex 36.4271 -12.8532 -8
      vertex 34.5729 -12.8532 -8
    endloop
  endfacet
  facet normal -0.587785 0.809017 0
    outer loop
      vertex 37.9271 -11.7634 -8
      vertex 36.4271 -12.8532 1.57401e-015
      vertex 37.9271 -11.7634 1.44055e-015
    endloop
  endfacet
  facet normal -0.587785 0.809017 0
    outer loop
      vertex 36.4271 -12.8532 1.57401e-015
      vertex 37.9271 -11.7634 -8
      vertex 36.4271 -12.8532 -8
    endloop
  endfacet
  facet normal 0.587785 0.809017 -0
    outer loop
      vertex 34.5729 -12.8532 -8
      vertex 33.0729 -11.7634 1.44055e-015
      vertex 34.5729 -12.8532 1.57401e-015
    endloop
  endfacet
  facet normal 0.587785 0.809017 0
    outer loop
      vertex 33.0729 -11.7634 1.44055e-015
      vertex 34.5729 -12.8532 -8
      vertex 33.0729 -11.7634 -8
    endloop
  endfacet
  facet normal -0.587785 -0.809017 0
    outer loop
      vertex 36.4271 -7.14683 -8
      vertex 37.9271 -8.23664 1.00866e-015
      vertex 36.4271 -7.14683 8.75205e-016
    endloop
  endfacet
  facet normal -0.587785 -0.809017 -0
    outer loop
      vertex 37.9271 -8.23664 1.00866e-015
      vertex 36.4271 -7.14683 -8
      vertex 37.9271 -8.23664 -8
    endloop
  endfacet
  facet normal 0.587785 -0.809017 0
    outer loop
      vertex 33.0729 -8.23664 -8
      vertex 34.5729 -7.14683 8.75205e-016
      vertex 33.0729 -8.23664 1.00866e-015
    endloop
  endfacet
  facet normal 0.587785 -0.809017 0
    outer loop
      vertex 34.5729 -7.14683 8.75205e-016
      vertex 33.0729 -8.23664 -8
      vertex 34.5729 -7.14683 -8
    endloop
  endfacet
  facet normal 0.951057 0.309017 0
    outer loop
      vertex 33.0729 -11.7634 1.44055e-015
      vertex 32.5 -10 -8
      vertex 32.5 -10 1.22461e-015
    endloop
  endfacet
  facet normal 0.951057 0.309017 0
    outer loop
      vertex 32.5 -10 -8
      vertex 33.0729 -11.7634 1.44055e-015
      vertex 33.0729 -11.7634 -8
    endloop
  endfacet
  facet normal 0 -1 0
    outer loop
      vertex 34.5729 -7.14683 -8
      vertex 36.4271 -7.14683 8.75205e-016
      vertex 34.5729 -7.14683 8.75205e-016
    endloop
  endfacet
  facet normal 0 -1 -0
    outer loop
      vertex 36.4271 -7.14683 8.75205e-016
      vertex 34.5729 -7.14683 -8
      vertex 36.4271 -7.14683 -8
    endloop
  endfacet
  facet normal -0.951057 -0.309017 0
    outer loop
      vertex 38.5 -10 -8
      vertex 37.9271 -8.23664 1.00866e-015
      vertex 37.9271 -8.23664 -8
    endloop
  endfacet
  facet normal -0.951057 -0.309017 0
    outer loop
      vertex 37.9271 -8.23664 1.00866e-015
      vertex 38.5 -10 -8
      vertex 38.5 -10 1.22461e-015
    endloop
  endfacet
  facet normal 1 0 0
    outer loop
      vertex 9 -20 2.44921e-015
      vertex 9 -6.12303e-016 -5
      vertex 9 0 0
    endloop
  endfacet
  facet normal 1 0 0
    outer loop
      vertex 9 -6.12303e-016 -5
      vertex 9 -20 2.44921e-015
      vertex 9 -20 -5
    endloop
  endfacet
  facet normal -0 0 1
    outer loop
      vertex 9 -6.12303e-016 -5
      vertex 30 -20 -5
      vertex 30 -6.12303e-016 -5
    endloop
  endfacet
  facet normal 0 0 1
    outer loop
      vertex 30 -20 -5
      vertex 9 -6.12303e-016 -5
      vertex 9 -20 -5
    endloop
  endfacet
  facet normal -1 0 0
    outer loop
      vertex 30 -20 -5
      vertex 30 0 0
      vertex 30 -6.12303e-016 -5
    endloop
  endfacet
  facet normal -1 -0 0
    outer loop
      vertex 30 0 0
      vertex 30 -20 -5
      vertex 30 -20 2.44921e-015
    endloop
  endfacet
  facet normal -1 0 0
    outer loop
      vertex -44 -20 -8
      vertex -44 0 0
      vertex -44 -9.79685e-016 -8
    endloop
  endfacet
  facet normal -1 -0 0
    outer loop
      vertex -44 0 0
      vertex -44 -20 -8
      vertex -44 -20 2.44921e-015
    endloop
  endfacet
  facet normal 0 0 -1
    outer loop
      vertex -2 -20 -8
      vertex -5.5 -10 -8
      vertex -2 -9.79685e-016 -8
    endloop
  endfacet
  facet normal 0 0 -1
    outer loop
      vertex -2 -20 -8
      vertex -6.07295 -11.7634 -8
      vertex -5.5 -10 -8
    endloop
  endfacet
  facet normal 0 0 -1
    outer loop
      vertex -2 -20 -8
      vertex -7.57295 -12.8532 -8
      vertex -6.07295 -11.7634 -8
    endloop
  endfacet
  facet normal 0 0 -1
    outer loop
      vertex -2 -20 -8
      vertex -9.42705 -12.8532 -8
      vertex -7.57295 -12.8532 -8
    endloop
  endfacet
  facet normal 0 0 -1
    outer loop
      vertex -44 -20 -8
      vertex -9.42705 -12.8532 -8
      vertex -2 -20 -8
    endloop
  endfacet
  facet normal 0 0 -1
    outer loop
      vertex -10.9271 -11.7634 -8
      vertex -36.5 -10 -8
      vertex -11.5 -10 -8
    endloop
  endfacet
  facet normal -0 0 -1
    outer loop
      vertex -9.42705 -12.8532 -8
      vertex -44 -20 -8
      vertex -10.9271 -11.7634 -8
    endloop
  endfacet
  facet normal 0 0 -1
    outer loop
      vertex -10.9271 -11.7634 -8
      vertex -37.0729 -11.7634 -8
      vertex -36.5 -10 -8
    endloop
  endfacet
  facet normal -0 0 -1
    outer loop
      vertex -10.9271 -11.7634 -8
      vertex -44 -20 -8
      vertex -37.0729 -11.7634 -8
    endloop
  endfacet
  facet normal 0 0 -1
    outer loop
      vertex -37.0729 -11.7634 -8
      vertex -44 -20 -8
      vertex -38.5729 -12.8532 -8
    endloop
  endfacet
  facet normal -0 0 -1
    outer loop
      vertex -41.9271 -11.7634 -8
      vertex -44 -20 -8
      vertex -42.5 -10 -8
    endloop
  endfacet
  facet normal -0 0 -1
    outer loop
      vertex -40.4271 -12.8532 -8
      vertex -44 -20 -8
      vertex -41.9271 -11.7634 -8
    endloop
  endfacet
  facet normal -0 0 -1
    outer loop
      vertex -38.5729 -12.8532 -8
      vertex -44 -20 -8
      vertex -40.4271 -12.8532 -8
    endloop
  endfacet
  facet normal 0 0 -1
    outer loop
      vertex -6.07295 -8.23664 -8
      vertex -2 -9.79685e-016 -8
      vertex -5.5 -10 -8
    endloop
  endfacet
  facet normal 0 0 -1
    outer loop
      vertex -7.57295 -7.14683 -8
      vertex -2 -9.79685e-016 -8
      vertex -6.07295 -8.23664 -8
    endloop
  endfacet
  facet normal 0 0 -1
    outer loop
      vertex -9.42705 -7.14683 -8
      vertex -2 -9.79685e-016 -8
      vertex -7.57295 -7.14683 -8
    endloop
  endfacet
  facet normal 0 0 -1
    outer loop
      vertex -44 -9.79685e-016 -8
      vertex -9.42705 -7.14683 -8
      vertex -10.9271 -8.23664 -8
    endloop
  endfacet
  facet normal 0 0 -1
    outer loop
      vertex -36.5 -10 -8
      vertex -10.9271 -8.23664 -8
      vertex -11.5 -10 -8
    endloop
  endfacet
  facet normal 0 0 -1
    outer loop
      vertex -37.0729 -8.23664 -8
      vertex -10.9271 -8.23664 -8
      vertex -36.5 -10 -8
    endloop
  endfacet
  facet normal 0 0 -1
    outer loop
      vertex -44 -9.79685e-016 -8
      vertex -10.9271 -8.23664 -8
      vertex -37.0729 -8.23664 -8
    endloop
  endfacet
  facet normal 0 0 -1
    outer loop
      vertex -44 -9.79685e-016 -8
      vertex -37.0729 -8.23664 -8
      vertex -38.5729 -7.14683 -8
    endloop
  endfacet
  facet normal 0 0 -1
    outer loop
      vertex -44 -9.79685e-016 -8
      vertex -38.5729 -7.14683 -8
      vertex -40.4271 -7.14683 -8
    endloop
  endfacet
  facet normal 0 0 -1
    outer loop
      vertex -9.42705 -7.14683 -8
      vertex -44 -9.79685e-016 -8
      vertex -2 -9.79685e-016 -8
    endloop
  endfacet
  facet normal 0 0 -1
    outer loop
      vertex -41.9271 -8.23664 -8
      vertex -44 -9.79685e-016 -8
      vertex -40.4271 -7.14683 -8
    endloop
  endfacet
  facet normal 0 0 -1
    outer loop
      vertex -42.5 -10 -8
      vertex -44 -9.79685e-016 -8
      vertex -41.9271 -8.23664 -8
    endloop
  endfacet
  facet normal 0 0 -1
    outer loop
      vertex -44 -9.79685e-016 -8
      vertex -42.5 -10 -8
      vertex -44 -20 -8
    endloop
  endfacet
  facet normal 1 0 0
    outer loop
      vertex -2 -20 2.44921e-015
      vertex -2 -9.79685e-016 -8
      vertex -2 0 0
    endloop
  endfacet
  facet normal 1 0 0
    outer loop
      vertex -2 -9.79685e-016 -8
      vertex -2 -20 2.44921e-015
      vertex -2 -20 -8
    endloop
  endfacet
  facet normal 0 -1 0
    outer loop
      vertex -44 -20 2.44921e-015
      vertex -35 -20 -5
      vertex -35 -20 2.44921e-015
    endloop
  endfacet
  facet normal 0 -1 -0
    outer loop
      vertex -35 -20 -5
      vertex -44 -20 -8
      vertex -14 -20 -5
    endloop
  endfacet
  facet normal 0 -1 0
    outer loop
      vertex -44 -20 -8
      vertex -35 -20 -5
      vertex -44 -20 2.44921e-015
    endloop
  endfacet
  facet normal 0 -1 0
    outer loop
      vertex -14 -20 -5
      vertex -2 -20 2.44921e-015
      vertex -14 -20 2.44921e-015
    endloop
  endfacet
  facet normal 0 -1 0
    outer loop
      vertex -14 -20 -5
      vertex -2 -20 -8
      vertex -2 -20 2.44921e-015
    endloop
  endfacet
  facet normal 0 -1 0
    outer loop
      vertex -2 -20 -8
      vertex -14 -20 -5
      vertex -44 -20 -8
    endloop
  endfacet
  facet normal 0 1.22461e-016 1
    outer loop
      vertex -35 0 0
      vertex -36.5 -10 1.22461e-015
      vertex -35 -20 2.44921e-015
    endloop
  endfacet
  facet normal -1.29023e-023 1.22461e-016 1
    outer loop
      vertex -35 0 0
      vertex -37.0729 -8.23664 1.00866e-015
      vertex -36.5 -10 1.22461e-015
    endloop
  endfacet
  facet normal 1.74637e-023 1.22461e-016 1
    outer loop
      vertex -35 0 0
      vertex -38.5729 -7.14683 8.75205e-016
      vertex -37.0729 -8.23664 1.00866e-015
    endloop
  endfacet
  facet normal 0 1.22461e-016 1
    outer loop
      vertex -35 0 0
      vertex -40.4271 -7.14683 8.75205e-016
      vertex -38.5729 -7.14683 8.75205e-016
    endloop
  endfacet
  facet normal -0 1.22461e-016 1
    outer loop
      vertex -44 0 0
      vertex -40.4271 -7.14683 8.75205e-016
      vertex -35 0 0
    endloop
  endfacet
  facet normal 1.29023e-023 1.22461e-016 1
    outer loop
      vertex -41.9271 -8.23664 1.00866e-015
      vertex -44 0 0
      vertex -42.5 -10 1.22461e-015
    endloop
  endfacet
  facet normal -1.74637e-023 1.22461e-016 1
    outer loop
      vertex -40.4271 -7.14683 8.75205e-016
      vertex -44 0 0
      vertex -41.9271 -8.23664 1.00866e-015
    endloop
  endfacet
  facet normal 2.59281e-023 1.22461e-016 1
    outer loop
      vertex -37.0729 -11.7634 1.44055e-015
      vertex -35 -20 2.44921e-015
      vertex -36.5 -10 1.22461e-015
    endloop
  endfacet
  facet normal 1.3187e-023 1.22461e-016 1
    outer loop
      vertex -38.5729 -12.8532 1.57401e-015
      vertex -35 -20 2.44921e-015
      vertex -37.0729 -11.7634 1.44055e-015
    endloop
  endfacet
  facet normal -0 1.22461e-016 1
    outer loop
      vertex -40.4271 -12.8532 1.57401e-015
      vertex -35 -20 2.44921e-015
      vertex -38.5729 -12.8532 1.57401e-015
    endloop
  endfacet
  facet normal -1.3187e-023 1.22461e-016 1
    outer loop
      vertex -44 -20 2.44921e-015
      vertex -40.4271 -12.8532 1.57401e-015
      vertex -41.9271 -11.7634 1.44055e-015
    endloop
  endfacet
  facet normal 0 1.22461e-016 1
    outer loop
      vertex -40.4271 -12.8532 1.57401e-015
      vertex -44 -20 2.44921e-015
      vertex -35 -20 2.44921e-015
    endloop
  endfacet
  facet normal -2.59281e-023 1.22461e-016 1
    outer loop
      vertex -42.5 -10 1.22461e-015
      vertex -44 -20 2.44921e-015
      vertex -41.9271 -11.7634 1.44055e-015
    endloop
  endfacet
  facet normal 0 1.22461e-016 1
    outer loop
      vertex -44 -20 2.44921e-015
      vertex -42.5 -10 1.22461e-015
      vertex -44 0 0
    endloop
  endfacet
  facet normal 0 1.22461e-016 1
    outer loop
      vertex -2 0 0
      vertex -5.5 -10 1.22461e-015
      vertex -2 -20 2.44921e-015
    endloop
  endfacet
  facet normal -9.07892e-024 1.22461e-016 1
    outer loop
      vertex -2 0 0
      vertex -6.07295 -8.23664 1.00866e-015
      vertex -5.5 -10 1.22461e-015
    endloop
  endfacet
  facet normal 1.51971e-023 1.22461e-016 1
    outer loop
      vertex -2 0 0
      vertex -7.57295 -7.14683 8.75205e-016
      vertex -6.07295 -8.23664 1.00866e-015
    endloop
  endfacet
  facet normal -0 1.22461e-016 1
    outer loop
      vertex -14 0 0
      vertex -7.57295 -7.14683 8.75205e-016
      vertex -2 0 0
    endloop
  endfacet
  facet normal 0 1.22461e-016 1
    outer loop
      vertex -7.57295 -7.14683 8.75205e-016
      vertex -14 0 0
      vertex -9.42705 -7.14683 8.75205e-016
    endloop
  endfacet
  facet normal 1.06581e-023 1.22461e-016 1
    outer loop
      vertex -10.9271 -8.23664 1.00866e-015
      vertex -14 0 0
      vertex -11.5 -10 1.22461e-015
    endloop
  endfacet
  facet normal -1.62518e-023 1.22461e-016 1
    outer loop
      vertex -9.42705 -7.14683 8.75205e-016
      vertex -14 0 0
      vertex -10.9271 -8.23664 1.00866e-015
    endloop
  endfacet
  facet normal 1.82447e-023 1.22461e-016 1
    outer loop
      vertex -6.07295 -11.7634 1.44055e-015
      vertex -2 -20 2.44921e-015
      vertex -5.5 -10 1.22461e-015
    endloop
  endfacet
  facet normal 1.14755e-023 1.22461e-016 1
    outer loop
      vertex -7.57295 -12.8532 1.57401e-015
      vertex -2 -20 2.44921e-015
      vertex -6.07295 -11.7634 1.44055e-015
    endloop
  endfacet
  facet normal 0 1.22461e-016 1
    outer loop
      vertex -14 -20 2.44921e-015
      vertex -7.57295 -12.8532 1.57401e-015
      vertex -9.42705 -12.8532 1.57401e-015
    endloop
  endfacet
  facet normal -1.22718e-023 1.22461e-016 1
    outer loop
      vertex -14 -20 2.44921e-015
      vertex -9.42705 -12.8532 1.57401e-015
      vertex -10.9271 -11.7634 1.44055e-015
    endloop
  endfacet
  facet normal 0 1.22461e-016 1
    outer loop
      vertex -7.57295 -12.8532 1.57401e-015
      vertex -14 -20 2.44921e-015
      vertex -2 -20 2.44921e-015
    endloop
  endfacet
  facet normal -2.14182e-023 1.22461e-016 1
    outer loop
      vertex -11.5 -10 1.22461e-015
      vertex -14 -20 2.44921e-015
      vertex -10.9271 -11.7634 1.44055e-015
    endloop
  endfacet
  facet normal 0 1.22461e-016 1
    outer loop
      vertex -14 -20 2.44921e-015
      vertex -11.5 -10 1.22461e-015
      vertex -14 0 0
    endloop
  endfacet
  facet normal 0 1 -1.22461e-016
    outer loop
      vertex -2 0 0
      vertex -14 -6.12303e-016 -5
      vertex -14 0 0
    endloop
  endfacet
  facet normal 0 1 -1.22461e-016
    outer loop
      vertex -44 -9.79685e-016 -8
      vertex -14 -6.12303e-016 -5
      vertex -2 -9.79685e-016 -8
    endloop
  endfacet
  facet normal 0 1 -1.22461e-016
    outer loop
      vertex -2 -9.79685e-016 -8
      vertex -14 -6.12303e-016 -5
      vertex -2 0 0
    endloop
  endfacet
  facet normal 0 1 -1.22461e-016
    outer loop
      vertex -35 -6.12303e-016 -5
      vertex -44 0 0
      vertex -35 0 0
    endloop
  endfacet
  facet normal 0 1 -1.22461e-016
    outer loop
      vertex -35 -6.12303e-016 -5
      vertex -44 -9.79685e-016 -8
      vertex -44 0 0
    endloop
  endfacet
  facet normal 0 1 -1.22461e-016
    outer loop
      vertex -14 -6.12303e-016 -5
      vertex -44 -9.79685e-016 -8
      vertex -35 -6.12303e-016 -5
    endloop
  endfacet
  facet normal -0.951057 0.309017 0
    outer loop
      vertex -37.0729 -11.7634 -8
      vertex -36.5 -10 1.22461e-015
      vertex -36.5 -10 -8
    endloop
  endfacet
  facet normal -0.951057 0.309017 0
    outer loop
      vertex -36.5 -10 1.22461e-015
      vertex -37.0729 -11.7634 -8
      vertex -37.0729 -11.7634 1.44055e-015
    endloop
  endfacet
  facet normal 0 1 -0
    outer loop
      vertex -38.5729 -12.8532 -8
      vertex -40.4271 -12.8532 1.57401e-015
      vertex -38.5729 -12.8532 1.57401e-015
    endloop
  endfacet
  facet normal 0 1 0
    outer loop
      vertex -40.4271 -12.8532 1.57401e-015
      vertex -38.5729 -12.8532 -8
      vertex -40.4271 -12.8532 -8
    endloop
  endfacet
  facet normal -0.587785 0.809017 0
    outer loop
      vertex -37.0729 -11.7634 -8
      vertex -38.5729 -12.8532 1.57401e-015
      vertex -37.0729 -11.7634 1.44055e-015
    endloop
  endfacet
  facet normal -0.587785 0.809017 0
    outer loop
      vertex -38.5729 -12.8532 1.57401e-015
      vertex -37.0729 -11.7634 -8
      vertex -38.5729 -12.8532 -8
    endloop
  endfacet
  facet normal 0.587785 0.809017 -0
    outer loop
      vertex -40.4271 -12.8532 -8
      vertex -41.9271 -11.7634 1.44055e-015
      vertex -40.4271 -12.8532 1.57401e-015
    endloop
  endfacet
  facet normal 0.587785 0.809017 0
    outer loop
      vertex -41.9271 -11.7634 1.44055e-015
      vertex -40.4271 -12.8532 -8
      vertex -41.9271 -11.7634 -8
    endloop
  endfacet
  facet normal -0.587785 -0.809017 0
    outer loop
      vertex -38.5729 -7.14683 -8
      vertex -37.0729 -8.23664 1.00866e-015
      vertex -38.5729 -7.14683 8.75205e-016
    endloop
  endfacet
  facet normal -0.587785 -0.809017 -0
    outer loop
      vertex -37.0729 -8.23664 1.00866e-015
      vertex -38.5729 -7.14683 -8
      vertex -37.0729 -8.23664 -8
    endloop
  endfacet
  facet normal 0.587785 -0.809017 0
    outer loop
      vertex -41.9271 -8.23664 -8
      vertex -40.4271 -7.14683 8.75205e-016
      vertex -41.9271 -8.23664 1.00866e-015
    endloop
  endfacet
  facet normal 0.587785 -0.809017 0
    outer loop
      vertex -40.4271 -7.14683 8.75205e-016
      vertex -41.9271 -8.23664 -8
      vertex -40.4271 -7.14683 -8
    endloop
  endfacet
  facet normal 0.951057 0.309017 0
    outer loop
      vertex -41.9271 -11.7634 1.44055e-015
      vertex -42.5 -10 -8
      vertex -42.5 -10 1.22461e-015
    endloop
  endfacet
  facet normal 0.951057 0.309017 0
    outer loop
      vertex -42.5 -10 -8
      vertex -41.9271 -11.7634 1.44055e-015
      vertex -41.9271 -11.7634 -8
    endloop
  endfacet
  facet normal -0.951057 -0.309017 0
    outer loop
      vertex -36.5 -10 -8
      vertex -37.0729 -8.23664 1.00866e-015
      vertex -37.0729 -8.23664 -8
    endloop
  endfacet
  facet normal -0.951057 -0.309017 0
    outer loop
      vertex -37.0729 -8.23664 1.00866e-015
      vertex -36.5 -10 -8
      vertex -36.5 -10 1.22461e-015
    endloop
  endfacet
  facet normal 0 -1 0
    outer loop
      vertex -40.4271 -7.14683 -8
      vertex -38.5729 -7.14683 8.75205e-016
      vertex -40.4271 -7.14683 8.75205e-016
    endloop
  endfacet
  facet normal 0 -1 -0
    outer loop
      vertex -38.5729 -7.14683 8.75205e-016
      vertex -40.4271 -7.14683 -8
      vertex -38.5729 -7.14683 -8
    endloop
  endfacet
  facet normal 0.951057 -0.309017 0
    outer loop
      vertex -42.5 -10 1.22461e-015
      vertex -41.9271 -8.23664 -8
      vertex -41.9271 -8.23664 1.00866e-015
    endloop
  endfacet
  facet normal 0.951057 -0.309017 0
    outer loop
      vertex -41.9271 -8.23664 -8
      vertex -42.5 -10 1.22461e-015
      vertex -42.5 -10 -8
    endloop
  endfacet
  facet normal -0.951056 0.309017 0
    outer loop
      vertex -6.07295 -11.7634 -8
      vertex -5.5 -10 1.22461e-015
      vertex -5.5 -10 -8
    endloop
  endfacet
  facet normal -0.951056 0.309017 0
    outer loop
      vertex -5.5 -10 1.22461e-015
      vertex -6.07295 -11.7634 -8
      vertex -6.07295 -11.7634 1.44055e-015
    endloop
  endfacet
  facet normal 0.951057 -0.309017 0
    outer loop
      vertex -11.5 -10 1.22461e-015
      vertex -10.9271 -8.23664 -8
      vertex -10.9271 -8.23664 1.00866e-015
    endloop
  endfacet
  facet normal 0.951057 -0.309017 0
    outer loop
      vertex -10.9271 -8.23664 -8
      vertex -11.5 -10 1.22461e-015
      vertex -11.5 -10 -8
    endloop
  endfacet
  facet normal 0 1 -0
    outer loop
      vertex -7.57295 -12.8532 -8
      vertex -9.42705 -12.8532 1.57401e-015
      vertex -7.57295 -12.8532 1.57401e-015
    endloop
  endfacet
  facet normal 0 1 0
    outer loop
      vertex -9.42705 -12.8532 1.57401e-015
      vertex -7.57295 -12.8532 -8
      vertex -9.42705 -12.8532 -8
    endloop
  endfacet
  facet normal -0.587785 0.809017 0
    outer loop
      vertex -6.07295 -11.7634 -8
      vertex -7.57295 -12.8532 1.57401e-015
      vertex -6.07295 -11.7634 1.44055e-015
    endloop
  endfacet
  facet normal -0.587785 0.809017 0
    outer loop
      vertex -7.57295 -12.8532 1.57401e-015
      vertex -6.07295 -11.7634 -8
      vertex -7.57295 -12.8532 -8
    endloop
  endfacet
  facet normal 0.587785 0.809017 -0
    outer loop
      vertex -9.42705 -12.8532 -8
      vertex -10.9271 -11.7634 1.44055e-015
      vertex -9.42705 -12.8532 1.57401e-015
    endloop
  endfacet
  facet normal 0.587785 0.809017 0
    outer loop
      vertex -10.9271 -11.7634 1.44055e-015
      vertex -9.42705 -12.8532 -8
      vertex -10.9271 -11.7634 -8
    endloop
  endfacet
  facet normal -0.587785 -0.809017 0
    outer loop
      vertex -7.57295 -7.14683 -8
      vertex -6.07295 -8.23664 1.00866e-015
      vertex -7.57295 -7.14683 8.75205e-016
    endloop
  endfacet
  facet normal -0.587785 -0.809017 -0
    outer loop
      vertex -6.07295 -8.23664 1.00866e-015
      vertex -7.57295 -7.14683 -8
      vertex -6.07295 -8.23664 -8
    endloop
  endfacet
  facet normal 0.587785 -0.809017 0
    outer loop
      vertex -10.9271 -8.23664 -8
      vertex -9.42705 -7.14683 8.75205e-016
      vertex -10.9271 -8.23664 1.00866e-015
    endloop
  endfacet
  facet normal 0.587785 -0.809017 0
    outer loop
      vertex -9.42705 -7.14683 8.75205e-016
      vertex -10.9271 -8.23664 -8
      vertex -9.42705 -7.14683 -8
    endloop
  endfacet
  facet normal 0.951057 0.309017 0
    outer loop
      vertex -10.9271 -11.7634 1.44055e-015
      vertex -11.5 -10 -8
      vertex -11.5 -10 1.22461e-015
    endloop
  endfacet
  facet normal 0.951057 0.309017 0
    outer loop
      vertex -11.5 -10 -8
      vertex -10.9271 -11.7634 1.44055e-015
      vertex -10.9271 -11.7634 -8
    endloop
  endfacet
  facet normal 0 -1 0
    outer loop
      vertex -9.42705 -7.14683 -8
      vertex -7.57295 -7.14683 8.75205e-016
      vertex -9.42705 -7.14683 8.75205e-016
    endloop
  endfacet
  facet normal 0 -1 -0
    outer loop
      vertex -7.57295 -7.14683 8.75205e-016
      vertex -9.42705 -7.14683 -8
      vertex -7.57295 -7.14683 -8
    endloop
  endfacet
  facet normal -0.951056 -0.309017 0
    outer loop
      vertex -5.5 -10 -8
      vertex -6.07295 -8.23664 1.00866e-015
      vertex -6.07295 -8.23664 -8
    endloop
  endfacet
  facet normal -0.951056 -0.309017 0
    outer loop
      vertex -6.07295 -8.23664 1.00866e-015
      vertex -5.5 -10 -8
      vertex -5.5 -10 1.22461e-015
    endloop
  endfacet
  facet normal 1 0 0
    outer loop
      vertex -35 -20 2.44921e-015
      vertex -35 -6.12303e-016 -5
      vertex -35 0 0
    endloop
  endfacet
  facet normal 1 0 0
    outer loop
      vertex -35 -6.12303e-016 -5
      vertex -35 -20 2.44921e-015
      vertex -35 -20 -5
    endloop
  endfacet
  facet normal -0 0 1
    outer loop
      vertex -35 -6.12303e-016 -5
      vertex -14 -20 -5
      vertex -14 -6.12303e-016 -5
    endloop
  endfacet
  facet normal 0 0 1
    outer loop
      vertex -14 -20 -5
      vertex -35 -6.12303e-016 -5
      vertex -35 -20 -5
    endloop
  endfacet
  facet normal -1 0 0
    outer loop
      vertex -14 -20 -5
      vertex -14 0 0
      vertex -14 -6.12303e-016 -5
    endloop
  endfacet
  facet normal -1 -0 0
    outer loop
      vertex -14 0 0
      vertex -14 -20 -5
      vertex -14 -20 2.44921e-015
    endloop
  endfacet
  facet normal -1 0 0
    outer loop
      vertex 0 -45 -8
      vertex 0 -25 3.06152e-015
      vertex 0 -25 -8
    endloop
  endfacet
  facet normal -1 -0 0
    outer loop
      vertex 0 -25 3.06152e-015
      vertex 0 -45 -8
      vertex 0 -45 5.51073e-015
    endloop
  endfacet
  facet normal 0 0 -1
    outer loop
      vertex 42 -45 -8
      vertex 38.5 -35 -8
      vertex 42 -25 -8
    endloop
  endfacet
  facet normal 0 0 -1
    outer loop
      vertex 42 -45 -8
      vertex 37.9271 -36.7634 -8
      vertex 38.5 -35 -8
    endloop
  endfacet
  facet normal 0 0 -1
    outer loop
      vertex 42 -45 -8
      vertex 36.4271 -37.8532 -8
      vertex 37.9271 -36.7634 -8
    endloop
  endfacet
  facet normal 0 0 -1
    outer loop
      vertex 42 -45 -8
      vertex 34.5729 -37.8532 -8
      vertex 36.4271 -37.8532 -8
    endloop
  endfacet
  facet normal 0 0 -1
    outer loop
      vertex 0 -45 -8
      vertex 34.5729 -37.8532 -8
      vertex 42 -45 -8
    endloop
  endfacet
  facet normal 0 0 -1
    outer loop
      vertex 33.0729 -36.7634 -8
      vertex 7.5 -35 -8
      vertex 32.5 -35 -8
    endloop
  endfacet
  facet normal -0 0 -1
    outer loop
      vertex 34.5729 -37.8532 -8
      vertex 0 -45 -8
      vertex 33.0729 -36.7634 -8
    endloop
  endfacet
  facet normal 0 0 -1
    outer loop
      vertex 33.0729 -36.7634 -8
      vertex 6.92705 -36.7634 -8
      vertex 7.5 -35 -8
    endloop
  endfacet
  facet normal -0 0 -1
    outer loop
      vertex 33.0729 -36.7634 -8
      vertex 0 -45 -8
      vertex 6.92705 -36.7634 -8
    endloop
  endfacet
  facet normal 0 0 -1
    outer loop
      vertex 6.92705 -36.7634 -8
      vertex 0 -45 -8
      vertex 5.42705 -37.8532 -8
    endloop
  endfacet
  facet normal -0 0 -1
    outer loop
      vertex 2.07295 -36.7634 -8
      vertex 0 -45 -8
      vertex 1.5 -35 -8
    endloop
  endfacet
  facet normal -0 0 -1
    outer loop
      vertex 3.57295 -37.8532 -8
      vertex 0 -45 -8
      vertex 2.07295 -36.7634 -8
    endloop
  endfacet
  facet normal -0 0 -1
    outer loop
      vertex 5.42705 -37.8532 -8
      vertex 0 -45 -8
      vertex 3.57295 -37.8532 -8
    endloop
  endfacet
  facet normal 0 0 -1
    outer loop
      vertex 37.9271 -33.2366 -8
      vertex 42 -25 -8
      vertex 38.5 -35 -8
    endloop
  endfacet
  facet normal 0 0 -1
    outer loop
      vertex 36.4271 -32.1468 -8
      vertex 42 -25 -8
      vertex 37.9271 -33.2366 -8
    endloop
  endfacet
  facet normal 0 0 -1
    outer loop
      vertex 34.5729 -32.1468 -8
      vertex 42 -25 -8
      vertex 36.4271 -32.1468 -8
    endloop
  endfacet
  facet normal 0 0 -1
    outer loop
      vertex 0 -25 -8
      vertex 34.5729 -32.1468 -8
      vertex 33.0729 -33.2366 -8
    endloop
  endfacet
  facet normal 0 0 -1
    outer loop
      vertex 7.5 -35 -8
      vertex 33.0729 -33.2366 -8
      vertex 32.5 -35 -8
    endloop
  endfacet
  facet normal 0 0 -1
    outer loop
      vertex 6.92705 -33.2366 -8
      vertex 33.0729 -33.2366 -8
      vertex 7.5 -35 -8
    endloop
  endfacet
  facet normal 0 0 -1
    outer loop
      vertex 0 -25 -8
      vertex 33.0729 -33.2366 -8
      vertex 6.92705 -33.2366 -8
    endloop
  endfacet
  facet normal 0 0 -1
    outer loop
      vertex 0 -25 -8
      vertex 6.92705 -33.2366 -8
      vertex 5.42705 -32.1468 -8
    endloop
  endfacet
  facet normal 0 0 -1
    outer loop
      vertex 0 -25 -8
      vertex 5.42705 -32.1468 -8
      vertex 3.57295 -32.1468 -8
    endloop
  endfacet
  facet normal 0 0 -1
    outer loop
      vertex 34.5729 -32.1468 -8
      vertex 0 -25 -8
      vertex 42 -25 -8
    endloop
  endfacet
  facet normal 0 0 -1
    outer loop
      vertex 2.07295 -33.2366 -8
      vertex 0 -25 -8
      vertex 3.57295 -32.1468 -8
    endloop
  endfacet
  facet normal 0 0 -1
    outer loop
      vertex 1.5 -35 -8
      vertex 0 -25 -8
      vertex 2.07295 -33.2366 -8
    endloop
  endfacet
  facet normal 0 0 -1
    outer loop
      vertex 0 -25 -8
      vertex 1.5 -35 -8
      vertex 0 -45 -8
    endloop
  endfacet
  facet normal 1 0 0
    outer loop
      vertex 42 -45 5.51073e-015
      vertex 42 -25 -8
      vertex 42 -25 3.06152e-015
    endloop
  endfacet
  facet normal 1 0 0
    outer loop
      vertex 42 -25 -8
      vertex 42 -45 5.51073e-015
      vertex 42 -45 -8
    endloop
  endfacet
  facet normal 0 -1 0
    outer loop
      vertex 0 -45 5.51073e-015
      vertex 9 -45 -5
      vertex 9 -45 5.51073e-015
    endloop
  endfacet
  facet normal 0 -1 -0
    outer loop
      vertex 9 -45 -5
      vertex 0 -45 -8
      vertex 30 -45 -5
    endloop
  endfacet
  facet normal 0 -1 0
    outer loop
      vertex 0 -45 -8
      vertex 9 -45 -5
      vertex 0 -45 5.51073e-015
    endloop
  endfacet
  facet normal 0 -1 0
    outer loop
      vertex 30 -45 -5
      vertex 42 -45 5.51073e-015
      vertex 30 -45 5.51073e-015
    endloop
  endfacet
  facet normal 0 -1 0
    outer loop
      vertex 30 -45 -5
      vertex 42 -45 -8
      vertex 42 -45 5.51073e-015
    endloop
  endfacet
  facet normal 0 -1 0
    outer loop
      vertex 42 -45 -8
      vertex 30 -45 -5
      vertex 0 -45 -8
    endloop
  endfacet
  facet normal 0 1.22461e-016 1
    outer loop
      vertex 9 -25 3.06152e-015
      vertex 7.5 -35 4.28612e-015
      vertex 9 -45 5.51073e-015
    endloop
  endfacet
  facet normal -1.52358e-022 1.22461e-016 1
    outer loop
      vertex 9 -25 3.06152e-015
      vertex 6.92705 -33.2366 4.07018e-015
      vertex 7.5 -35 4.28612e-015
    endloop
  endfacet
  facet normal 1.76385e-022 1.22461e-016 1
    outer loop
      vertex 9 -25 3.06152e-015
      vertex 5.42705 -32.1468 3.93672e-015
      vertex 6.92705 -33.2366 4.07018e-015
    endloop
  endfacet
  facet normal 0 1.22461e-016 1
    outer loop
      vertex 9 -25 3.06152e-015
      vertex 3.57295 -32.1468 3.93672e-015
      vertex 5.42705 -32.1468 3.93672e-015
    endloop
  endfacet
  facet normal -0 1.22461e-016 1
    outer loop
      vertex 0 -25 3.06152e-015
      vertex 3.57295 -32.1468 3.93672e-015
      vertex 9 -25 3.06152e-015
    endloop
  endfacet
  facet normal 1.52358e-022 1.22461e-016 1
    outer loop
      vertex 2.07295 -33.2366 4.07018e-015
      vertex 0 -25 3.06152e-015
      vertex 1.5 -35 4.28612e-015
    endloop
  endfacet
  facet normal -1.76385e-022 1.22461e-016 1
    outer loop
      vertex 3.57295 -32.1468 3.93672e-015
      vertex 0 -25 3.06152e-015
      vertex 2.07295 -33.2366 4.07018e-015
    endloop
  endfacet
  facet normal 1.52358e-022 1.22461e-016 1
    outer loop
      vertex 6.92705 -36.7634 4.50206e-015
      vertex 9 -45 5.51073e-015
      vertex 7.5 -35 4.28612e-015
    endloop
  endfacet
  facet normal 8.69053e-023 1.22461e-016 1
    outer loop
      vertex 5.42705 -37.8532 4.63552e-015
      vertex 9 -45 5.51073e-015
      vertex 6.92705 -36.7634 4.50206e-015
    endloop
  endfacet
  facet normal -0 1.22461e-016 1
    outer loop
      vertex 3.57295 -37.8532 4.63552e-015
      vertex 9 -45 5.51073e-015
      vertex 5.42705 -37.8532 4.63552e-015
    endloop
  endfacet
  facet normal -8.69053e-023 1.22461e-016 1
    outer loop
      vertex 0 -45 5.51073e-015
      vertex 3.57295 -37.8532 4.63552e-015
      vertex 2.07295 -36.7634 4.50206e-015
    endloop
  endfacet
  facet normal 0 1.22461e-016 1
    outer loop
      vertex 3.57295 -37.8532 4.63552e-015
      vertex 0 -45 5.51073e-015
      vertex 9 -45 5.51073e-015
    endloop
  endfacet
  facet normal -1.52358e-022 1.22461e-016 1
    outer loop
      vertex 1.5 -35 4.28612e-015
      vertex 0 -45 5.51073e-015
      vertex 2.07295 -36.7634 4.50206e-015
    endloop
  endfacet
  facet normal 0 1.22461e-016 1
    outer loop
      vertex 0 -45 5.51073e-015
      vertex 1.5 -35 4.28612e-015
      vertex 0 -25 3.06152e-015
    endloop
  endfacet
  facet normal 0 1.22461e-016 1
    outer loop
      vertex 42 -25 3.06152e-015
      vertex 38.5 -35 4.28612e-015
      vertex 42 -45 5.51073e-015
    endloop
  endfacet
  facet normal -1.0721e-022 1.22461e-016 1
    outer loop
      vertex 42 -25 3.06152e-015
      vertex 37.9271 -33.2366 4.07018e-015
      vertex 38.5 -35 4.28612e-015
    endloop
  endfacet
  facet normal 1.53492e-022 1.22461e-016 1
    outer loop
      vertex 42 -25 3.06152e-015
      vertex 36.4271 -32.1468 3.93672e-015
      vertex 37.9271 -33.2366 4.07018e-015
    endloop
  endfacet
  facet normal -0 1.22461e-016 1
    outer loop
      vertex 30 -25 3.06152e-015
      vertex 36.4271 -32.1468 3.93672e-015
      vertex 42 -25 3.06152e-015
    endloop
  endfacet
  facet normal 0 1.22461e-016 1
    outer loop
      vertex 36.4271 -32.1468 3.93672e-015
      vertex 30 -25 3.06152e-015
      vertex 34.5729 -32.1468 3.93672e-015
    endloop
  endfacet
  facet normal 1.25857e-022 1.22461e-016 1
    outer loop
      vertex 33.0729 -33.2366 4.07018e-015
      vertex 30 -25 3.06152e-015
      vertex 32.5 -35 4.28612e-015
    endloop
  endfacet
  facet normal -1.64144e-022 1.22461e-016 1
    outer loop
      vertex 34.5729 -32.1468 3.93672e-015
      vertex 30 -25 3.06152e-015
      vertex 33.0729 -33.2366 4.07018e-015
    endloop
  endfacet
  facet normal 1.0721e-022 1.22461e-016 1
    outer loop
      vertex 37.9271 -36.7634 4.50206e-015
      vertex 42 -45 5.51073e-015
      vertex 38.5 -35 4.28612e-015
    endloop
  endfacet
  facet normal 7.5626e-023 1.22461e-016 1
    outer loop
      vertex 36.4271 -37.8532 4.63552e-015
      vertex 42 -45 5.51073e-015
      vertex 37.9271 -36.7634 4.50206e-015
    endloop
  endfacet
  facet normal 0 1.22461e-016 1
    outer loop
      vertex 30 -45 5.51073e-015
      vertex 36.4271 -37.8532 4.63552e-015
      vertex 34.5729 -37.8532 4.63552e-015
    endloop
  endfacet
  facet normal -8.08743e-023 1.22461e-016 1
    outer loop
      vertex 30 -45 5.51073e-015
      vertex 34.5729 -37.8532 4.63552e-015
      vertex 33.0729 -36.7634 4.50206e-015
    endloop
  endfacet
  facet normal 0 1.22461e-016 1
    outer loop
      vertex 36.4271 -37.8532 4.63552e-015
      vertex 30 -45 5.51073e-015
      vertex 42 -45 5.51073e-015
    endloop
  endfacet
  facet normal -1.25857e-022 1.22461e-016 1
    outer loop
      vertex 32.5 -35 4.28612e-015
      vertex 30 -45 5.51073e-015
      vertex 33.0729 -36.7634 4.50206e-015
    endloop
  endfacet
  facet normal 0 1.22461e-016 1
    outer loop
      vertex 30 -45 5.51073e-015
      vertex 32.5 -35 4.28612e-015
      vertex 30 -25 3.06152e-015
    endloop
  endfacet
  facet normal 0 1 0
    outer loop
      vertex 42 -25 3.06152e-015
      vertex 30 -25 -5
      vertex 30 -25 3.06152e-015
    endloop
  endfacet
  facet normal 0 1 0
    outer loop
      vertex 0 -25 -8
      vertex 30 -25 -5
      vertex 42 -25 -8
    endloop
  endfacet
  facet normal 0 1 -0
    outer loop
      vertex 42 -25 -8
      vertex 30 -25 -5
      vertex 42 -25 3.06152e-015
    endloop
  endfacet
  facet normal 0 1 -0
    outer loop
      vertex 9 -25 -5
      vertex 0 -25 3.06152e-015
      vertex 9 -25 3.06152e-015
    endloop
  endfacet
  facet normal 0 1 0
    outer loop
      vertex 9 -25 -5
      vertex 0 -25 -8
      vertex 0 -25 3.06152e-015
    endloop
  endfacet
  facet normal 0 1 0
    outer loop
      vertex 30 -25 -5
      vertex 0 -25 -8
      vertex 9 -25 -5
    endloop
  endfacet
  facet normal -0.951056 0.309017 0
    outer loop
      vertex 6.92705 -36.7634 -8
      vertex 7.5 -35 4.28612e-015
      vertex 7.5 -35 -8
    endloop
  endfacet
  facet normal -0.951056 0.309017 0
    outer loop
      vertex 7.5 -35 4.28612e-015
      vertex 6.92705 -36.7634 -8
      vertex 6.92705 -36.7634 4.50206e-015
    endloop
  endfacet
  facet normal 0 1 -0
    outer loop
      vertex 5.42705 -37.8532 -8
      vertex 3.57295 -37.8532 4.63552e-015
      vertex 5.42705 -37.8532 4.63552e-015
    endloop
  endfacet
  facet normal 0 1 0
    outer loop
      vertex 3.57295 -37.8532 4.63552e-015
      vertex 5.42705 -37.8532 -8
      vertex 3.57295 -37.8532 -8
    endloop
  endfacet
  facet normal -0.587785 0.809017 0
    outer loop
      vertex 6.92705 -36.7634 -8
      vertex 5.42705 -37.8532 4.63552e-015
      vertex 6.92705 -36.7634 4.50206e-015
    endloop
  endfacet
  facet normal -0.587785 0.809017 0
    outer loop
      vertex 5.42705 -37.8532 4.63552e-015
      vertex 6.92705 -36.7634 -8
      vertex 5.42705 -37.8532 -8
    endloop
  endfacet
  facet normal 0.587785 0.809017 -0
    outer loop
      vertex 3.57295 -37.8532 -8
      vertex 2.07295 -36.7634 4.50206e-015
      vertex 3.57295 -37.8532 4.63552e-015
    endloop
  endfacet
  facet normal 0.587785 0.809017 0
    outer loop
      vertex 2.07295 -36.7634 4.50206e-015
      vertex 3.57295 -37.8532 -8
      vertex 2.07295 -36.7634 -8
    endloop
  endfacet
  facet normal -0.587786 -0.809016 0
    outer loop
      vertex 5.42705 -32.1468 -8
      vertex 6.92705 -33.2366 4.07018e-015
      vertex 5.42705 -32.1468 3.93672e-015
    endloop
  endfacet
  facet normal -0.587786 -0.809016 -0
    outer loop
      vertex 6.92705 -33.2366 4.07018e-015
      vertex 5.42705 -32.1468 -8
      vertex 6.92705 -33.2366 -8
    endloop
  endfacet
  facet normal 0.587786 -0.809016 0
    outer loop
      vertex 2.07295 -33.2366 -8
      vertex 3.57295 -32.1468 3.93672e-015
      vertex 2.07295 -33.2366 4.07018e-015
    endloop
  endfacet
  facet normal 0.587786 -0.809016 0
    outer loop
      vertex 3.57295 -32.1468 3.93672e-015
      vertex 2.07295 -33.2366 -8
      vertex 3.57295 -32.1468 -8
    endloop
  endfacet
  facet normal 0.951057 0.309017 0
    outer loop
      vertex 2.07295 -36.7634 4.50206e-015
      vertex 1.5 -35 -8
      vertex 1.5 -35 4.28612e-015
    endloop
  endfacet
  facet normal 0.951057 0.309017 0
    outer loop
      vertex 1.5 -35 -8
      vertex 2.07295 -36.7634 4.50206e-015
      vertex 2.07295 -36.7634 -8
    endloop
  endfacet
  facet normal -0.951056 -0.309017 0
    outer loop
      vertex 7.5 -35 -8
      vertex 6.92705 -33.2366 4.07018e-015
      vertex 6.92705 -33.2366 -8
    endloop
  endfacet
  facet normal -0.951056 -0.309017 0
    outer loop
      vertex 6.92705 -33.2366 4.07018e-015
      vertex 7.5 -35 -8
      vertex 7.5 -35 4.28612e-015
    endloop
  endfacet
  facet normal 0 -1 0
    outer loop
      vertex 3.57295 -32.1468 -8
      vertex 5.42705 -32.1468 3.93672e-015
      vertex 3.57295 -32.1468 3.93672e-015
    endloop
  endfacet
  facet normal 0 -1 -0
    outer loop
      vertex 5.42705 -32.1468 3.93672e-015
      vertex 3.57295 -32.1468 -8
      vertex 5.42705 -32.1468 -8
    endloop
  endfacet
  facet normal 0.951057 -0.309017 0
    outer loop
      vertex 1.5 -35 4.28612e-015
      vertex 2.07295 -33.2366 -8
      vertex 2.07295 -33.2366 4.07018e-015
    endloop
  endfacet
  facet normal 0.951057 -0.309017 0
    outer loop
      vertex 2.07295 -33.2366 -8
      vertex 1.5 -35 4.28612e-015
      vertex 1.5 -35 -8
    endloop
  endfacet
  facet normal -0.951057 0.309017 0
    outer loop
      vertex 37.9271 -36.7634 -8
      vertex 38.5 -35 4.28612e-015
      vertex 38.5 -35 -8
    endloop
  endfacet
  facet normal -0.951057 0.309017 0
    outer loop
      vertex 38.5 -35 4.28612e-015
      vertex 37.9271 -36.7634 -8
      vertex 37.9271 -36.7634 4.50206e-015
    endloop
  endfacet
  facet normal 0.951057 -0.309017 0
    outer loop
      vertex 32.5 -35 4.28612e-015
      vertex 33.0729 -33.2366 -8
      vertex 33.0729 -33.2366 4.07018e-015
    endloop
  endfacet
  facet normal 0.951057 -0.309017 0
    outer loop
      vertex 33.0729 -33.2366 -8
      vertex 32.5 -35 4.28612e-015
      vertex 32.5 -35 -8
    endloop
  endfacet
  facet normal 0 1 -0
    outer loop
      vertex 36.4271 -37.8532 -8
      vertex 34.5729 -37.8532 4.63552e-015
      vertex 36.4271 -37.8532 4.63552e-015
    endloop
  endfacet
  facet normal 0 1 0
    outer loop
      vertex 34.5729 -37.8532 4.63552e-015
      vertex 36.4271 -37.8532 -8
      vertex 34.5729 -37.8532 -8
    endloop
  endfacet
  facet normal -0.587785 0.809017 0
    outer loop
      vertex 37.9271 -36.7634 -8
      vertex 36.4271 -37.8532 4.63552e-015
      vertex 37.9271 -36.7634 4.50206e-015
    endloop
  endfacet
  facet normal -0.587785 0.809017 0
    outer loop
      vertex 36.4271 -37.8532 4.63552e-015
      vertex 37.9271 -36.7634 -8
      vertex 36.4271 -37.8532 -8
    endloop
  endfacet
  facet normal 0.587785 0.809017 -0
    outer loop
      vertex 34.5729 -37.8532 -8
      vertex 33.0729 -36.7634 4.50206e-015
      vertex 34.5729 -37.8532 4.63552e-015
    endloop
  endfacet
  facet normal 0.587785 0.809017 0
    outer loop
      vertex 33.0729 -36.7634 4.50206e-015
      vertex 34.5729 -37.8532 -8
      vertex 33.0729 -36.7634 -8
    endloop
  endfacet
  facet normal -0.587786 -0.809016 0
    outer loop
      vertex 36.4271 -32.1468 -8
      vertex 37.9271 -33.2366 4.07018e-015
      vertex 36.4271 -32.1468 3.93672e-015
    endloop
  endfacet
  facet normal -0.587786 -0.809016 -0
    outer loop
      vertex 37.9271 -33.2366 4.07018e-015
      vertex 36.4271 -32.1468 -8
      vertex 37.9271 -33.2366 -8
    endloop
  endfacet
  facet normal 0.587786 -0.809016 0
    outer loop
      vertex 33.0729 -33.2366 -8
      vertex 34.5729 -32.1468 3.93672e-015
      vertex 33.0729 -33.2366 4.07018e-015
    endloop
  endfacet
  facet normal 0.587786 -0.809016 0
    outer loop
      vertex 34.5729 -32.1468 3.93672e-015
      vertex 33.0729 -33.2366 -8
      vertex 34.5729 -32.1468 -8
    endloop
  endfacet
  facet normal 0.951057 0.309017 0
    outer loop
      vertex 33.0729 -36.7634 4.50206e-015
      vertex 32.5 -35 -8
      vertex 32.5 -35 4.28612e-015
    endloop
  endfacet
  facet normal 0.951057 0.309017 0
    outer loop
      vertex 32.5 -35 -8
      vertex 33.0729 -36.7634 4.50206e-015
      vertex 33.0729 -36.7634 -8
    endloop
  endfacet
  facet normal 0 -1 0
    outer loop
      vertex 34.5729 -32.1468 -8
      vertex 36.4271 -32.1468 3.93672e-015
      vertex 34.5729 -32.1468 3.93672e-015
    endloop
  endfacet
  facet normal 0 -1 -0
    outer loop
      vertex 36.4271 -32.1468 3.93672e-015
      vertex 34.5729 -32.1468 -8
      vertex 36.4271 -32.1468 -8
    endloop
  endfacet
  facet normal -0.951057 -0.309017 0
    outer loop
      vertex 38.5 -35 -8
      vertex 37.9271 -33.2366 4.07018e-015
      vertex 37.9271 -33.2366 -8
    endloop
  endfacet
  facet normal -0.951057 -0.309017 0
    outer loop
      vertex 37.9271 -33.2366 4.07018e-015
      vertex 38.5 -35 -8
      vertex 38.5 -35 4.28612e-015
    endloop
  endfacet
  facet normal 1 0 0
    outer loop
      vertex 9 -45 5.51073e-015
      vertex 9 -25 -5
      vertex 9 -25 3.06152e-015
    endloop
  endfacet
  facet normal 1 0 0
    outer loop
      vertex 9 -25 -5
      vertex 9 -45 5.51073e-015
      vertex 9 -45 -5
    endloop
  endfacet
  facet normal -0 0 1
    outer loop
      vertex 9 -25 -5
      vertex 30 -45 -5
      vertex 30 -25 -5
    endloop
  endfacet
  facet normal 0 0 1
    outer loop
      vertex 30 -45 -5
      vertex 9 -25 -5
      vertex 9 -45 -5
    endloop
  endfacet
  facet normal -1 0 0
    outer loop
      vertex 30 -45 -5
      vertex 30 -25 3.06152e-015
      vertex 30 -25 -5
    endloop
  endfacet
  facet normal -1 -0 0
    outer loop
      vertex 30 -25 3.06152e-015
      vertex 30 -45 -5
      vertex 30 -45 5.51073e-015
    endloop
  endfacet
  facet normal -1 0 0
    outer loop
      vertex -44 -45 -8
      vertex -44 -25 3.06152e-015
      vertex -44 -25 -8
    endloop
  endfacet
  facet normal -1 -0 0
    outer loop
      vertex -44 -25 3.06152e-015
      vertex -44 -45 -8
      vertex -44 -45 5.51073e-015
    endloop
  endfacet
  facet normal 0 0 -1
    outer loop
      vertex -2 -45 -8
      vertex -5.5 -35 -8
      vertex -2 -25 -8
    endloop
  endfacet
  facet normal 0 0 -1
    outer loop
      vertex -2 -45 -8
      vertex -6.07295 -36.7634 -8
      vertex -5.5 -35 -8
    endloop
  endfacet
  facet normal 0 0 -1
    outer loop
      vertex -2 -45 -8
      vertex -7.57295 -37.8532 -8
      vertex -6.07295 -36.7634 -8
    endloop
  endfacet
  facet normal 0 0 -1
    outer loop
      vertex -2 -45 -8
      vertex -9.42705 -37.8532 -8
      vertex -7.57295 -37.8532 -8
    endloop
  endfacet
  facet normal 0 0 -1
    outer loop
      vertex -44 -45 -8
      vertex -9.42705 -37.8532 -8
      vertex -2 -45 -8
    endloop
  endfacet
  facet normal 0 0 -1
    outer loop
      vertex -10.9271 -36.7634 -8
      vertex -36.5 -35 -8
      vertex -11.5 -35 -8
    endloop
  endfacet
  facet normal -0 0 -1
    outer loop
      vertex -9.42705 -37.8532 -8
      vertex -44 -45 -8
      vertex -10.9271 -36.7634 -8
    endloop
  endfacet
  facet normal 0 0 -1
    outer loop
      vertex -10.9271 -36.7634 -8
      vertex -37.0729 -36.7634 -8
      vertex -36.5 -35 -8
    endloop
  endfacet
  facet normal -0 0 -1
    outer loop
      vertex -10.9271 -36.7634 -8
      vertex -44 -45 -8
      vertex -37.0729 -36.7634 -8
    endloop
  endfacet
  facet normal 0 0 -1
    outer loop
      vertex -37.0729 -36.7634 -8
      vertex -44 -45 -8
      vertex -38.5729 -37.8532 -8
    endloop
  endfacet
  facet normal -0 0 -1
    outer loop
      vertex -41.9271 -36.7634 -8
      vertex -44 -45 -8
      vertex -42.5 -35 -8
    endloop
  endfacet
  facet normal -0 0 -1
    outer loop
      vertex -40.4271 -37.8532 -8
      vertex -44 -45 -8
      vertex -41.9271 -36.7634 -8
    endloop
  endfacet
  facet normal -0 0 -1
    outer loop
      vertex -38.5729 -37.8532 -8
      vertex -44 -45 -8
      vertex -40.4271 -37.8532 -8
    endloop
  endfacet
  facet normal 0 0 -1
    outer loop
      vertex -6.07295 -33.2366 -8
      vertex -2 -25 -8
      vertex -5.5 -35 -8
    endloop
  endfacet
  facet normal 0 0 -1
    outer loop
      vertex -7.57295 -32.1468 -8
      vertex -2 -25 -8
      vertex -6.07295 -33.2366 -8
    endloop
  endfacet
  facet normal 0 0 -1
    outer loop
      vertex -9.42705 -32.1468 -8
      vertex -2 -25 -8
      vertex -7.57295 -32.1468 -8
    endloop
  endfacet
  facet normal 0 0 -1
    outer loop
      vertex -44 -25 -8
      vertex -9.42705 -32.1468 -8
      vertex -10.9271 -33.2366 -8
    endloop
  endfacet
  facet normal 0 0 -1
    outer loop
      vertex -36.5 -35 -8
      vertex -10.9271 -33.2366 -8
      vertex -11.5 -35 -8
    endloop
  endfacet
  facet normal 0 0 -1
    outer loop
      vertex -37.0729 -33.2366 -8
      vertex -10.9271 -33.2366 -8
      vertex -36.5 -35 -8
    endloop
  endfacet
  facet normal 0 0 -1
    outer loop
      vertex -44 -25 -8
      vertex -10.9271 -33.2366 -8
      vertex -37.0729 -33.2366 -8
    endloop
  endfacet
  facet normal 0 0 -1
    outer loop
      vertex -44 -25 -8
      vertex -37.0729 -33.2366 -8
      vertex -38.5729 -32.1468 -8
    endloop
  endfacet
  facet normal 0 0 -1
    outer loop
      vertex -44 -25 -8
      vertex -38.5729 -32.1468 -8
      vertex -40.4271 -32.1468 -8
    endloop
  endfacet
  facet normal 0 0 -1
    outer loop
      vertex -9.42705 -32.1468 -8
      vertex -44 -25 -8
      vertex -2 -25 -8
    endloop
  endfacet
  facet normal 0 0 -1
    outer loop
      vertex -41.9271 -33.2366 -8
      vertex -44 -25 -8
      vertex -40.4271 -32.1468 -8
    endloop
  endfacet
  facet normal 0 0 -1
    outer loop
      vertex -42.5 -35 -8
      vertex -44 -25 -8
      vertex -41.9271 -33.2366 -8
    endloop
  endfacet
  facet normal 0 0 -1
    outer loop
      vertex -44 -25 -8
      vertex -42.5 -35 -8
      vertex -44 -45 -8
    endloop
  endfacet
  facet normal 1 0 0
    outer loop
      vertex -2 -45 5.51073e-015
      vertex -2 -25 -8
      vertex -2 -25 3.06152e-015
    endloop
  endfacet
  facet normal 1 0 0
    outer loop
      vertex -2 -25 -8
      vertex -2 -45 5.51073e-015
      vertex -2 -45 -8
    endloop
  endfacet
  facet normal 0 -1 0
    outer loop
      vertex -44 -45 5.51073e-015
      vertex -35 -45 -5
      vertex -35 -45 5.51073e-015
    endloop
  endfacet
  facet normal 0 -1 -0
    outer loop
      vertex -35 -45 -5
      vertex -44 -45 -8
      vertex -14 -45 -5
    endloop
  endfacet
  facet normal 0 -1 0
    outer loop
      vertex -44 -45 -8
      vertex -35 -45 -5
      vertex -44 -45 5.51073e-015
    endloop
  endfacet
  facet normal 0 -1 0
    outer loop
      vertex -14 -45 -5
      vertex -2 -45 5.51073e-015
      vertex -14 -45 5.51073e-015
    endloop
  endfacet
  facet normal 0 -1 0
    outer loop
      vertex -14 -45 -5
      vertex -2 -45 -8
      vertex -2 -45 5.51073e-015
    endloop
  endfacet
  facet normal 0 -1 0
    outer loop
      vertex -2 -45 -8
      vertex -14 -45 -5
      vertex -44 -45 -8
    endloop
  endfacet
  facet normal 0 1.22461e-016 1
    outer loop
      vertex -35 -25 3.06152e-015
      vertex -36.5 -35 4.28612e-015
      vertex -35 -45 5.51073e-015
    endloop
  endfacet
  facet normal -1.52358e-022 1.22461e-016 1
    outer loop
      vertex -35 -25 3.06152e-015
      vertex -37.0729 -33.2366 4.07018e-015
      vertex -36.5 -35 4.28612e-015
    endloop
  endfacet
  facet normal 1.76385e-022 1.22461e-016 1
    outer loop
      vertex -35 -25 3.06152e-015
      vertex -38.5729 -32.1468 3.93672e-015
      vertex -37.0729 -33.2366 4.07018e-015
    endloop
  endfacet
  facet normal 0 1.22461e-016 1
    outer loop
      vertex -35 -25 3.06152e-015
      vertex -40.4271 -32.1468 3.93672e-015
      vertex -38.5729 -32.1468 3.93672e-015
    endloop
  endfacet
  facet normal -0 1.22461e-016 1
    outer loop
      vertex -44 -25 3.06152e-015
      vertex -40.4271 -32.1468 3.93672e-015
      vertex -35 -25 3.06152e-015
    endloop
  endfacet
  facet normal 1.52358e-022 1.22461e-016 1
    outer loop
      vertex -41.9271 -33.2366 4.07018e-015
      vertex -44 -25 3.06152e-015
      vertex -42.5 -35 4.28612e-015
    endloop
  endfacet
  facet normal -1.76385e-022 1.22461e-016 1
    outer loop
      vertex -40.4271 -32.1468 3.93672e-015
      vertex -44 -25 3.06152e-015
      vertex -41.9271 -33.2366 4.07018e-015
    endloop
  endfacet
  facet normal 1.52358e-022 1.22461e-016 1
    outer loop
      vertex -37.0729 -36.7634 4.50206e-015
      vertex -35 -45 5.51073e-015
      vertex -36.5 -35 4.28612e-015
    endloop
  endfacet
  facet normal 8.69053e-023 1.22461e-016 1
    outer loop
      vertex -38.5729 -37.8532 4.63552e-015
      vertex -35 -45 5.51073e-015
      vertex -37.0729 -36.7634 4.50206e-015
    endloop
  endfacet
  facet normal -0 1.22461e-016 1
    outer loop
      vertex -40.4271 -37.8532 4.63552e-015
      vertex -35 -45 5.51073e-015
      vertex -38.5729 -37.8532 4.63552e-015
    endloop
  endfacet
  facet normal -8.69053e-023 1.22461e-016 1
    outer loop
      vertex -44 -45 5.51073e-015
      vertex -40.4271 -37.8532 4.63552e-015
      vertex -41.9271 -36.7634 4.50206e-015
    endloop
  endfacet
  facet normal 0 1.22461e-016 1
    outer loop
      vertex -40.4271 -37.8532 4.63552e-015
      vertex -44 -45 5.51073e-015
      vertex -35 -45 5.51073e-015
    endloop
  endfacet
  facet normal -1.52358e-022 1.22461e-016 1
    outer loop
      vertex -42.5 -35 4.28612e-015
      vertex -44 -45 5.51073e-015
      vertex -41.9271 -36.7634 4.50206e-015
    endloop
  endfacet
  facet normal 0 1.22461e-016 1
    outer loop
      vertex -44 -45 5.51073e-015
      vertex -42.5 -35 4.28612e-015
      vertex -44 -25 3.06152e-015
    endloop
  endfacet
  facet normal 0 1.22461e-016 1
    outer loop
      vertex -2 -25 3.06152e-015
      vertex -5.5 -35 4.28612e-015
      vertex -2 -45 5.51073e-015
    endloop
  endfacet
  facet normal -1.0721e-022 1.22461e-016 1
    outer loop
      vertex -2 -25 3.06152e-015
      vertex -6.07295 -33.2366 4.07018e-015
      vertex -5.5 -35 4.28612e-015
    endloop
  endfacet
  facet normal 1.53492e-022 1.22461e-016 1
    outer loop
      vertex -2 -25 3.06152e-015
      vertex -7.57295 -32.1468 3.93672e-015
      vertex -6.07295 -33.2366 4.07018e-015
    endloop
  endfacet
  facet normal -0 1.22461e-016 1
    outer loop
      vertex -14 -25 3.06152e-015
      vertex -7.57295 -32.1468 3.93672e-015
      vertex -2 -25 3.06152e-015
    endloop
  endfacet
  facet normal 0 1.22461e-016 1
    outer loop
      vertex -7.57295 -32.1468 3.93672e-015
      vertex -14 -25 3.06152e-015
      vertex -9.42705 -32.1468 3.93672e-015
    endloop
  endfacet
  facet normal 1.25857e-022 1.22461e-016 1
    outer loop
      vertex -10.9271 -33.2366 4.07018e-015
      vertex -14 -25 3.06152e-015
      vertex -11.5 -35 4.28612e-015
    endloop
  endfacet
  facet normal -1.64144e-022 1.22461e-016 1
    outer loop
      vertex -9.42705 -32.1468 3.93672e-015
      vertex -14 -25 3.06152e-015
      vertex -10.9271 -33.2366 4.07018e-015
    endloop
  endfacet
  facet normal 1.0721e-022 1.22461e-016 1
    outer loop
      vertex -6.07295 -36.7634 4.50206e-015
      vertex -2 -45 5.51073e-015
      vertex -5.5 -35 4.28612e-015
    endloop
  endfacet
  facet normal 7.5626e-023 1.22461e-016 1
    outer loop
      vertex -7.57295 -37.8532 4.63552e-015
      vertex -2 -45 5.51073e-015
      vertex -6.07295 -36.7634 4.50206e-015
    endloop
  endfacet
  facet normal 0 1.22461e-016 1
    outer loop
      vertex -14 -45 5.51073e-015
      vertex -7.57295 -37.8532 4.63552e-015
      vertex -9.42705 -37.8532 4.63552e-015
    endloop
  endfacet
  facet normal -8.08743e-023 1.22461e-016 1
    outer loop
      vertex -14 -45 5.51073e-015
      vertex -9.42705 -37.8532 4.63552e-015
      vertex -10.9271 -36.7634 4.50206e-015
    endloop
  endfacet
  facet normal 0 1.22461e-016 1
    outer loop
      vertex -7.57295 -37.8532 4.63552e-015
      vertex -14 -45 5.51073e-015
      vertex -2 -45 5.51073e-015
    endloop
  endfacet
  facet normal -1.25857e-022 1.22461e-016 1
    outer loop
      vertex -11.5 -35 4.28612e-015
      vertex -14 -45 5.51073e-015
      vertex -10.9271 -36.7634 4.50206e-015
    endloop
  endfacet
  facet normal 0 1.22461e-016 1
    outer loop
      vertex -14 -45 5.51073e-015
      vertex -11.5 -35 4.28612e-015
      vertex -14 -25 3.06152e-015
    endloop
  endfacet
  facet normal 0 1 0
    outer loop
      vertex -2 -25 3.06152e-015
      vertex -14 -25 -5
      vertex -14 -25 3.06152e-015
    endloop
  endfacet
  facet normal 0 1 0
    outer loop
      vertex -44 -25 -8
      vertex -14 -25 -5
      vertex -2 -25 -8
    endloop
  endfacet
  facet normal 0 1 -0
    outer loop
      vertex -2 -25 -8
      vertex -14 -25 -5
      vertex -2 -25 3.06152e-015
    endloop
  endfacet
  facet normal 0 1 -0
    outer loop
      vertex -35 -25 -5
      vertex -44 -25 3.06152e-015
      vertex -35 -25 3.06152e-015
    endloop
  endfacet
  facet normal 0 1 0
    outer loop
      vertex -35 -25 -5
      vertex -44 -25 -8
      vertex -44 -25 3.06152e-015
    endloop
  endfacet
  facet normal 0 1 0
    outer loop
      vertex -14 -25 -5
      vertex -44 -25 -8
      vertex -35 -25 -5
    endloop
  endfacet
  facet normal -0.951057 0.309017 0
    outer loop
      vertex -37.0729 -36.7634 -8
      vertex -36.5 -35 4.28612e-015
      vertex -36.5 -35 -8
    endloop
  endfacet
  facet normal -0.951057 0.309017 0
    outer loop
      vertex -36.5 -35 4.28612e-015
      vertex -37.0729 -36.7634 -8
      vertex -37.0729 -36.7634 4.50206e-015
    endloop
  endfacet
  facet normal 0 1 -0
    outer loop
      vertex -38.5729 -37.8532 -8
      vertex -40.4271 -37.8532 4.63552e-015
      vertex -38.5729 -37.8532 4.63552e-015
    endloop
  endfacet
  facet normal 0 1 0
    outer loop
      vertex -40.4271 -37.8532 4.63552e-015
      vertex -38.5729 -37.8532 -8
      vertex -40.4271 -37.8532 -8
    endloop
  endfacet
  facet normal -0.587785 0.809017 0
    outer loop
      vertex -37.0729 -36.7634 -8
      vertex -38.5729 -37.8532 4.63552e-015
      vertex -37.0729 -36.7634 4.50206e-015
    endloop
  endfacet
  facet normal -0.587785 0.809017 0
    outer loop
      vertex -38.5729 -37.8532 4.63552e-015
      vertex -37.0729 -36.7634 -8
      vertex -38.5729 -37.8532 -8
    endloop
  endfacet
  facet normal 0.587785 0.809017 -0
    outer loop
      vertex -40.4271 -37.8532 -8
      vertex -41.9271 -36.7634 4.50206e-015
      vertex -40.4271 -37.8532 4.63552e-015
    endloop
  endfacet
  facet normal 0.587785 0.809017 0
    outer loop
      vertex -41.9271 -36.7634 4.50206e-015
      vertex -40.4271 -37.8532 -8
      vertex -41.9271 -36.7634 -8
    endloop
  endfacet
  facet normal -0.587786 -0.809016 0
    outer loop
      vertex -38.5729 -32.1468 -8
      vertex -37.0729 -33.2366 4.07018e-015
      vertex -38.5729 -32.1468 3.93672e-015
    endloop
  endfacet
  facet normal -0.587786 -0.809016 -0
    outer loop
      vertex -37.0729 -33.2366 4.07018e-015
      vertex -38.5729 -32.1468 -8
      vertex -37.0729 -33.2366 -8
    endloop
  endfacet
  facet normal 0.587786 -0.809016 0
    outer loop
      vertex -41.9271 -33.2366 -8
      vertex -40.4271 -32.1468 3.93672e-015
      vertex -41.9271 -33.2366 4.07018e-015
    endloop
  endfacet
  facet normal 0.587786 -0.809016 0
    outer loop
      vertex -40.4271 -32.1468 3.93672e-015
      vertex -41.9271 -33.2366 -8
      vertex -40.4271 -32.1468 -8
    endloop
  endfacet
  facet normal 0.951057 0.309017 0
    outer loop
      vertex -41.9271 -36.7634 4.50206e-015
      vertex -42.5 -35 -8
      vertex -42.5 -35 4.28612e-015
    endloop
  endfacet
  facet normal 0.951057 0.309017 0
    outer loop
      vertex -42.5 -35 -8
      vertex -41.9271 -36.7634 4.50206e-015
      vertex -41.9271 -36.7634 -8
    endloop
  endfacet
  facet normal -0.951057 -0.309017 0
    outer loop
      vertex -36.5 -35 -8
      vertex -37.0729 -33.2366 4.07018e-015
      vertex -37.0729 -33.2366 -8
    endloop
  endfacet
  facet normal -0.951057 -0.309017 0
    outer loop
      vertex -37.0729 -33.2366 4.07018e-015
      vertex -36.5 -35 -8
      vertex -36.5 -35 4.28612e-015
    endloop
  endfacet
  facet normal 0 -1 0
    outer loop
      vertex -40.4271 -32.1468 -8
      vertex -38.5729 -32.1468 3.93672e-015
      vertex -40.4271 -32.1468 3.93672e-015
    endloop
  endfacet
  facet normal 0 -1 -0
    outer loop
      vertex -38.5729 -32.1468 3.93672e-015
      vertex -40.4271 -32.1468 -8
      vertex -38.5729 -32.1468 -8
    endloop
  endfacet
  facet normal 0.951057 -0.309017 0
    outer loop
      vertex -42.5 -35 4.28612e-015
      vertex -41.9271 -33.2366 -8
      vertex -41.9271 -33.2366 4.07018e-015
    endloop
  endfacet
  facet normal 0.951057 -0.309017 0
    outer loop
      vertex -41.9271 -33.2366 -8
      vertex -42.5 -35 4.28612e-015
      vertex -42.5 -35 -8
    endloop
  endfacet
  facet normal -0.951056 0.309017 0
    outer loop
      vertex -6.07295 -36.7634 -8
      vertex -5.5 -35 4.28612e-015
      vertex -5.5 -35 -8
    endloop
  endfacet
  facet normal -0.951056 0.309017 0
    outer loop
      vertex -5.5 -35 4.28612e-015
      vertex -6.07295 -36.7634 -8
      vertex -6.07295 -36.7634 4.50206e-015
    endloop
  endfacet
  facet normal 0.951057 -0.309017 0
    outer loop
      vertex -11.5 -35 4.28612e-015
      vertex -10.9271 -33.2366 -8
      vertex -10.9271 -33.2366 4.07018e-015
    endloop
  endfacet
  facet normal 0.951057 -0.309017 0
    outer loop
      vertex -10.9271 -33.2366 -8
      vertex -11.5 -35 4.28612e-015
      vertex -11.5 -35 -8
    endloop
  endfacet
  facet normal 0 1 -0
    outer loop
      vertex -7.57295 -37.8532 -8
      vertex -9.42705 -37.8532 4.63552e-015
      vertex -7.57295 -37.8532 4.63552e-015
    endloop
  endfacet
  facet normal 0 1 0
    outer loop
      vertex -9.42705 -37.8532 4.63552e-015
      vertex -7.57295 -37.8532 -8
      vertex -9.42705 -37.8532 -8
    endloop
  endfacet
  facet normal -0.587785 0.809017 0
    outer loop
      vertex -6.07295 -36.7634 -8
      vertex -7.57295 -37.8532 4.63552e-015
      vertex -6.07295 -36.7634 4.50206e-015
    endloop
  endfacet
  facet normal -0.587785 0.809017 0
    outer loop
      vertex -7.57295 -37.8532 4.63552e-015
      vertex -6.07295 -36.7634 -8
      vertex -7.57295 -37.8532 -8
    endloop
  endfacet
  facet normal 0.587785 0.809017 -0
    outer loop
      vertex -9.42705 -37.8532 -8
      vertex -10.9271 -36.7634 4.50206e-015
      vertex -9.42705 -37.8532 4.63552e-015
    endloop
  endfacet
  facet normal 0.587785 0.809017 0
    outer loop
      vertex -10.9271 -36.7634 4.50206e-015
      vertex -9.42705 -37.8532 -8
      vertex -10.9271 -36.7634 -8
    endloop
  endfacet
  facet normal -0.587786 -0.809016 0
    outer loop
      vertex -7.57295 -32.1468 -8
      vertex -6.07295 -33.2366 4.07018e-015
      vertex -7.57295 -32.1468 3.93672e-015
    endloop
  endfacet
  facet normal -0.587786 -0.809016 -0
    outer loop
      vertex -6.07295 -33.2366 4.07018e-015
      vertex -7.57295 -32.1468 -8
      vertex -6.07295 -33.2366 -8
    endloop
  endfacet
  facet normal 0.587786 -0.809016 0
    outer loop
      vertex -10.9271 -33.2366 -8
      vertex -9.42705 -32.1468 3.93672e-015
      vertex -10.9271 -33.2366 4.07018e-015
    endloop
  endfacet
  facet normal 0.587786 -0.809016 0
    outer loop
      vertex -9.42705 -32.1468 3.93672e-015
      vertex -10.9271 -33.2366 -8
      vertex -9.42705 -32.1468 -8
    endloop
  endfacet
  facet normal 0.951057 0.309017 0
    outer loop
      vertex -10.9271 -36.7634 4.50206e-015
      vertex -11.5 -35 -8
      vertex -11.5 -35 4.28612e-015
    endloop
  endfacet
  facet normal 0.951057 0.309017 0
    outer loop
      vertex -11.5 -35 -8
      vertex -10.9271 -36.7634 4.50206e-015
      vertex -10.9271 -36.7634 -8
    endloop
  endfacet
  facet normal 0 -1 0
    outer loop
      vertex -9.42705 -32.1468 -8
      vertex -7.57295 -32.1468 3.93672e-015
      vertex -9.42705 -32.1468 3.93672e-015
    endloop
  endfacet
  facet normal 0 -1 -0
    outer loop
      vertex -7.57295 -32.1468 3.93672e-015
      vertex -9.42705 -32.1468 -8
      vertex -7.57295 -32.1468 -8
    endloop
  endfacet
  facet normal -0.951056 -0.309017 0
    outer loop
      vertex -5.5 -35 -8
      vertex -6.07295 -33.2366 4.07018e-015
      vertex -6.07295 -33.2366 -8
    endloop
  endfacet
  facet normal -0.951056 -0.309017 0
    outer loop
      vertex -6.07295 -33.2366 4.07018e-015
      vertex -5.5 -35 -8
      vertex -5.5 -35 4.28612e-015
    endloop
  endfacet
  facet normal 1 0 0
    outer loop
      vertex -35 -45 5.51073e-015
      vertex -35 -25 -5
      vertex -35 -25 3.06152e-015
    endloop
  endfacet
  facet normal 1 0 0
    outer loop
      vertex -35 -25 -5
      vertex -35 -45 5.51073e-015
      vertex -35 -45 -5
    endloop
  endfacet
  facet normal -0 0 1
    outer loop
      vertex -35 -25 -5
      vertex -14 -45 -5
      vertex -14 -25 -5
    endloop
  endfacet
  facet normal 0 0 1
    outer loop
      vertex -14 -45 -5
      vertex -35 -25 -5
      vertex -35 -45 -5
    endloop
  endfacet
  facet normal -1 0 0
    outer loop
      vertex -14 -45 -5
      vertex -14 -25 3.06152e-015
      vertex -14 -25 -5
    endloop
  endfacet
  facet normal -1 -0 0
    outer loop
      vertex -14 -25 3.06152e-015
      vertex -14 -45 -5
      vertex -14 -45 5.51073e-015
    endloop
  endfacet
endsolid OpenSCAD_Model
