solid OpenSCAD_Model
  facet normal -1 0 0
    outer loop
      vertex 0 0 0
      vertex 0 20 8
      vertex 0 20 0
    endloop
  endfacet
  facet normal -1 -0 0
    outer loop
      vertex 0 20 8
      vertex 0 0 0
      vertex 0 0 8
    endloop
  endfacet
  facet normal 0 0 1
    outer loop
      vertex 40 20 8
      vertex 36 10 8
      vertex 40 0 8
    endloop
  endfacet
  facet normal 0 0 1
    outer loop
      vertex 40 20 8
      vertex 35.5418 11.8589 8
      vertex 36 10 8
    endloop
  endfacet
  facet normal 0 0 1
    outer loop
      vertex 40 20 8
      vertex 34.2723 13.2919 8
      vertex 35.5418 11.8589 8
    endloop
  endfacet
  facet normal 0 0 1
    outer loop
      vertex 40 20 8
      vertex 32.4821 13.9708 8
      vertex 34.2723 13.2919 8
    endloop
  endfacet
  facet normal 0 0 1
    outer loop
      vertex 40 20 8
      vertex 30.5816 13.7401 8
      vertex 32.4821 13.9708 8
    endloop
  endfacet
  facet normal 0 0 1
    outer loop
      vertex 28.1162 10.9573 8
      vertex 12 10 8
      vertex 28.1162 9.04274 8
    endloop
  endfacet
  facet normal -0 0 1
    outer loop
      vertex 11.5418 11.8589 8
      vertex 28.1162 10.9573 8
      vertex 29.006 12.6525 8
    endloop
  endfacet
  facet normal -0 0 1
    outer loop
      vertex 10.2723 13.2919 8
      vertex 29.006 12.6525 8
      vertex 30.5816 13.7401 8
    endloop
  endfacet
  facet normal -0 0 1
    outer loop
      vertex 0 20 8
      vertex 30.5816 13.7401 8
      vertex 40 20 8
    endloop
  endfacet
  facet normal 0 0 1
    outer loop
      vertex 28.1162 10.9573 8
      vertex 11.5418 11.8589 8
      vertex 12 10 8
    endloop
  endfacet
  facet normal 0 0 1
    outer loop
      vertex 29.006 12.6525 8
      vertex 10.2723 13.2919 8
      vertex 11.5418 11.8589 8
    endloop
  endfacet
  facet normal 0 0 1
    outer loop
      vertex 30.5816 13.7401 8
      vertex 0 20 8
      vertex 10.2723 13.2919 8
    endloop
  endfacet
  facet normal 0 0 1
    outer loop
      vertex 10.2723 13.2919 8
      vertex 0 20 8
      vertex 8.48215 13.9708 8
    endloop
  endfacet
  facet normal 0 0 1
    outer loop
      vertex 4.11623 10.9573 8
      vertex 0 20 8
      vertex 4.11623 9.04274 8
    endloop
  endfacet
  facet normal 0 0 1
    outer loop
      vertex 5.00596 12.6525 8
      vertex 0 20 8
      vertex 4.11623 10.9573 8
    endloop
  endfacet
  facet normal 0 0 1
    outer loop
      vertex 6.58158 13.7401 8
      vertex 0 20 8
      vertex 5.00596 12.6525 8
    endloop
  endfacet
  facet normal 0 0 1
    outer loop
      vertex 8.48215 13.9708 8
      vertex 0 20 8
      vertex 6.58158 13.7401 8
    endloop
  endfacet
  facet normal -0 0 1
    outer loop
      vertex 35.5418 8.14111 8
      vertex 40 0 8
      vertex 36 10 8
    endloop
  endfacet
  facet normal -0 0 1
    outer loop
      vertex 34.2723 6.70806 8
      vertex 40 0 8
      vertex 35.5418 8.14111 8
    endloop
  endfacet
  facet normal -0 0 1
    outer loop
      vertex 32.4821 6.02916 8
      vertex 40 0 8
      vertex 34.2723 6.70806 8
    endloop
  endfacet
  facet normal 0 0 1
    outer loop
      vertex 30.5816 6.25993 8
      vertex 40 0 8
      vertex 32.4821 6.02916 8
    endloop
  endfacet
  facet normal 0 0 1
    outer loop
      vertex 11.5418 8.14111 8
      vertex 28.1162 9.04274 8
      vertex 12 10 8
    endloop
  endfacet
  facet normal 0 0 1
    outer loop
      vertex 28.1162 9.04274 8
      vertex 11.5418 8.14111 8
      vertex 29.006 7.34751 8
    endloop
  endfacet
  facet normal 0 0 1
    outer loop
      vertex 10.2723 6.70806 8
      vertex 29.006 7.34751 8
      vertex 11.5418 8.14111 8
    endloop
  endfacet
  facet normal 0 0 1
    outer loop
      vertex 29.006 7.34751 8
      vertex 10.2723 6.70806 8
      vertex 30.5816 6.25993 8
    endloop
  endfacet
  facet normal 0 0 1
    outer loop
      vertex 0 0 8
      vertex 30.5816 6.25993 8
      vertex 10.2723 6.70806 8
    endloop
  endfacet
  facet normal 0 0 1
    outer loop
      vertex 0 0 8
      vertex 10.2723 6.70806 8
      vertex 8.48215 6.02916 8
    endloop
  endfacet
  facet normal 0 0 1
    outer loop
      vertex 0 0 8
      vertex 8.48215 6.02916 8
      vertex 6.58158 6.25993 8
    endloop
  endfacet
  facet normal 0 0 1
    outer loop
      vertex 30.5816 6.25993 8
      vertex 0 0 8
      vertex 40 0 8
    endloop
  endfacet
  facet normal 0 0 1
    outer loop
      vertex 5.00596 7.34751 8
      vertex 0 0 8
      vertex 6.58158 6.25993 8
    endloop
  endfacet
  facet normal 0 0 1
    outer loop
      vertex 4.11623 9.04274 8
      vertex 0 0 8
      vertex 5.00596 7.34751 8
    endloop
  endfacet
  facet normal 0 0 1
    outer loop
      vertex 0 0 8
      vertex 4.11623 9.04274 8
      vertex 0 20 8
    endloop
  endfacet
  facet normal 1 -0 0
    outer loop
      vertex 40 0 8
      vertex 40 20 0
      vertex 40 20 8
    endloop
  endfacet
  facet normal 1 0 0
    outer loop
      vertex 40 20 0
      vertex 40 0 8
      vertex 40 0 0
    endloop
  endfacet
  facet normal 0 1 0
    outer loop
      vertex 40 20 8
      vertex 20.4821 20 2.97083
      vertex 0 20 8
    endloop
  endfacet
  facet normal 0 1 0
    outer loop
      vertex 40 20 8
      vertex 22.2723 20 2.29193
      vertex 20.4821 20 2.97083
    endloop
  endfacet
  facet normal 0 1 0
    outer loop
      vertex 40 20 8
      vertex 23.5418 20 0.858892
      vertex 22.2723 20 2.29193
    endloop
  endfacet
  facet normal 0 1 -0
    outer loop
      vertex 40 20 0
      vertex 23.5418 20 0.858892
      vertex 40 20 8
    endloop
  endfacet
  facet normal 0 1 0
    outer loop
      vertex 23.5418 20 0.858892
      vertex 40 20 0
      vertex 23.7535 20 0
    endloop
  endfacet
  facet normal 0 1 -0
    outer loop
      vertex 18.5816 20 2.74006
      vertex 0 20 8
      vertex 20.4821 20 2.97083
    endloop
  endfacet
  facet normal 0 1 -0
    outer loop
      vertex 17.006 20 1.65249
      vertex 0 20 8
      vertex 18.5816 20 2.74006
    endloop
  endfacet
  facet normal 0 1 -0
    outer loop
      vertex 16.1387 20 0
      vertex 0 20 8
      vertex 17.006 20 1.65249
    endloop
  endfacet
  facet normal 0 1 0
    outer loop
      vertex 0 20 8
      vertex 16.1387 20 0
      vertex 0 20 0
    endloop
  endfacet
  facet normal 0 0 -1
    outer loop
      vertex 16.1387 0 0
      vertex 12 10 0
      vertex 16.1387 20 0
    endloop
  endfacet
  facet normal 0 0 -1
    outer loop
      vertex 16.1387 0 0
      vertex 11.5418 8.14111 0
      vertex 12 10 0
    endloop
  endfacet
  facet normal 0 0 -1
    outer loop
      vertex 16.1387 0 0
      vertex 10.2723 6.70806 0
      vertex 11.5418 8.14111 0
    endloop
  endfacet
  facet normal 0 0 -1
    outer loop
      vertex 16.1387 0 0
      vertex 8.48215 6.02916 0
      vertex 10.2723 6.70806 0
    endloop
  endfacet
  facet normal 0 0 -1
    outer loop
      vertex 0 0 0
      vertex 8.48215 6.02916 0
      vertex 16.1387 0 0
    endloop
  endfacet
  facet normal -0 0 -1
    outer loop
      vertex 4.11623 9.04274 0
      vertex 0 0 0
      vertex 4.11623 10.9573 0
    endloop
  endfacet
  facet normal -0 0 -1
    outer loop
      vertex 5.00596 7.34751 0
      vertex 0 0 0
      vertex 4.11623 9.04274 0
    endloop
  endfacet
  facet normal -0 0 -1
    outer loop
      vertex 6.58158 6.25993 0
      vertex 0 0 0
      vertex 5.00596 7.34751 0
    endloop
  endfacet
  facet normal -0 0 -1
    outer loop
      vertex 8.48215 6.02916 0
      vertex 0 0 0
      vertex 6.58158 6.25993 0
    endloop
  endfacet
  facet normal 0 0 -1
    outer loop
      vertex 11.5418 11.8589 0
      vertex 16.1387 20 0
      vertex 12 10 0
    endloop
  endfacet
  facet normal 0 0 -1
    outer loop
      vertex 10.2723 13.2919 0
      vertex 16.1387 20 0
      vertex 11.5418 11.8589 0
    endloop
  endfacet
  facet normal 0 0 -1
    outer loop
      vertex 8.48215 13.9708 0
      vertex 16.1387 20 0
      vertex 10.2723 13.2919 0
    endloop
  endfacet
  facet normal 0 0 -1
    outer loop
      vertex 0 20 0
      vertex 8.48215 13.9708 0
      vertex 6.58158 13.7401 0
    endloop
  endfacet
  facet normal 0 0 -1
    outer loop
      vertex 8.48215 13.9708 0
      vertex 0 20 0
      vertex 16.1387 20 0
    endloop
  endfacet
  facet normal 0 0 -1
    outer loop
      vertex 5.00596 12.6525 0
      vertex 0 20 0
      vertex 6.58158 13.7401 0
    endloop
  endfacet
  facet normal 0 0 -1
    outer loop
      vertex 4.11623 10.9573 0
      vertex 0 20 0
      vertex 5.00596 12.6525 0
    endloop
  endfacet
  facet normal 0 0 -1
    outer loop
      vertex 0 20 0
      vertex 4.11623 10.9573 0
      vertex 0 0 0
    endloop
  endfacet
  facet normal 0 0 -1
    outer loop
      vertex 40 0 0
      vertex 36 10 0
      vertex 40 20 0
    endloop
  endfacet
  facet normal 0 0 -1
    outer loop
      vertex 40 0 0
      vertex 35.5418 8.14111 0
      vertex 36 10 0
    endloop
  endfacet
  facet normal 0 0 -1
    outer loop
      vertex 40 0 0
      vertex 34.2723 6.70806 0
      vertex 35.5418 8.14111 0
    endloop
  endfacet
  facet normal 0 0 -1
    outer loop
      vertex 40 0 0
      vertex 32.4821 6.02916 0
      vertex 34.2723 6.70806 0
    endloop
  endfacet
  facet normal 0 0 -1
    outer loop
      vertex 23.7535 0 0
      vertex 32.4821 6.02916 0
      vertex 40 0 0
    endloop
  endfacet
  facet normal -0 0 -1
    outer loop
      vertex 28.1162 9.04274 0
      vertex 23.7535 0 0
      vertex 28.1162 10.9573 0
    endloop
  endfacet
  facet normal -0 0 -1
    outer loop
      vertex 29.006 7.34751 0
      vertex 23.7535 0 0
      vertex 28.1162 9.04274 0
    endloop
  endfacet
  facet normal -0 0 -1
    outer loop
      vertex 30.5816 6.25993 0
      vertex 23.7535 0 0
      vertex 29.006 7.34751 0
    endloop
  endfacet
  facet normal -0 0 -1
    outer loop
      vertex 32.4821 6.02916 0
      vertex 23.7535 0 0
      vertex 30.5816 6.25993 0
    endloop
  endfacet
  facet normal 0 0 -1
    outer loop
      vertex 35.5418 11.8589 0
      vertex 40 20 0
      vertex 36 10 0
    endloop
  endfacet
  facet normal 0 0 -1
    outer loop
      vertex 34.2723 13.2919 0
      vertex 40 20 0
      vertex 35.5418 11.8589 0
    endloop
  endfacet
  facet normal 0 0 -1
    outer loop
      vertex 32.4821 13.9708 0
      vertex 40 20 0
      vertex 34.2723 13.2919 0
    endloop
  endfacet
  facet normal 0 0 -1
    outer loop
      vertex 23.7535 20 0
      vertex 32.4821 13.9708 0
      vertex 30.5816 13.7401 0
    endloop
  endfacet
  facet normal 0 0 -1
    outer loop
      vertex 32.4821 13.9708 0
      vertex 23.7535 20 0
      vertex 40 20 0
    endloop
  endfacet
  facet normal 0 0 -1
    outer loop
      vertex 29.006 12.6525 0
      vertex 23.7535 20 0
      vertex 30.5816 13.7401 0
    endloop
  endfacet
  facet normal 0 0 -1
    outer loop
      vertex 28.1162 10.9573 0
      vertex 23.7535 20 0
      vertex 29.006 12.6525 0
    endloop
  endfacet
  facet normal 0 0 -1
    outer loop
      vertex 23.7535 20 0
      vertex 28.1162 10.9573 0
      vertex 23.7535 0 0
    endloop
  endfacet
  facet normal 0 -1 0
    outer loop
      vertex 0 0 8
      vertex 20.4821 0 2.97083
      vertex 40 0 8
    endloop
  endfacet
  facet normal 0 -1 0
    outer loop
      vertex 0 0 8
      vertex 18.5816 0 2.74006
      vertex 20.4821 0 2.97083
    endloop
  endfacet
  facet normal 0 -1 0
    outer loop
      vertex 0 0 8
      vertex 17.006 0 1.65249
      vertex 18.5816 0 2.74006
    endloop
  endfacet
  facet normal 0 -1 0
    outer loop
      vertex 16.1387 0 0
      vertex 0 0 8
      vertex 0 0 0
    endloop
  endfacet
  facet normal 0 -1 0
    outer loop
      vertex 0 0 8
      vertex 16.1387 0 0
      vertex 17.006 0 1.65249
    endloop
  endfacet
  facet normal 0 -1 0
    outer loop
      vertex 22.2723 0 2.29193
      vertex 40 0 8
      vertex 20.4821 0 2.97083
    endloop
  endfacet
  facet normal 0 -1 0
    outer loop
      vertex 23.5418 0 0.858892
      vertex 40 0 8
      vertex 22.2723 0 2.29193
    endloop
  endfacet
  facet normal 0 -1 0
    outer loop
      vertex 40 0 0
      vertex 23.5418 0 0.858892
      vertex 23.6335 0 0.487114
    endloop
  endfacet
  facet normal 0 -1 0
    outer loop
      vertex 40 0 0
      vertex 23.6335 0 0.487114
      vertex 23.7535 0 0
    endloop
  endfacet
  facet normal 0 -1 0
    outer loop
      vertex 23.5418 0 0.858892
      vertex 40 0 0
      vertex 40 0 8
    endloop
  endfacet
  facet normal -0.970942 -0.239316 0
    outer loop
      vertex 12 10 0
      vertex 11.5418 11.8589 8
      vertex 11.5418 11.8589 0
    endloop
  endfacet
  facet normal -0.970942 -0.239316 0
    outer loop
      vertex 11.5418 11.8589 8
      vertex 12 10 0
      vertex 12 10 8
    endloop
  endfacet
  facet normal 1 -0 0
    outer loop
      vertex 4.11623 9.04274 8
      vertex 4.11623 10.9573 0
      vertex 4.11623 10.9573 8
    endloop
  endfacet
  facet normal 1 0 0
    outer loop
      vertex 4.11623 10.9573 0
      vertex 4.11623 9.04274 8
      vertex 4.11623 9.04274 0
    endloop
  endfacet
  facet normal 0.120536 -0.992709 0
    outer loop
      vertex 6.58158 13.7401 0
      vertex 8.48215 13.9708 8
      vertex 6.58158 13.7401 8
    endloop
  endfacet
  facet normal 0.120536 -0.992709 0
    outer loop
      vertex 8.48215 13.9708 8
      vertex 6.58158 13.7401 0
      vertex 8.48215 13.9708 0
    endloop
  endfacet
  facet normal -0.748511 -0.663123 0
    outer loop
      vertex 11.5418 11.8589 0
      vertex 10.2723 13.2919 8
      vertex 10.2723 13.2919 0
    endloop
  endfacet
  facet normal -0.748511 -0.663123 0
    outer loop
      vertex 10.2723 13.2919 8
      vertex 11.5418 11.8589 0
      vertex 11.5418 11.8589 8
    endloop
  endfacet
  facet normal 0.568065 -0.822984 0
    outer loop
      vertex 5.00596 12.6525 0
      vertex 6.58158 13.7401 8
      vertex 5.00596 12.6525 8
    endloop
  endfacet
  facet normal 0.568065 -0.822984 0
    outer loop
      vertex 6.58158 13.7401 8
      vertex 5.00596 12.6525 0
      vertex 6.58158 13.7401 0
    endloop
  endfacet
  facet normal -0.970942 0.239316 0
    outer loop
      vertex 11.5418 8.14111 0
      vertex 12 10 8
      vertex 12 10 0
    endloop
  endfacet
  facet normal -0.970942 0.239316 0
    outer loop
      vertex 12 10 8
      vertex 11.5418 8.14111 0
      vertex 11.5418 8.14111 8
    endloop
  endfacet
  facet normal -0.354605 -0.935016 0
    outer loop
      vertex 8.48215 13.9708 0
      vertex 10.2723 13.2919 8
      vertex 8.48215 13.9708 8
    endloop
  endfacet
  facet normal -0.354605 -0.935016 -0
    outer loop
      vertex 10.2723 13.2919 8
      vertex 8.48215 13.9708 0
      vertex 10.2723 13.2919 0
    endloop
  endfacet
  facet normal 0.885456 0.464723 0
    outer loop
      vertex 5.00596 7.34751 8
      vertex 4.11623 9.04274 0
      vertex 4.11623 9.04274 8
    endloop
  endfacet
  facet normal 0.885456 0.464723 0
    outer loop
      vertex 4.11623 9.04274 0
      vertex 5.00596 7.34751 8
      vertex 5.00596 7.34751 0
    endloop
  endfacet
  facet normal -0.748511 0.663123 0
    outer loop
      vertex 10.2723 6.70806 0
      vertex 11.5418 8.14111 8
      vertex 11.5418 8.14111 0
    endloop
  endfacet
  facet normal -0.748511 0.663123 0
    outer loop
      vertex 11.5418 8.14111 8
      vertex 10.2723 6.70806 0
      vertex 10.2723 6.70806 8
    endloop
  endfacet
  facet normal 0.885456 -0.464723 0
    outer loop
      vertex 4.11623 10.9573 8
      vertex 5.00596 12.6525 0
      vertex 5.00596 12.6525 8
    endloop
  endfacet
  facet normal 0.885456 -0.464723 0
    outer loop
      vertex 5.00596 12.6525 0
      vertex 4.11623 10.9573 8
      vertex 4.11623 10.9573 0
    endloop
  endfacet
  facet normal 0.568065 0.822984 -0
    outer loop
      vertex 6.58158 6.25993 0
      vertex 5.00596 7.34751 8
      vertex 6.58158 6.25993 8
    endloop
  endfacet
  facet normal 0.568065 0.822984 0
    outer loop
      vertex 5.00596 7.34751 8
      vertex 6.58158 6.25993 0
      vertex 5.00596 7.34751 0
    endloop
  endfacet
  facet normal -0.354605 0.935016 0
    outer loop
      vertex 10.2723 6.70806 0
      vertex 8.48215 6.02916 8
      vertex 10.2723 6.70806 8
    endloop
  endfacet
  facet normal -0.354605 0.935016 0
    outer loop
      vertex 8.48215 6.02916 8
      vertex 10.2723 6.70806 0
      vertex 8.48215 6.02916 0
    endloop
  endfacet
  facet normal 0.120536 0.992709 -0
    outer loop
      vertex 8.48215 6.02916 0
      vertex 6.58158 6.25993 8
      vertex 8.48215 6.02916 8
    endloop
  endfacet
  facet normal 0.120536 0.992709 0
    outer loop
      vertex 6.58158 6.25993 8
      vertex 8.48215 6.02916 0
      vertex 6.58158 6.25993 0
    endloop
  endfacet
  facet normal -0.970942 -0.239316 0
    outer loop
      vertex 36 10 0
      vertex 35.5418 11.8589 8
      vertex 35.5418 11.8589 0
    endloop
  endfacet
  facet normal -0.970942 -0.239316 0
    outer loop
      vertex 35.5418 11.8589 8
      vertex 36 10 0
      vertex 36 10 8
    endloop
  endfacet
  facet normal 1 -0 0
    outer loop
      vertex 28.1162 9.04274 8
      vertex 28.1162 10.9573 0
      vertex 28.1162 10.9573 8
    endloop
  endfacet
  facet normal 1 0 0
    outer loop
      vertex 28.1162 10.9573 0
      vertex 28.1162 9.04274 8
      vertex 28.1162 9.04274 0
    endloop
  endfacet
  facet normal 0.120536 -0.992709 0
    outer loop
      vertex 30.5816 13.7401 0
      vertex 32.4821 13.9708 8
      vertex 30.5816 13.7401 8
    endloop
  endfacet
  facet normal 0.120536 -0.992709 0
    outer loop
      vertex 32.4821 13.9708 8
      vertex 30.5816 13.7401 0
      vertex 32.4821 13.9708 0
    endloop
  endfacet
  facet normal -0.748511 -0.663123 0
    outer loop
      vertex 35.5418 11.8589 0
      vertex 34.2723 13.2919 8
      vertex 34.2723 13.2919 0
    endloop
  endfacet
  facet normal -0.748511 -0.663123 0
    outer loop
      vertex 34.2723 13.2919 8
      vertex 35.5418 11.8589 0
      vertex 35.5418 11.8589 8
    endloop
  endfacet
  facet normal 0.568064 -0.822984 0
    outer loop
      vertex 29.006 12.6525 0
      vertex 30.5816 13.7401 8
      vertex 29.006 12.6525 8
    endloop
  endfacet
  facet normal 0.568064 -0.822984 0
    outer loop
      vertex 30.5816 13.7401 8
      vertex 29.006 12.6525 0
      vertex 30.5816 13.7401 0
    endloop
  endfacet
  facet normal -0.970942 0.239315 0
    outer loop
      vertex 35.5418 8.14111 0
      vertex 36 10 8
      vertex 36 10 0
    endloop
  endfacet
  facet normal -0.970942 0.239315 0
    outer loop
      vertex 36 10 8
      vertex 35.5418 8.14111 0
      vertex 35.5418 8.14111 8
    endloop
  endfacet
  facet normal -0.354605 -0.935016 0
    outer loop
      vertex 32.4821 13.9708 0
      vertex 34.2723 13.2919 8
      vertex 32.4821 13.9708 8
    endloop
  endfacet
  facet normal -0.354605 -0.935016 -0
    outer loop
      vertex 34.2723 13.2919 8
      vertex 32.4821 13.9708 0
      vertex 34.2723 13.2919 0
    endloop
  endfacet
  facet normal 0.885456 -0.464723 0
    outer loop
      vertex 28.1162 10.9573 8
      vertex 29.006 12.6525 0
      vertex 29.006 12.6525 8
    endloop
  endfacet
  facet normal 0.885456 -0.464723 0
    outer loop
      vertex 29.006 12.6525 0
      vertex 28.1162 10.9573 8
      vertex 28.1162 10.9573 0
    endloop
  endfacet
  facet normal 0.885456 0.464723 0
    outer loop
      vertex 29.006 7.34751 8
      vertex 28.1162 9.04274 0
      vertex 28.1162 9.04274 8
    endloop
  endfacet
  facet normal 0.885456 0.464723 0
    outer loop
      vertex 28.1162 9.04274 0
      vertex 29.006 7.34751 8
      vertex 29.006 7.34751 0
    endloop
  endfacet
  facet normal -0.748511 0.663123 0
    outer loop
      vertex 34.2723 6.70806 0
      vertex 35.5418 8.14111 8
      vertex 35.5418 8.14111 0
    endloop
  endfacet
  facet normal -0.748511 0.663123 0
    outer loop
      vertex 35.5418 8.14111 8
      vertex 34.2723 6.70806 0
      vertex 34.2723 6.70806 8
    endloop
  endfacet
  facet normal 0.568064 0.822984 -0
    outer loop
      vertex 30.5816 6.25993 0
      vertex 29.006 7.34751 8
      vertex 30.5816 6.25993 8
    endloop
  endfacet
  facet normal 0.568064 0.822984 0
    outer loop
      vertex 29.006 7.34751 8
      vertex 30.5816 6.25993 0
      vertex 29.006 7.34751 0
    endloop
  endfacet
  facet normal -0.354605 0.935016 0
    outer loop
      vertex 34.2723 6.70806 0
      vertex 32.4821 6.02916 8
      vertex 34.2723 6.70806 8
    endloop
  endfacet
  facet normal -0.354605 0.935016 0
    outer loop
      vertex 32.4821 6.02916 8
      vertex 34.2723 6.70806 0
      vertex 32.4821 6.02916 0
    endloop
  endfacet
  facet normal 0.120536 0.992709 -0
    outer loop
      vertex 32.4821 6.02916 0
      vertex 30.5816 6.25993 8
      vertex 32.4821 6.02916 8
    endloop
  endfacet
  facet normal 0.120536 0.992709 0
    outer loop
      vertex 30.5816 6.25993 8
      vertex 32.4821 6.02916 0
      vertex 30.5816 6.25993 0
    endloop
  endfacet
  facet normal -0.970942 -0 -0.239315
    outer loop
      vertex 23.5418 20 0.858892
      vertex 23.6335 0 0.487114
      vertex 23.5418 0 0.858892
    endloop
  endfacet
  facet normal -0.748511 0 -0.663123
    outer loop
      vertex 23.5418 0 0.858892
      vertex 22.2723 20 2.29193
      vertex 23.5418 20 0.858892
    endloop
  endfacet
  facet normal -0.748511 -0 -0.663123
    outer loop
      vertex 22.2723 20 2.29193
      vertex 23.5418 0 0.858892
      vertex 22.2723 0 2.29193
    endloop
  endfacet
  facet normal -0.970942 0 -0.239314
    outer loop
      vertex 23.6335 0 0.487114
      vertex 23.7535 20 0
      vertex 23.7535 0 0
    endloop
  endfacet
  facet normal -0.970942 -1.02396e-008 -0.239314
    outer loop
      vertex 23.7535 20 0
      vertex 23.6335 0 0.487114
      vertex 23.5418 20 0.858892
    endloop
  endfacet
  facet normal 0.120536 0 -0.992709
    outer loop
      vertex 18.5816 0 2.74006
      vertex 20.4821 20 2.97083
      vertex 20.4821 0 2.97083
    endloop
  endfacet
  facet normal 0.120536 0 -0.992709
    outer loop
      vertex 20.4821 20 2.97083
      vertex 18.5816 0 2.74006
      vertex 18.5816 20 2.74006
    endloop
  endfacet
  facet normal 0.885456 0 -0.464723
    outer loop
      vertex 17.006 0 1.65249
      vertex 16.1387 20 0
      vertex 17.006 20 1.65249
    endloop
  endfacet
  facet normal 0.885456 0 -0.464723
    outer loop
      vertex 16.1387 20 0
      vertex 17.006 0 1.65249
      vertex 16.1387 0 0
    endloop
  endfacet
  facet normal 0.568064 0 -0.822984
    outer loop
      vertex 17.006 0 1.65249
      vertex 18.5816 20 2.74006
      vertex 18.5816 0 2.74006
    endloop
  endfacet
  facet normal 0.568064 0 -0.822984
    outer loop
      vertex 18.5816 20 2.74006
      vertex 17.006 0 1.65249
      vertex 17.006 20 1.65249
    endloop
  endfacet
  facet normal -0.354605 0 -0.935016
    outer loop
      vertex 20.4821 0 2.97083
      vertex 22.2723 20 2.29193
      vertex 22.2723 0 2.29193
    endloop
  endfacet
  facet normal -0.354605 0 -0.935016
    outer loop
      vertex 22.2723 20 2.29193
      vertex 20.4821 0 2.97083
      vertex 20.4821 20 2.97083
    endloop
  endfacet
endsolid OpenSCAD_Model
