999
DXF created by Inkscape
  0
SECTION
  2
HEADER
  9
$ACADVER
  1
AC1014
  9
$HANDSEED
  5
FFFF
  9
$MEASUREMENT
 70
     1
  0
ENDSEC
  0
SECTION
  2
TABLES
  0
TABLE
  2
VPORT
  5
8
330
0
100
AcDbSymbolTable
 70
     4
  0
VPORT
  5
2E
330
8
100
AcDbSymbolTableRecord
100
AcDbViewportTableRecord
  2
*ACTIVE
 70
     0
 10
0.0
 20
0.0
 11
1.0
 21
1.0
 12
210.0
 22
148.5
 13
0.0
 23
0.0
 14
10.0
 24
10.0
 15
10.0
 25
10.0
 16
0.0
 26
0.0
 36
1.0
 17
0.0
 27
0.0
 37
0.0
 40
341.0
 41
1.24
 42
50.0
 43
0.0
 44
0.0
 50
0.0
 51
0.0
 71
     0
 72
   100
 73
     1
 74
     3
 75
     0
 76
     0
 77
     0
 78
     0
  0
ENDTAB
  0
TABLE
  2
LTYPE
  5
5
330
0
100
AcDbSymbolTable
 70
     1
  0
LTYPE
  5
14
330
5
100
AcDbSymbolTableRecord
100
AcDbLinetypeTableRecord
  2
BYBLOCK
 70
     0
  3

 72
    65
 73
     0
 40
0.0
  0
LTYPE
  5
15
330
5
100
AcDbSymbolTableRecord
100
AcDbLinetypeTableRecord
  2
BYLAYER
 70
     0
  3

 72
    65
 73
     0
 40
0.0
  0
LTYPE
  5
16
330
5
100
AcDbSymbolTableRecord
100
AcDbLinetypeTableRecord
  2
CONTINUOUS
 70
     0
  3
Solid line
 72
    65
 73
     0
 40
0.0
  0
ENDTAB
  0
TABLE
  2
LAYER
  5
2
100
AcDbSymbolTable
 70
95
  0
LAYER
  5
50
100
AcDbSymbolTableRecord
100
AcDbLayerTableRecord
  2
0
 70
0
  6
CONTINUOUS
  0
LAYER
  5
51
100
AcDbSymbolTableRecord
100
AcDbLayerTableRecord
  2
Ebene_1
 70
0
  6
CONTINUOUS
  0
LAYER
  5
52
100
AcDbSymbolTableRecord
100
AcDbLayerTableRecord
  2
A
 70
0
  6
CONTINUOUS
  0
LAYER
  5
53
100
AcDbSymbolTableRecord
100
AcDbLayerTableRecord
  2
B
 70
0
  6
CONTINUOUS
  0
LAYER
  5
54
100
AcDbSymbolTableRecord
100
AcDbLayerTableRecord
  2
C
 70
0
  6
CONTINUOUS
  0
LAYER
  5
55
100
AcDbSymbolTableRecord
100
AcDbLayerTableRecord
  2
D
 70
0
  6
CONTINUOUS
  0
LAYER
  5
56
100
AcDbSymbolTableRecord
100
AcDbLayerTableRecord
  2
E
 70
0
  6
CONTINUOUS
  0
LAYER
  5
57
100
AcDbSymbolTableRecord
100
AcDbLayerTableRecord
  2
F
 70
0
  6
CONTINUOUS
  0
LAYER
  5
58
100
AcDbSymbolTableRecord
100
AcDbLayerTableRecord
  2
G
 70
0
  6
CONTINUOUS
  0
LAYER
  5
59
100
AcDbSymbolTableRecord
100
AcDbLayerTableRecord
  2
H
 70
0
  6
CONTINUOUS
  0
LAYER
  5
5a
100
AcDbSymbolTableRecord
100
AcDbLayerTableRecord
  2
I
 70
0
  6
CONTINUOUS
  0
LAYER
  5
5b
100
AcDbSymbolTableRecord
100
AcDbLayerTableRecord
  2
J
 70
0
  6
CONTINUOUS
  0
LAYER
  5
5c
100
AcDbSymbolTableRecord
100
AcDbLayerTableRecord
  2
K
 70
0
  6
CONTINUOUS
  0
LAYER
  5
5d
100
AcDbSymbolTableRecord
100
AcDbLayerTableRecord
  2
L
 70
0
  6
CONTINUOUS
  0
LAYER
  5
5e
100
AcDbSymbolTableRecord
100
AcDbLayerTableRecord
  2
M
 70
0
  6
CONTINUOUS
  0
LAYER
  5
5f
100
AcDbSymbolTableRecord
100
AcDbLayerTableRecord
  2
N
 70
0
  6
CONTINUOUS
  0
LAYER
  5
60
100
AcDbSymbolTableRecord
100
AcDbLayerTableRecord
  2
O
 70
0
  6
CONTINUOUS
  0
LAYER
  5
61
100
AcDbSymbolTableRecord
100
AcDbLayerTableRecord
  2
P
 70
0
  6
CONTINUOUS
  0
LAYER
  5
62
100
AcDbSymbolTableRecord
100
AcDbLayerTableRecord
  2
Q
 70
0
  6
CONTINUOUS
  0
LAYER
  5
63
100
AcDbSymbolTableRecord
100
AcDbLayerTableRecord
  2
R
 70
0
  6
CONTINUOUS
  0
LAYER
  5
64
100
AcDbSymbolTableRecord
100
AcDbLayerTableRecord
  2
S
 70
0
  6
CONTINUOUS
  0
LAYER
  5
65
100
AcDbSymbolTableRecord
100
AcDbLayerTableRecord
  2
T
 70
0
  6
CONTINUOUS
  0
LAYER
  5
66
100
AcDbSymbolTableRecord
100
AcDbLayerTableRecord
  2
U
 70
0
  6
CONTINUOUS
  0
LAYER
  5
67
100
AcDbSymbolTableRecord
100
AcDbLayerTableRecord
  2
V
 70
0
  6
CONTINUOUS
  0
LAYER
  5
68
100
AcDbSymbolTableRecord
100
AcDbLayerTableRecord
  2
W
 70
0
  6
CONTINUOUS
  0
LAYER
  5
69
100
AcDbSymbolTableRecord
100
AcDbLayerTableRecord
  2
X
 70
0
  6
CONTINUOUS
  0
LAYER
  5
6a
100
AcDbSymbolTableRecord
100
AcDbLayerTableRecord
  2
Y
 70
0
  6
CONTINUOUS
  0
LAYER
  5
6b
100
AcDbSymbolTableRecord
100
AcDbLayerTableRecord
  2
Z
 70
0
  6
CONTINUOUS
  0
LAYER
  5
6c
100
AcDbSymbolTableRecord
100
AcDbLayerTableRecord
  2
a_
 70
0
  6
CONTINUOUS
  0
LAYER
  5
6d
100
AcDbSymbolTableRecord
100
AcDbLayerTableRecord
  2
b_
 70
0
  6
CONTINUOUS
  0
LAYER
  5
6e
100
AcDbSymbolTableRecord
100
AcDbLayerTableRecord
  2
c_
 70
0
  6
CONTINUOUS
  0
LAYER
  5
6f
100
AcDbSymbolTableRecord
100
AcDbLayerTableRecord
  2
d_
 70
0
  6
CONTINUOUS
  0
LAYER
  5
70
100
AcDbSymbolTableRecord
100
AcDbLayerTableRecord
  2
e_
 70
0
  6
CONTINUOUS
  0
LAYER
  5
71
100
AcDbSymbolTableRecord
100
AcDbLayerTableRecord
  2
f_
 70
0
  6
CONTINUOUS
  0
LAYER
  5
72
100
AcDbSymbolTableRecord
100
AcDbLayerTableRecord
  2
g_
 70
0
  6
CONTINUOUS
  0
LAYER
  5
73
100
AcDbSymbolTableRecord
100
AcDbLayerTableRecord
  2
h_
 70
0
  6
CONTINUOUS
  0
LAYER
  5
74
100
AcDbSymbolTableRecord
100
AcDbLayerTableRecord
  2
i_
 70
0
  6
CONTINUOUS
  0
LAYER
  5
75
100
AcDbSymbolTableRecord
100
AcDbLayerTableRecord
  2
j_
 70
0
  6
CONTINUOUS
  0
LAYER
  5
76
100
AcDbSymbolTableRecord
100
AcDbLayerTableRecord
  2
k_
 70
0
  6
CONTINUOUS
  0
LAYER
  5
77
100
AcDbSymbolTableRecord
100
AcDbLayerTableRecord
  2
l_
 70
0
  6
CONTINUOUS
  0
LAYER
  5
78
100
AcDbSymbolTableRecord
100
AcDbLayerTableRecord
  2
m_
 70
0
  6
CONTINUOUS
  0
LAYER
  5
79
100
AcDbSymbolTableRecord
100
AcDbLayerTableRecord
  2
n_
 70
0
  6
CONTINUOUS
  0
LAYER
  5
7a
100
AcDbSymbolTableRecord
100
AcDbLayerTableRecord
  2
o_
 70
0
  6
CONTINUOUS
  0
LAYER
  5
7b
100
AcDbSymbolTableRecord
100
AcDbLayerTableRecord
  2
p_
 70
0
  6
CONTINUOUS
  0
LAYER
  5
7c
100
AcDbSymbolTableRecord
100
AcDbLayerTableRecord
  2
q_
 70
0
  6
CONTINUOUS
  0
LAYER
  5
7d
100
AcDbSymbolTableRecord
100
AcDbLayerTableRecord
  2
r_
 70
0
  6
CONTINUOUS
  0
LAYER
  5
7e
100
AcDbSymbolTableRecord
100
AcDbLayerTableRecord
  2
s_
 70
0
  6
CONTINUOUS
  0
LAYER
  5
7f
100
AcDbSymbolTableRecord
100
AcDbLayerTableRecord
  2
t_
 70
0
  6
CONTINUOUS
  0
LAYER
  5
80
100
AcDbSymbolTableRecord
100
AcDbLayerTableRecord
  2
u_
 70
0
  6
CONTINUOUS
  0
LAYER
  5
81
100
AcDbSymbolTableRecord
100
AcDbLayerTableRecord
  2
v_
 70
0
  6
CONTINUOUS
  0
LAYER
  5
82
100
AcDbSymbolTableRecord
100
AcDbLayerTableRecord
  2
w_
 70
0
  6
CONTINUOUS
  0
LAYER
  5
83
100
AcDbSymbolTableRecord
100
AcDbLayerTableRecord
  2
x_
 70
0
  6
CONTINUOUS
  0
LAYER
  5
84
100
AcDbSymbolTableRecord
100
AcDbLayerTableRecord
  2
y_
 70
0
  6
CONTINUOUS
  0
LAYER
  5
85
100
AcDbSymbolTableRecord
100
AcDbLayerTableRecord
  2
z_
 70
0
  6
CONTINUOUS
  0
LAYER
  5
86
100
AcDbSymbolTableRecord
100
AcDbLayerTableRecord
  2
!
 70
0
  6
CONTINUOUS
  0
LAYER
  5
87
100
AcDbSymbolTableRecord
100
AcDbLayerTableRecord
  2
@
 70
0
  6
CONTINUOUS
  0
LAYER
  5
88
100
AcDbSymbolTableRecord
100
AcDbLayerTableRecord
  2
#
 70
0
  6
CONTINUOUS
  0
LAYER
  5
89
100
AcDbSymbolTableRecord
100
AcDbLayerTableRecord
  2
$
 70
0
  6
CONTINUOUS
  0
LAYER
  5
8a
100
AcDbSymbolTableRecord
100
AcDbLayerTableRecord
  2
%
 70
0
  6
CONTINUOUS
  0
LAYER
  5
8b
100
AcDbSymbolTableRecord
100
AcDbLayerTableRecord
  2
^
 70
0
  6
CONTINUOUS
  0
LAYER
  5
8c
100
AcDbSymbolTableRecord
100
AcDbLayerTableRecord
  2
&
 70
0
  6
CONTINUOUS
  0
LAYER
  5
8d
100
AcDbSymbolTableRecord
100
AcDbLayerTableRecord
  2
*
 70
0
  6
CONTINUOUS
  0
LAYER
  5
8e
100
AcDbSymbolTableRecord
100
AcDbLayerTableRecord
  2
(
 70
0
  6
CONTINUOUS
  0
LAYER
  5
8f
100
AcDbSymbolTableRecord
100
AcDbLayerTableRecord
  2
)
 70
0
  6
CONTINUOUS
  0
LAYER
  5
90
100
AcDbSymbolTableRecord
100
AcDbLayerTableRecord
  2
-
 70
0
  6
CONTINUOUS
  0
LAYER
  5
91
100
AcDbSymbolTableRecord
100
AcDbLayerTableRecord
  2
=
 70
0
  6
CONTINUOUS
  0
LAYER
  5
92
100
AcDbSymbolTableRecord
100
AcDbLayerTableRecord
  2
+
 70
0
  6
CONTINUOUS
  0
LAYER
  5
93
100
AcDbSymbolTableRecord
100
AcDbLayerTableRecord
  2
<
 70
0
  6
CONTINUOUS
  0
LAYER
  5
94
100
AcDbSymbolTableRecord
100
AcDbLayerTableRecord
  2
>
 70
0
  6
CONTINUOUS
  0
LAYER
  5
95
100
AcDbSymbolTableRecord
100
AcDbLayerTableRecord
  2
/
 70
0
  6
CONTINUOUS
  0
LAYER
  5
96
100
AcDbSymbolTableRecord
100
AcDbLayerTableRecord
  2
?
 70
0
  6
CONTINUOUS
  0
LAYER
  5
97
100
AcDbSymbolTableRecord
100
AcDbLayerTableRecord
  2
,
 70
0
  6
CONTINUOUS
  0
LAYER
  5
98
100
AcDbSymbolTableRecord
100
AcDbLayerTableRecord
  2
.
 70
0
  6
CONTINUOUS
  0
LAYER
  5
99
100
AcDbSymbolTableRecord
100
AcDbLayerTableRecord
  2
\
 70
0
  6
CONTINUOUS
  0
LAYER
  5
9a
100
AcDbSymbolTableRecord
100
AcDbLayerTableRecord
  2
~
 70
0
  6
CONTINUOUS
  0
LAYER
  5
9b
100
AcDbSymbolTableRecord
100
AcDbLayerTableRecord
  2
`
 70
0
  6
CONTINUOUS
  0
LAYER
  5
9c
100
AcDbSymbolTableRecord
100
AcDbLayerTableRecord
  2
_
 70
0
  6
CONTINUOUS
  0
LAYER
  5
9d
100
AcDbSymbolTableRecord
100
AcDbLayerTableRecord
  2
;
 70
0
  6
CONTINUOUS
  0
LAYER
  5
9e
100
AcDbSymbolTableRecord
100
AcDbLayerTableRecord
  2
'
 70
0
  6
CONTINUOUS
  0
LAYER
  5
9f
100
AcDbSymbolTableRecord
100
AcDbLayerTableRecord
  2
:
 70
0
  6
CONTINUOUS
  0
LAYER
  5
a0
100
AcDbSymbolTableRecord
100
AcDbLayerTableRecord
  2
[
 70
0
  6
CONTINUOUS
  0
LAYER
  5
a1
100
AcDbSymbolTableRecord
100
AcDbLayerTableRecord
  2
]
 70
0
  6
CONTINUOUS
  0
LAYER
  5
a2
100
AcDbSymbolTableRecord
100
AcDbLayerTableRecord
  2
{
 70
0
  6
CONTINUOUS
  0
LAYER
  5
a3
100
AcDbSymbolTableRecord
100
AcDbLayerTableRecord
  2
}
 70
0
  6
CONTINUOUS
  0
LAYER
  5
a4
100
AcDbSymbolTableRecord
100
AcDbLayerTableRecord
  2
|
 70
0
  6
CONTINUOUS
  0
LAYER
  5
a5
100
AcDbSymbolTableRecord
100
AcDbLayerTableRecord
  2
"
 70
0
  6
CONTINUOUS
  0
LAYER
  5
a6
100
AcDbSymbolTableRecord
100
AcDbLayerTableRecord
  2
1
 70
0
  6
CONTINUOUS
  0
LAYER
  5
a7
100
AcDbSymbolTableRecord
100
AcDbLayerTableRecord
  2
2
 70
0
  6
CONTINUOUS
  0
LAYER
  5
a8
100
AcDbSymbolTableRecord
100
AcDbLayerTableRecord
  2
3
 70
0
  6
CONTINUOUS
  0
LAYER
  5
a9
100
AcDbSymbolTableRecord
100
AcDbLayerTableRecord
  2
4
 70
0
  6
CONTINUOUS
  0
LAYER
  5
aa
100
AcDbSymbolTableRecord
100
AcDbLayerTableRecord
  2
5
 70
0
  6
CONTINUOUS
  0
LAYER
  5
ab
100
AcDbSymbolTableRecord
100
AcDbLayerTableRecord
  2
6
 70
0
  6
CONTINUOUS
  0
LAYER
  5
ac
100
AcDbSymbolTableRecord
100
AcDbLayerTableRecord
  2
7
 70
0
  6
CONTINUOUS
  0
LAYER
  5
ad
100
AcDbSymbolTableRecord
100
AcDbLayerTableRecord
  2
8
 70
0
  6
CONTINUOUS
  0
LAYER
  5
ae
100
AcDbSymbolTableRecord
100
AcDbLayerTableRecord
  2
9
 70
0
  6
CONTINUOUS
  0
ENDTAB
  0
TABLE
  2
STYLE
  5
3
330
0
100
AcDbSymbolTable
 70
     1
  0
STYLE
  5
11
330
3
100
AcDbSymbolTableRecord
100
AcDbTextStyleTableRecord
  2
STANDARD
 70
     0
 40
0.0
 41
1.0
 50
0.0
 71
     0
 42
2.5
  3
txt
  4

  0
ENDTAB
  0
TABLE
  2
VIEW
  5
6
330
0
100
AcDbSymbolTable
 70
     0
  0
ENDTAB
  0
TABLE
  2
UCS
  5
7
330
0
100
AcDbSymbolTable
 70
     0
  0
ENDTAB
  0
TABLE
  2
APPID
  5
9
330
0
100
AcDbSymbolTable
 70
     2
  0
APPID
  5
12
330
9
100
AcDbSymbolTableRecord
100
AcDbRegAppTableRecord
  2
ACAD
 70
     0
  0
ENDTAB
  0
TABLE
  2
DIMSTYLE
  5
A
330
0
100
AcDbSymbolTable
 70
     1
  0
DIMSTYLE
105
27
330
A
100
AcDbSymbolTableRecord
100
AcDbDimStyleTableRecord
  2
ISO-25
 70
     0
  3

  4

  5

  6

  7

 40
1.0
 41
2.5
 42
0.625
 43
3.75
 44
1.25
 45
0.0
 46
0.0
 47
0.0
 48
0.0
140
2.5
141
2.5
142
0.0
143
0.03937007874016
144
1.0
145
0.0
146
1.0
147
0.625
 71
     0
 72
     0
 73
     0
 74
     0
 75
     0
 76
     0
 77
     1
 78
     8
170
     0
171
     3
172
     1
173
     0
174
     0
175
     0
176
     0
177
     0
178
     0
270
     2
271
     2
272
     2
273
     2
274
     3
340
11
275
     0
280
     0
281
     0
282
     0
283
     0
284
     8
285
     0
286
     0
287
     3
288
     0
  0
ENDTAB
  0
TABLE
  2
BLOCK_RECORD
  5
1
330
0
100
AcDbSymbolTable
 70
     1
  0
BLOCK_RECORD
  5
1F
330
1
100
AcDbSymbolTableRecord
100
AcDbBlockTableRecord
  2
*MODEL_SPACE
  0
BLOCK_RECORD
  5
1B
330
1
100
AcDbSymbolTableRecord
100
AcDbBlockTableRecord
  2
*PAPER_SPACE
  0
ENDTAB
  0
ENDSEC
  0
SECTION
  2
BLOCKS
  0
BLOCK
  5
20
330
1F
100
AcDbEntity
  8
0
100
AcDbBlockBegin
  2
*MODEL_SPACE
 70
     0
 10
0.0
 20
0.0
 30
0.0
  3
*MODEL_SPACE
  1

  0
ENDBLK
  5
21
330
1F
100
AcDbEntity
  8
0
100
AcDbBlockEnd
  0
BLOCK
  5
1C
330
1B
100
AcDbEntity
 67
     1
  8
0
100
AcDbBlockBegin
  2
*PAPER_SPACE
  1

  0
ENDBLK
  5
1D
330
1B
100
AcDbEntity
 67
     1
  8
0
100
AcDbBlockEnd
  0
ENDSEC
  0
SECTION
  2
ENTITIES
  0
LWPOLYLINE
  5
100
100
AcDbEntity
  8
A
 62
7
100
AcDbPolyline
 90
6
 70
0
 10
2.457318
 20
0.108826
 30
0.0
 10
1.131094
 20
0.108826
 30
0.0
 10
-0.572161
 20
4.418247
 30
0.0
 10
-0.377031
 20
4.973858
 30
0.0
 10
0.486172
 20
4.973858
 30
0.0
 10
2.457318
 20
0.108826
 30
0.0
  0
LWPOLYLINE
  5
101
100
AcDbEntity
  8
A
 62
7
100
AcDbPolyline
 90
6
 70
0
 10
0.178594
 20
0.737222
 30
0.0
 10
-0.717682
 20
0.737222
 30
0.0
 10
-1.038490
 20
0.108826
 30
0.0
 10
-2.503620
 20
0.108826
 30
0.0
 10
-0.955807
 20
3.684017
 30
0.0
 10
0.178594
 20
0.737222
 30
0.0
  0
LWPOLYLINE
  5
102
100
AcDbEntity
  8
B
 62
7
100
AcDbPolyline
 90
24
 70
0
 10
1.828932
 20
1.368920
 30
0.0
 10
1.389062
 20
0.406486
 30
0.0
 10
0.396875
 20
0.088986
 30
0.0
 10
-0.013229
 20
0.131997
 30
0.0
 10
-0.013229
 20
1.134083
 30
0.0
 10
0.125677
 20
1.127592
 30
0.0
 10
0.734219
 20
1.656759
 30
0.0
 10
-0.013229
 20
2.179321
 30
0.0
 10
-0.013229
 20
2.890380
 30
0.0
 10
0.109141
 20
2.880502
 30
0.0
 10
0.539089
 20
3.026044
 30
0.0
 10
0.734219
 20
3.426207
 30
0.0
 10
0.565547
 20
3.816492
 30
0.0
 10
0.158750
 20
3.955374
 30
0.0
 10
-0.013229
 20
3.935618
 30
0.0
 10
-0.013229
 20
4.944337
 30
0.0
 10
0.297656
 20
4.960988
 30
0.0
 10
1.365911
 20
4.679867
 30
0.0
 10
1.828932
 20
3.714159
 30
0.0
 10
1.637109
 20
3.026242
 30
0.0
 10
1.094714
 20
2.569832
 30
0.0
 10
1.630495
 20
2.073742
 30
0.0
 10
1.828932
 20
1.369287
 30
0.0
 10
1.828932
 20
1.368920
 30
0.0
  0
LWPOLYLINE
  5
103
100
AcDbEntity
  8
B
 62
7
100
AcDbPolyline
 90
5
 70
0
 10
-0.582083
 20
0.098920
 30
0.0
 10
-1.792552
 20
0.098920
 30
0.0
 10
-1.792552
 20
4.983792
 30
0.0
 10
-0.582083
 20
4.983792
 30
0.0
 10
-0.582083
 20
0.098920
 30
0.0
  0
LWPOLYLINE
  5
104
100
AcDbEntity
  8
C
 62
7
100
AcDbPolyline
 90
6
 70
0
 10
1.911615
 20
3.376452
 30
0.0
 10
0.935964
 20
3.376452
 30
0.0
 10
0.492786
 20
3.905618
 30
0.0
 10
0.492786
 20
4.990396
 30
0.0
 10
1.541198
 20
4.494306
 30
0.0
 10
1.911615
 20
3.376452
 30
0.0
  0
LWPOLYLINE
  5
105
100
AcDbEntity
  8
C
 62
7
100
AcDbPolyline
 90
6
 70
0
 10
1.911615
 20
1.772413
 30
0.0
 10
1.561042
 20
0.618153
 30
0.0
 10
0.492786
 20
0.105524
 30
0.0
 10
0.492786
 20
1.067958
 30
0.0
 10
0.972344
 20
1.772413
 30
0.0
 10
1.911615
 20
1.772413
 30
0.0
  0
LWPOLYLINE
  5
106
100
AcDbEntity
  8
C
 62
7
100
AcDbPolyline
 90
13
 70
0
 10
-0.238125
 20
0.105524
 30
0.0
 10
-1.425443
 20
0.479243
 30
0.0
 10
-1.905000
 20
1.603729
 30
0.0
 10
-1.905000
 20
3.492191
 30
0.0
 10
-1.425443
 20
4.616677
 30
0.0
 10
-0.238125
 20
4.990396
 30
0.0
 10
-0.238125
 20
3.945299
 30
0.0
 10
-0.714375
 20
3.621166
 30
0.0
 10
-0.876432
 20
3.052319
 30
0.0
 10
-0.876432
 20
1.921229
 30
0.0
 10
-0.717682
 20
1.349080
 30
0.0
 10
-0.238125
 20
1.028250
 30
0.0
 10
-0.238125
 20
0.105524
 30
0.0
  0
LWPOLYLINE
  5
107
100
AcDbEntity
  8
D
 62
7
100
AcDbPolyline
 90
13
 70
0
 10
1.756172
 20
1.613663
 30
0.0
 10
1.279922
 20
0.492479
 30
0.0
 10
0.102526
 20
0.118760
 30
0.0
 10
0.102526
 20
1.160556
 30
0.0
 10
0.575469
 20
1.481358
 30
0.0
 10
0.734219
 20
2.050205
 30
0.0
 10
0.734219
 20
3.171389
 30
0.0
 10
0.575469
 20
3.736934
 30
0.0
 10
0.102526
 20
4.057736
 30
0.0
 10
0.102526
 20
4.973858
 30
0.0
 10
1.279922
 20
4.600139
 30
0.0
 10
1.756172
 20
3.485587
 30
0.0
 10
1.756172
 20
1.613663
 30
0.0
  0
LWPOLYLINE
  5
108
100
AcDbEntity
  8
D
 62
7
100
AcDbPolyline
 90
5
 70
0
 10
-0.644922
 20
0.118760
 30
0.0
 10
-1.703255
 20
0.118760
 30
0.0
 10
-1.703255
 20
4.970556
 30
0.0
 10
-0.644922
 20
4.970556
 30
0.0
 10
-0.644922
 20
0.118760
 30
0.0
  0
LWPOLYLINE
  5
109
100
AcDbEntity
  8
E
 62
7
100
AcDbPolyline
 90
5
 70
0
 10
1.673490
 20
4.084208
 30
0.0
 10
0.016536
 20
4.084208
 30
0.0
 10
0.016536
 20
4.973858
 30
0.0
 10
1.673490
 20
4.973858
 30
0.0
 10
1.673490
 20
4.084208
 30
0.0
  0
LWPOLYLINE
  5
10a
100
AcDbEntity
  8
E
 62
7
100
AcDbPolyline
 90
9
 70
0
 10
0.985573
 20
2.103121
 30
0.0
 10
-0.582083
 20
2.103121
 30
0.0
 10
-0.582083
 20
0.122062
 30
0.0
 10
-1.604036
 20
0.122062
 30
0.0
 10
-1.604036
 20
4.977160
 30
0.0
 10
-0.582083
 20
4.977160
 30
0.0
 10
-0.582083
 20
3.002705
 30
0.0
 10
0.985573
 20
3.002705
 30
0.0
 10
0.985573
 20
2.103121
 30
0.0
  0
LWPOLYLINE
  5
10b
100
AcDbEntity
  8
E
 62
7
100
AcDbPolyline
 90
5
 70
0
 10
1.673490
 20
0.122062
 30
0.0
 10
0.016536
 20
0.122062
 30
0.0
 10
0.016536
 20
1.024948
 30
0.0
 10
1.673490
 20
1.024948
 30
0.0
 10
1.673490
 20
0.122062
 30
0.0
  0
LWPOLYLINE
  5
10c
100
AcDbEntity
  8
F
 62
7
100
AcDbPolyline
 90
5
 70
0
 10
1.673490
 20
4.084208
 30
0.0
 10
0.016536
 20
4.084208
 30
0.0
 10
0.016536
 20
4.973858
 30
0.0
 10
1.673490
 20
4.973858
 30
0.0
 10
1.673490
 20
4.084208
 30
0.0
  0
LWPOLYLINE
  5
10d
100
AcDbEntity
  8
F
 62
7
100
AcDbPolyline
 90
9
 70
0
 10
0.985573
 20
2.103121
 30
0.0
 10
-0.582083
 20
2.103121
 30
0.0
 10
-0.582083
 20
0.122062
 30
0.0
 10
-1.604036
 20
0.122062
 30
0.0
 10
-1.604036
 20
4.977160
 30
0.0
 10
-0.582083
 20
4.977160
 30
0.0
 10
-0.582083
 20
3.002705
 30
0.0
 10
0.985573
 20
3.002705
 30
0.0
 10
0.985573
 20
2.103121
 30
0.0
  0
LWPOLYLINE
  5
10e
100
AcDbEntity
  8
G
 62
7
100
AcDbPolyline
 90
6
 70
0
 10
1.895078
 20
3.369819
 30
0.0
 10
0.926042
 20
3.369819
 30
0.0
 10
0.489479
 20
3.895684
 30
0.0
 10
0.489479
 20
4.970556
 30
0.0
 10
1.531276
 20
4.481069
 30
0.0
 10
1.895078
 20
3.369819
 30
0.0
  0
LWPOLYLINE
  5
10f
100
AcDbEntity
  8
G
 62
7
100
AcDbPolyline
 90
10
 70
0
 10
1.895078
 20
1.610333
 30
0.0
 10
1.498203
 20
0.575170
 30
0.0
 10
0.489479
 20
0.125364
 30
0.0
 10
0.489479
 20
1.077864
 30
0.0
 10
0.952500
 20
1.788952
 30
0.0
 10
0.942578
 20
1.927833
 30
0.0
 10
0.142214
 20
1.927833
 30
0.0
 10
0.142214
 20
2.804274
 30
0.0
 10
1.895078
 20
2.804274
 30
0.0
 10
1.895078
 20
1.610333
 30
0.0
  0
LWPOLYLINE
  5
110
100
AcDbEntity
  8
G
 62
7
100
AcDbPolyline
 90
13
 70
0
 10
-0.241432
 20
0.125364
 30
0.0
 10
-1.415521
 20
0.499083
 30
0.0
 10
-1.891771
 20
1.610333
 30
0.0
 10
-1.891771
 20
3.485587
 30
0.0
 10
-1.415521
 20
4.596837
 30
0.0
 10
-0.241432
 20
4.970556
 30
0.0
 10
-0.241432
 20
3.935364
 30
0.0
 10
-0.711068
 20
3.614562
 30
0.0
 10
-0.869818
 20
3.049017
 30
0.0
 10
-0.869818
 20
1.924531
 30
0.0
 10
-0.711068
 20
1.358986
 30
0.0
 10
-0.241432
 20
1.038184
 30
0.0
 10
-0.241432
 20
0.125364
 30
0.0
  0
LWPOLYLINE
  5
111
100
AcDbEntity
  8
H
 62
7
100
AcDbPolyline
 90
9
 70
0
 10
1.789245
 20
0.122062
 30
0.0
 10
0.767292
 20
0.122062
 30
0.0
 10
0.767292
 20
2.103121
 30
0.0
 10
0.294349
 20
2.103121
 30
0.0
 10
0.294349
 20
3.002705
 30
0.0
 10
0.767292
 20
3.002705
 30
0.0
 10
0.767292
 20
4.977160
 30
0.0
 10
1.789245
 20
4.977160
 30
0.0
 10
1.789245
 20
0.122062
 30
0.0
  0
LWPOLYLINE
  5
112
100
AcDbEntity
  8
H
 62
7
100
AcDbPolyline
 90
9
 70
0
 10
-0.244740
 20
2.103121
 30
0.0
 10
-0.720990
 20
2.103121
 30
0.0
 10
-0.720990
 20
0.122062
 30
0.0
 10
-1.742943
 20
0.122062
 30
0.0
 10
-1.742943
 20
4.977160
 30
0.0
 10
-0.720990
 20
4.977160
 30
0.0
 10
-0.720990
 20
3.002705
 30
0.0
 10
-0.244740
 20
3.002705
 30
0.0
 10
-0.244740
 20
2.103121
 30
0.0
  0
LWPOLYLINE
  5
113
100
AcDbEntity
  8
I
 62
7
100
AcDbPolyline
 90
5
 70
0
 10
0.499401
 20
0.122062
 30
0.0
 10
-0.506016
 20
0.122062
 30
0.0
 10
-0.506016
 20
4.977160
 30
0.0
 10
0.499401
 20
4.977160
 30
0.0
 10
0.499401
 20
0.122062
 30
0.0
  0
LWPOLYLINE
  5
114
100
AcDbEntity
  8
J
 62
7
100
AcDbPolyline
 90
8
 70
0
 10
1.842161
 20
1.408601
 30
0.0
 10
1.369219
 20
0.515621
 30
0.0
 10
0.403490
 20
0.108826
 30
0.0
 10
0.403490
 20
1.101035
 30
0.0
 10
0.823516
 20
1.729403
 30
0.0
 10
0.823516
 20
4.973858
 30
0.0
 10
1.842161
 20
4.973858
 30
0.0
 10
1.842161
 20
1.408601
 30
0.0
  0
LWPOLYLINE
  5
115
100
AcDbEntity
  8
J
 62
7
100
AcDbPolyline
 90
8
 70
0
 10
-0.304271
 20
0.095618
 30
0.0
 10
-1.329531
 20
0.515621
 30
0.0
 10
-1.819010
 20
1.468121
 30
0.0
 10
-1.785938
 20
1.729403
 30
0.0
 10
-0.767292
 20
1.729403
 30
0.0
 10
-0.780521
 20
1.616965
 30
0.0
 10
-0.304271
 20
1.081166
 30
0.0
 10
-0.304271
 20
0.095618
 30
0.0
  0
LWPOLYLINE
  5
116
100
AcDbEntity
  8
K
 62
7
100
AcDbPolyline
 90
8
 70
0
 10
1.888464
 20
0.105524
 30
0.0
 10
0.810286
 20
0.105524
 30
0.0
 10
-0.393568
 20
2.387573
 30
0.0
 10
-0.393568
 20
3.260684
 30
0.0
 10
0.615156
 20
4.967254
 30
0.0
 10
1.723099
 20
4.967254
 30
0.0
 10
0.453099
 20
2.890267
 30
0.0
 10
1.888464
 20
0.105524
 30
0.0
  0
LWPOLYLINE
  5
117
100
AcDbEntity
  8
K
 62
7
100
AcDbPolyline
 90
5
 70
0
 10
-0.820208
 20
4.967254
 30
0.0
 10
-0.836745
 20
0.122062
 30
0.0
 10
-1.842162
 20
0.122062
 30
0.0
 10
-1.842162
 20
4.967254
 30
0.0
 10
-0.820208
 20
4.967254
 30
0.0
  0
LWPOLYLINE
  5
118
100
AcDbEntity
  8
L
 62
7
100
AcDbPolyline
 90
5
 70
0
 10
-0.532474
 20
0.122062
 30
0.0
 10
-1.534583
 20
0.122062
 30
0.0
 10
-1.534583
 20
4.973858
 30
0.0
 10
-0.532474
 20
4.973858
 30
0.0
 10
-0.532474
 20
0.122062
 30
0.0
  0
LWPOLYLINE
  5
119
100
AcDbEntity
  8
L
 62
7
100
AcDbPolyline
 90
5
 70
0
 10
1.617266
 20
0.118676
 30
0.0
 10
-0.009922
 20
0.118676
 30
0.0
 10
-0.009922
 20
1.163773
 30
0.0
 10
1.617266
 20
1.163773
 30
0.0
 10
1.617266
 20
0.118676
 30
0.0
  0
LWPOLYLINE
  5
11a
100
AcDbEntity
  8
M
 62
7
100
AcDbPolyline
 90
7
 70
0
 10
2.235729
 20
0.105524
 30
0.0
 10
1.104635
 20
0.105524
 30
0.0
 10
1.104635
 20
2.513247
 30
0.0
 10
0.466328
 20
3.263986
 30
0.0
 10
1.104635
 20
4.970556
 30
0.0
 10
2.235729
 20
4.970556
 30
0.0
 10
2.235729
 20
0.105524
 30
0.0
  0
LWPOLYLINE
  5
11b
100
AcDbEntity
  8
M
 62
7
100
AcDbPolyline
 90
6
 70
0
 10
0.575469
 20
2.089913
 30
0.0
 10
0.009922
 20
1.024948
 30
0.0
 10
-2.212578
 20
3.816323
 30
0.0
 10
-2.209271
 20
4.967254
 30
0.0
 10
-1.673489
 20
4.967254
 30
0.0
 10
0.575469
 20
2.089913
 30
0.0
  0
LWPOLYLINE
  5
11c
100
AcDbEntity
  8
M
 62
7
100
AcDbPolyline
 90
5
 70
0
 10
-1.137708
 20
0.105524
 30
0.0
 10
-2.232422
 20
0.105524
 30
0.0
 10
-2.232422
 20
2.976260
 30
0.0
 10
-1.137708
 20
1.451583
 30
0.0
 10
-1.137708
 20
0.105524
 30
0.0
  0
LWPOLYLINE
  5
11d
100
AcDbEntity
  8
N
 62
7
100
AcDbPolyline
 90
5
 70
0
 10
2.017448
 20
4.973858
 30
0.0
 10
2.014141
 20
1.097705
 30
0.0
 10
0.876432
 20
2.867125
 30
0.0
 10
0.876432
 20
4.973858
 30
0.0
 10
2.017448
 20
4.973858
 30
0.0
  0
LWPOLYLINE
  5
11e
100
AcDbEntity
  8
N
 62
7
100
AcDbPolyline
 90
6
 70
0
 10
2.126589
 20
0.112156
 30
0.0
 10
0.727604
 20
0.112156
 30
0.0
 10
-2.106745
 20
4.018056
 30
0.0
 10
-2.100130
 20
4.977160
 30
0.0
 10
-1.184011
 20
4.967282
 30
0.0
 10
2.126589
 20
0.112156
 30
0.0
  0
LWPOLYLINE
  5
11f
100
AcDbEntity
  8
N
 62
7
100
AcDbPolyline
 90
5
 70
0
 10
-0.975651
 20
0.118648
 30
0.0
 10
-2.123281
 20
0.118648
 30
0.0
 10
-2.123281
 20
3.111755
 30
0.0
 10
-0.975651
 20
1.583776
 30
0.0
 10
-0.975651
 20
0.118648
 30
0.0
  0
LWPOLYLINE
  5
120
100
AcDbEntity
  8
O
 62
7
100
AcDbPolyline
 90
13
 70
0
 10
1.931458
 20
1.613663
 30
0.0
 10
1.458516
 20
0.495781
 30
0.0
 10
0.284427
 20
0.125364
 30
0.0
 10
0.284427
 20
1.163858
 30
0.0
 10
0.754062
 20
1.481358
 30
0.0
 10
0.912812
 20
2.046903
 30
0.0
 10
0.912812
 20
3.171389
 30
0.0
 10
0.754062
 20
3.736934
 30
0.0
 10
0.284427
 20
4.057736
 30
0.0
 10
0.284427
 20
4.973858
 30
0.0
 10
1.458516
 20
4.600139
 30
0.0
 10
1.931458
 20
3.485587
 30
0.0
 10
1.931458
 20
1.613663
 30
0.0
  0
LWPOLYLINE
  5
121
100
AcDbEntity
  8
O
 62
7
100
AcDbPolyline
 90
13
 70
0
 10
-0.241432
 20
0.125364
 30
0.0
 10
-1.415521
 20
0.495781
 30
0.0
 10
-1.891771
 20
1.613663
 30
0.0
 10
-1.891771
 20
3.485587
 30
0.0
 10
-1.415521
 20
4.600139
 30
0.0
 10
-0.241432
 20
4.973858
 30
0.0
 10
-0.241432
 20
4.057736
 30
0.0
 10
-0.711068
 20
3.736934
 30
0.0
 10
-0.869818
 20
3.171389
 30
0.0
 10
-0.869818
 20
2.046903
 30
0.0
 10
-0.714375
 20
1.478056
 30
0.0
 10
-0.241432
 20
1.160556
 30
0.0
 10
-0.241432
 20
0.125364
 30
0.0
  0
LWPOLYLINE
  5
122
100
AcDbEntity
  8
P
 62
7
100
AcDbPolyline
 90
23
 70
0
 10
1.650339
 20
2.781132
 30
0.0
 10
1.364258
 20
2.390875
 30
0.0
 10
1.078177
 20
2.000618
 30
0.0
 10
0.568854
 20
1.907993
 30
0.0
 10
0.059531
 20
1.815396
 30
0.0
 10
0.059531
 20
2.263536
 30
0.0
 10
0.059531
 20
2.711677
 30
0.0
 10
0.233164
 20
2.738206
 30
0.0
 10
0.406797
 20
2.764735
 30
0.0
 10
0.491133
 20
2.903645
 30
0.0
 10
0.575469
 20
3.042554
 30
0.0
 10
0.575469
 20
3.416273
 30
0.0
 10
0.575469
 20
3.789992
 30
0.0
 10
0.492786
 20
3.930538
 30
0.0
 10
0.410104
 20
4.071113
 30
0.0
 10
0.234818
 20
4.097642
 30
0.0
 10
0.059531
 20
4.124171
 30
0.0
 10
0.059531
 20
4.540872
 30
0.0
 10
0.059531
 20
4.957602
 30
0.0
 10
1.092742
 20
4.737130
 30
0.0
 10
1.650339
 20
3.991865
 30
0.0
 10
1.650339
 20
3.386640
 30
0.0
 10
1.650339
 20
2.781132
 30
0.0
  0
LWPOLYLINE
  5
123
100
AcDbEntity
  8
P
 62
7
100
AcDbPolyline
 90
9
 70
0
 10
-0.555625
 20
0.108826
 30
0.0
 10
-1.066602
 20
0.108826
 30
0.0
 10
-1.577578
 20
0.108826
 30
0.0
 10
-1.577578
 20
2.541328
 30
0.0
 10
-1.577578
 20
4.973858
 30
0.0
 10
-1.066602
 20
4.973858
 30
0.0
 10
-0.555625
 20
4.973858
 30
0.0
 10
-0.555625
 20
2.541328
 30
0.0
 10
-0.555625
 20
0.108826
 30
0.0
  0
LWPOLYLINE
  5
124
100
AcDbEntity
  8
Q
 62
7
100
AcDbPolyline
 90
16
 70
0
 10
2.090208
 20
0.472639
 30
0.0
 10
1.524661
 20
-0.238420
 30
0.0
 10
0.816901
 20
0.217990
 30
0.0
 10
0.112448
 20
0.125364
 30
0.0
 10
0.112448
 20
1.163858
 30
0.0
 10
0.582083
 20
1.481358
 30
0.0
 10
0.740833
 20
2.046903
 30
0.0
 10
0.740833
 20
3.171389
 30
0.0
 10
0.582083
 20
3.736934
 30
0.0
 10
0.112448
 20
4.057736
 30
0.0
 10
0.112448
 20
4.973858
 30
0.0
 10
1.286536
 20
4.600139
 30
0.0
 10
1.759479
 20
3.485587
 30
0.0
 10
1.759479
 20
1.613663
 30
0.0
 10
1.567656
 20
0.869500
 30
0.0
 10
2.090208
 20
0.472639
 30
0.0
  0
LWPOLYLINE
  5
125
100
AcDbEntity
  8
Q
 62
7
100
AcDbPolyline
 90
13
 70
0
 10
-0.413411
 20
0.125364
 30
0.0
 10
-1.587500
 20
0.495781
 30
0.0
 10
-2.063750
 20
1.613663
 30
0.0
 10
-2.063750
 20
3.485587
 30
0.0
 10
-1.587500
 20
4.600139
 30
0.0
 10
-0.413411
 20
4.973858
 30
0.0
 10
-0.413411
 20
4.057736
 30
0.0
 10
-0.883047
 20
3.736934
 30
0.0
 10
-1.041797
 20
3.171389
 30
0.0
 10
-1.041797
 20
2.046903
 30
0.0
 10
-0.886354
 20
1.478056
 30
0.0
 10
-0.413411
 20
1.160556
 30
0.0
 10
-0.413411
 20
0.125364
 30
0.0
  0
LWPOLYLINE
  5
126
100
AcDbEntity
  8
R
 62
7
100
AcDbPolyline
 90
16
 70
0
 10
1.650339
 20
2.787736
 30
0.0
 10
1.028568
 20
1.984080
 30
0.0
 10
1.630495
 20
0.115458
 30
0.0
 10
0.555625
 20
0.115458
 30
0.0
 10
0.066146
 20
1.822000
 30
0.0
 10
0.059531
 20
1.822000
 30
0.0
 10
0.059531
 20
2.718281
 30
0.0
 10
0.406797
 20
2.771198
 30
0.0
 10
0.575469
 20
3.049017
 30
0.0
 10
0.575469
 20
3.789851
 30
0.0
 10
0.410104
 20
4.070972
 30
0.0
 10
0.059531
 20
4.123889
 30
0.0
 10
0.059531
 20
4.957319
 30
0.0
 10
1.078177
 20
4.772125
 30
0.0
 10
1.650339
 20
3.991583
 30
0.0
 10
1.650339
 20
2.787736
 30
0.0
  0
LWPOLYLINE
  5
127
100
AcDbEntity
  8
R
 62
7
100
AcDbPolyline
 90
5
 70
0
 10
-0.555625
 20
0.115458
 30
0.0
 10
-1.577578
 20
0.115458
 30
0.0
 10
-1.577578
 20
4.973858
 30
0.0
 10
-0.555625
 20
4.973858
 30
0.0
 10
-0.555625
 20
0.115458
 30
0.0
  0
LWPOLYLINE
  5
128
100
AcDbEntity
  8
S
 62
7
100
AcDbPolyline
 90
8
 70
0
 10
1.938073
 20
3.558344
 30
0.0
 10
1.048411
 20
3.554957
 30
0.0
 10
0.856589
 20
3.922072
 30
0.0
 10
0.367109
 20
4.067586
 30
0.0
 10
0.367109
 20
4.993613
 30
0.0
 10
1.432057
 20
4.593450
 30
0.0
 10
1.938073
 20
3.558259
 30
0.0
 10
1.938073
 20
3.558344
 30
0.0
  0
LWPOLYLINE
  5
129
100
AcDbEntity
  8
S
 62
7
100
AcDbPolyline
 90
19
 70
0
 10
2.050521
 20
1.306069
 30
0.0
 10
1.623880
 20
0.482573
 30
0.0
 10
0.757370
 20
0.112156
 30
0.0
 10
0.363802
 20
0.102279
 30
0.0
 10
0.367109
 20
1.068015
 30
0.0
 10
0.701146
 20
1.137470
 30
0.0
 10
0.846667
 20
1.405355
 30
0.0
 10
0.171979
 20
2.043657
 30
0.0
 10
-1.084792
 20
2.622438
 30
0.0
 10
-1.759479
 20
3.690678
 30
0.0
 10
-1.316302
 20
4.656414
 30
0.0
 10
-0.287734
 20
4.993754
 30
0.0
 10
-0.287734
 20
4.047886
 30
0.0
 10
-0.491133
 20
3.943690
 30
0.0
 10
-0.575469
 20
3.727056
 30
0.0
 10
0.105833
 20
3.088754
 30
0.0
 10
1.369219
 20
2.443848
 30
0.0
 10
2.050521
 20
1.306126
 30
0.0
 10
2.050521
 20
1.306069
 30
0.0
  0
LWPOLYLINE
  5
12a
100
AcDbEntity
  8
S
 62
7
100
AcDbPolyline
 90
7
 70
0
 10
-0.287734
 20
0.112156
 30
0.0
 10
-1.435365
 20
0.509017
 30
0.0
 10
-2.000911
 20
1.557416
 30
0.0
 10
-0.823516
 20
1.557416
 30
0.0
 10
-0.677995
 20
1.200236
 30
0.0
 10
-0.287734
 20
1.054722
 30
0.0
 10
-0.287734
 20
0.112156
 30
0.0
  0
LWPOLYLINE
  5
12b
100
AcDbEntity
  8
T
 62
7
100
AcDbPolyline
 90
9
 70
0
 10
1.749557
 20
3.872542
 30
0.0
 10
0.638307
 20
3.872542
 30
0.0
 10
0.638307
 20
0.108826
 30
0.0
 10
-0.512630
 20
0.108826
 30
0.0
 10
-0.512630
 20
3.872542
 30
0.0
 10
-1.676797
 20
3.872542
 30
0.0
 10
-1.676797
 20
4.973858
 30
0.0
 10
1.749557
 20
4.973858
 30
0.0
 10
1.749557
 20
3.872542
 30
0.0
  0
LWPOLYLINE
  5
12c
100
AcDbEntity
  8
U
 62
7
100
AcDbPolyline
 90
8
 70
0
 10
1.838854
 20
1.365618
 30
0.0
 10
0.337344
 20
0.075750
 30
0.0
 10
0.337344
 20
1.054722
 30
0.0
 10
0.608542
 20
1.153952
 30
0.0
 10
0.760677
 20
1.365618
 30
0.0
 10
0.763984
 20
4.967254
 30
0.0
 10
1.838854
 20
4.967254
 30
0.0
 10
1.838854
 20
1.365618
 30
0.0
  0
LWPOLYLINE
  5
12d
100
AcDbEntity
  8
U
 62
7
100
AcDbPolyline
 90
9
 70
0
 10
-0.281120
 20
0.069146
 30
0.0
 10
-1.299766
 20
0.479243
 30
0.0
 10
-1.789245
 20
1.355684
 30
0.0
 10
-1.789245
 20
4.967254
 30
0.0
 10
-0.711068
 20
4.967254
 30
0.0
 10
-0.711068
 20
1.358986
 30
0.0
 10
-0.562240
 20
1.153952
 30
0.0
 10
-0.281120
 20
1.054722
 30
0.0
 10
-0.281120
 20
0.069146
 30
0.0
  0
LWPOLYLINE
  5
12e
100
AcDbEntity
  8
V
 62
7
100
AcDbPolyline
 90
5
 70
0
 10
2.086901
 20
4.967254
 30
0.0
 10
0.906198
 20
1.464819
 30
0.0
 10
0.357187
 20
3.062254
 30
0.0
 10
0.912812
 20
4.967254
 30
0.0
 10
2.086901
 20
4.967254
 30
0.0
  0
LWPOLYLINE
  5
12f
100
AcDbEntity
  8
V
 62
7
100
AcDbPolyline
 90
5
 70
0
 10
0.575469
 20
0.105524
 30
0.0
 10
-0.568854
 20
0.105524
 30
0.0
 10
-2.126589
 20
4.967254
 30
0.0
 10
-0.962422
 20
4.967254
 30
0.0
 10
0.575469
 20
0.105524
 30
0.0
  0
LWPOLYLINE
  5
130
100
AcDbEntity
  8
W
 62
7
100
AcDbPolyline
 90
5
 70
0
 10
2.619375
 20
4.973858
 30
0.0
 10
1.822318
 20
2.172576
 30
0.0
 10
1.236927
 20
4.031292
 30
0.0
 10
1.508125
 20
4.967254
 30
0.0
 10
2.619375
 20
4.973858
 30
0.0
  0
LWPOLYLINE
  5
131
100
AcDbEntity
  8
W
 62
7
100
AcDbPolyline
 90
7
 70
0
 10
1.531276
 20
0.942285
 30
0.0
 10
1.312995
 20
0.122062
 30
0.0
 10
0.595312
 20
0.122062
 30
0.0
 10
-0.694531
 20
4.514146
 30
0.0
 10
-0.443177
 20
4.967254
 30
0.0
 10
0.347266
 20
4.967254
 30
0.0
 10
1.531276
 20
0.942285
 30
0.0
  0
LWPOLYLINE
  5
132
100
AcDbEntity
  8
W
 62
7
100
AcDbPolyline
 90
6
 70
0
 10
-0.254661
 20
0.929020
 30
0.0
 10
-0.472943
 20
0.122034
 30
0.0
 10
-1.236927
 20
0.122034
 30
0.0
 10
-2.655755
 20
4.967225
 30
0.0
 10
-1.481667
 20
4.967225
 30
0.0
 10
-0.254661
 20
0.929020
 30
0.0
  0
LWPOLYLINE
  5
133
100
AcDbEntity
  8
X
 62
7
100
AcDbPolyline
 90
5
 70
0
 10
1.901693
 20
4.967254
 30
0.0
 10
0.909505
 20
3.273920
 30
0.0
 10
0.317500
 20
4.299177
 30
0.0
 10
0.674688
 20
4.967254
 30
0.0
 10
1.901693
 20
4.967254
 30
0.0
  0
LWPOLYLINE
  5
134
100
AcDbEntity
  8
X
 62
7
100
AcDbPolyline
 90
5
 70
0
 10
1.987682
 20
0.102222
 30
0.0
 10
0.711068
 20
0.102222
 30
0.0
 10
-1.931458
 20
4.967254
 30
0.0
 10
-0.661458
 20
4.967254
 30
0.0
 10
1.987682
 20
0.102222
 30
0.0
  0
LWPOLYLINE
  5
135
100
AcDbEntity
  8
X
 62
7
100
AcDbPolyline
 90
5
 70
0
 10
-0.314193
 20
0.879434
 30
0.0
 10
-0.767292
 20
0.102222
 30
0.0
 10
-1.987682
 20
0.102222
 30
0.0
 10
-0.942578
 20
2.036997
 30
0.0
 10
-0.314193
 20
0.879434
 30
0.0
  0
LWPOLYLINE
  5
136
100
AcDbEntity
  8
Y
 62
7
100
AcDbPolyline
 90
5
 70
0
 10
2.057135
 20
4.967254
 30
0.0
 10
0.988880
 20
2.711677
 30
0.0
 10
0.416719
 20
3.826229
 30
0.0
 10
0.863203
 20
4.967254
 30
0.0
 10
2.057135
 20
4.967254
 30
0.0
  0
LWPOLYLINE
  5
137
100
AcDbEntity
  8
Y
 62
7
100
AcDbPolyline
 90
7
 70
0
 10
0.790443
 20
0.115458
 30
0.0
 10
-0.396875
 20
0.115458
 30
0.0
 10
-0.396875
 20
1.752573
 30
0.0
 10
-1.984375
 20
4.967254
 30
0.0
 10
-0.727604
 20
4.967254
 30
0.0
 10
0.790443
 20
1.828632
 30
0.0
 10
0.790443
 20
0.115458
 30
0.0
  0
LWPOLYLINE
  5
138
100
AcDbEntity
  8
Z
 62
7
100
AcDbPolyline
 90
5
 70
0
 10
0.595313
 20
4.970556
 30
0.0
 10
-0.337344
 20
3.869240
 30
0.0
 10
-1.921536
 20
3.869240
 30
0.0
 10
-1.928151
 20
4.967254
 30
0.0
 10
0.595313
 20
4.970556
 30
0.0
  0
LWPOLYLINE
  5
139
100
AcDbEntity
  8
Z
 62
7
100
AcDbPolyline
 90
7
 70
0
 10
1.977760
 20
4.018056
 30
0.0
 10
-1.157552
 20
0.105524
 30
0.0
 10
-1.941380
 20
0.105524
 30
0.0
 10
-1.941380
 20
1.134083
 30
0.0
 10
1.336146
 20
4.967254
 30
0.0
 10
1.974453
 20
4.967254
 30
0.0
 10
1.977760
 20
4.018056
 30
0.0
  0
LWPOLYLINE
  5
13a
100
AcDbEntity
  8
Z
 62
7
100
AcDbPolyline
 90
5
 70
0
 10
1.888464
 20
0.102222
 30
0.0
 10
-0.400182
 20
0.102222
 30
0.0
 10
0.466328
 20
1.190330
 30
0.0
 10
1.888464
 20
1.190330
 30
0.0
 10
1.888464
 20
0.102222
 30
0.0
  0
LWPOLYLINE
  5
13b
100
AcDbEntity
  8
a_
 62
7
100
AcDbPolyline
 90
6
 70
0
 10
1.339453
 20
1.984080
 30
0.0
 10
1.336146
 20
1.054722
 30
0.0
 10
1.329531
 20
0.118760
 30
0.0
 10
0.456406
 20
0.118760
 30
0.0
 10
0.456406
 20
3.144916
 30
0.0
 10
1.339453
 20
1.984080
 30
0.0
  0
LWPOLYLINE
  5
13c
100
AcDbEntity
  8
a_
 62
7
100
AcDbPolyline
 90
5
 70
0
 10
0.076068
 20
2.301580
 30
0.0
 10
-0.760677
 20
2.076677
 30
0.0
 10
-1.240234
 20
2.754660
 30
0.0
 10
0.076068
 20
3.148247
 30
0.0
 10
0.076068
 20
2.301580
 30
0.0
  0
LWPOLYLINE
  5
13d
100
AcDbEntity
  8
a_
 62
7
100
AcDbPolyline
 90
13
 70
0
 10
0.076068
 20
0.135299
 30
0.0
 10
-0.228203
 20
0.098920
 30
0.0
 10
-0.942578
 20
0.320493
 30
0.0
 10
-1.293151
 20
0.952191
 30
0.0
 10
-0.945885
 20
1.587191
 30
0.0
 10
-0.228203
 20
1.805490
 30
0.0
 10
0.076068
 20
1.772413
 30
0.0
 10
0.076068
 20
1.071260
 30
0.0
 10
-0.009922
 20
1.074647
 30
0.0
 10
-0.195130
 20
1.038269
 30
0.0
 10
-0.307578
 20
0.905991
 30
0.0
 10
0.076068
 20
0.743911
 30
0.0
 10
0.076068
 20
0.135299
 30
0.0
  0
LWPOLYLINE
  5
13e
100
AcDbEntity
  8
b_
 62
7
100
AcDbPolyline
 90
16
 70
0
 10
1.494896
 20
1.607031
 30
0.0
 10
1.170781
 20
0.565236
 30
0.0
 10
0.248047
 20
0.062542
 30
0.0
 10
0.052917
 20
0.082297
 30
0.0
 10
0.052917
 20
0.826433
 30
0.0
 10
0.188516
 20
0.780120
 30
0.0
 10
0.529167
 20
1.110856
 30
0.0
 10
0.618464
 20
1.633419
 30
0.0
 10
0.529167
 20
2.155953
 30
0.0
 10
0.188516
 20
2.489992
 30
0.0
 10
0.052917
 20
2.443707
 30
0.0
 10
0.052917
 20
3.131624
 30
0.0
 10
0.248047
 20
3.148275
 30
0.0
 10
1.174089
 20
2.645552
 30
0.0
 10
1.494896
 20
1.607059
 30
0.0
 10
1.494896
 20
1.607031
 30
0.0
  0
LWPOLYLINE
  5
13f
100
AcDbEntity
  8
b_
 62
7
100
AcDbPolyline
 90
5
 70
0
 10
-0.472943
 20
0.102222
 30
0.0
 10
-1.405599
 20
0.102222
 30
0.0
 10
-1.405599
 20
4.987094
 30
0.0
 10
-0.472943
 20
4.987094
 30
0.0
 10
-0.472943
 20
0.102222
 30
0.0
  0
LWPOLYLINE
  5
140
100
AcDbEntity
  8
c_
 62
7
100
AcDbPolyline
 90
5
 70
0
 10
1.352682
 20
2.400781
 30
0.0
 10
0.677995
 20
1.957608
 30
0.0
 10
0.377031
 20
2.377639
 30
0.0
 10
0.377031
 20
3.121774
 30
0.0
 10
1.352682
 20
2.400781
 30
0.0
  0
LWPOLYLINE
  5
141
100
AcDbEntity
  8
c_
 62
7
100
AcDbPolyline
 90
6
 70
0
 10
1.412214
 20
0.995202
 30
0.0
 10
1.021953
 20
0.411453
 30
0.0
 10
0.377031
 20
0.122062
 30
0.0
 10
0.377031
 20
0.856292
 30
0.0
 10
0.694531
 20
1.335844
 30
0.0
 10
1.412214
 20
0.995202
 30
0.0
  0
LWPOLYLINE
  5
142
100
AcDbEntity
  8
c_
 62
7
100
AcDbPolyline
 90
11
 70
0
 10
-0.224896
 20
0.118760
 30
0.0
 10
-1.020299
 20
0.533825
 30
0.0
 10
-1.336146
 20
1.368920
 30
0.0
 10
-1.336146
 20
1.874916
 30
0.0
 10
-1.020299
 20
2.708375
 30
0.0
 10
-0.224896
 20
3.125076
 30
0.0
 10
-0.224896
 20
2.380941
 30
0.0
 10
-0.522552
 20
1.987382
 30
0.0
 10
-0.555625
 20
1.478056
 30
0.0
 10
-0.224896
 20
0.852990
 30
0.0
 10
-0.224896
 20
0.118760
 30
0.0
  0
LWPOLYLINE
  5
143
100
AcDbEntity
  8
d_
 62
7
100
AcDbPolyline
 90
5
 70
0
 10
1.422135
 20
0.108826
 30
0.0
 10
0.509323
 20
0.108826
 30
0.0
 10
0.509323
 20
4.973858
 30
0.0
 10
1.422135
 20
4.973858
 30
0.0
 10
1.422135
 20
0.108826
 30
0.0
  0
LWPOLYLINE
  5
144
100
AcDbEntity
  8
d_
 62
7
100
AcDbPolyline
 90
15
 70
0
 10
0.145521
 20
0.089071
 30
0.0
 10
-0.046302
 20
0.069315
 30
0.0
 10
-0.972344
 20
0.572038
 30
0.0
 10
-1.293151
 20
1.613833
 30
0.0
 10
-0.972344
 20
2.652326
 30
0.0
 10
-0.046302
 20
3.155020
 30
0.0
 10
0.145521
 20
3.138369
 30
0.0
 10
0.145521
 20
2.450452
 30
0.0
 10
0.009922
 20
2.496765
 30
0.0
 10
-0.330729
 20
2.162727
 30
0.0
 10
-0.420026
 20
1.640164
 30
0.0
 10
-0.330729
 20
1.117630
 30
0.0
 10
0.009922
 20
0.786893
 30
0.0
 10
0.145521
 20
0.833178
 30
0.0
 10
0.145521
 20
0.089071
 30
0.0
  0
LWPOLYLINE
  5
145
100
AcDbEntity
  8
e_
 62
7
100
AcDbPolyline
 90
8
 70
0
 10
1.458516
 20
2.109754
 30
0.0
 10
0.095911
 20
1.230010
 30
0.0
 10
-0.089297
 20
1.504500
 30
0.0
 10
0.628385
 20
1.977448
 30
0.0
 10
0.330729
 20
2.377639
 30
0.0
 10
0.330729
 20
3.121774
 30
0.0
 10
1.028568
 20
2.774500
 30
0.0
 10
1.458516
 20
2.109754
 30
0.0
  0
LWPOLYLINE
  5
146
100
AcDbEntity
  8
e_
 62
7
100
AcDbPolyline
 90
6
 70
0
 10
1.365911
 20
0.995202
 30
0.0
 10
0.975651
 20
0.411453
 30
0.0
 10
0.330729
 20
0.122062
 30
0.0
 10
0.330729
 20
0.856292
 30
0.0
 10
0.648229
 20
1.335844
 30
0.0
 10
1.365911
 20
0.995202
 30
0.0
  0
LWPOLYLINE
  5
147
100
AcDbEntity
  8
e_
 62
7
100
AcDbPolyline
 90
11
 70
0
 10
-0.271198
 20
0.118760
 30
0.0
 10
-1.066602
 20
0.533825
 30
0.0
 10
-1.382448
 20
1.368920
 30
0.0
 10
-1.382448
 20
1.874916
 30
0.0
 10
-1.066602
 20
2.708375
 30
0.0
 10
-0.271198
 20
3.125076
 30
0.0
 10
-0.271198
 20
2.380941
 30
0.0
 10
-0.568854
 20
1.987382
 30
0.0
 10
-0.601927
 20
1.478056
 30
0.0
 10
-0.271198
 20
0.852990
 30
0.0
 10
-0.271198
 20
0.118760
 30
0.0
  0
LWPOLYLINE
  5
148
100
AcDbEntity
  8
f_
 62
7
100
AcDbPolyline
 90
15
 70
0
 10
0.972344
 20
4.438087
 30
0.0
 10
0.668073
 20
3.902288
 30
0.0
 10
0.393568
 20
3.984979
 30
0.0
 10
0.135599
 20
3.898986
 30
0.0
 10
-0.009922
 20
3.687319
 30
0.0
 10
-0.009922
 20
2.903504
 30
0.0
 10
0.737526
 20
2.903504
 30
0.0
 10
0.737526
 20
2.056837
 30
0.0
 10
-0.009922
 20
2.056837
 30
0.0
 10
-0.009922
 20
0.108826
 30
0.0
 10
-0.810286
 20
0.108826
 30
0.0
 10
-0.820208
 20
4.027990
 30
0.0
 10
-0.547357
 20
4.689434
 30
0.0
 10
0.119063
 20
4.957319
 30
0.0
 10
0.972344
 20
4.438087
 30
0.0
  0
LWPOLYLINE
  5
149
100
AcDbEntity
  8
g_
 62
7
100
AcDbPolyline
 90
21
 70
0
 10
1.389062
 20
1.372222
 30
0.0
 10
1.071563
 20
0.525556
 30
0.0
 10
1.260078
 20
-0.211976
 30
0.0
 10
0.978958
 20
-1.101625
 30
0.0
 10
0.185208
 20
-1.524958
 30
0.0
 10
-0.049609
 20
-1.491882
 30
0.0
 10
-0.049609
 20
-0.718000
 30
0.0
 10
0.353880
 20
-0.413708
 30
0.0
 10
0.456406
 20
0.125364
 30
0.0
 10
0.257969
 20
0.082382
 30
0.0
 10
0.257969
 20
0.889368
 30
0.0
 10
0.582083
 20
1.230010
 30
0.0
 10
0.631693
 20
1.716166
 30
0.0
 10
0.257969
 20
2.318118
 30
0.0
 10
0.257969
 20
3.121774
 30
0.0
 10
0.618464
 20
3.019243
 30
0.0
 10
0.840052
 20
3.283826
 30
0.0
 10
1.273307
 20
2.916740
 30
0.0
 10
1.071563
 20
2.681903
 30
0.0
 10
1.359297
 20
2.063441
 30
0.0
 10
1.389062
 20
1.372222
 30
0.0
  0
LWPOLYLINE
  5
14a
100
AcDbEntity
  8
g_
 62
7
100
AcDbPolyline
 90
11
 70
0
 10
-0.214974
 20
0.085684
 30
0.0
 10
-1.000456
 20
0.525556
 30
0.0
 10
-1.309687
 20
1.372222
 30
0.0
 10
-1.309687
 20
1.831934
 30
0.0
 10
-1.000456
 20
2.676936
 30
0.0
 10
-0.214974
 20
3.118472
 30
0.0
 10
-0.214974
 20
2.301580
 30
0.0
 10
-0.515938
 20
1.957608
 30
0.0
 10
-0.555625
 20
1.487990
 30
0.0
 10
-0.214974
 20
0.902576
 30
0.0
 10
-0.214974
 20
0.085684
 30
0.0
  0
LWPOLYLINE
  5
14b
100
AcDbEntity
  8
h_
 62
7
100
AcDbPolyline
 90
9
 70
0
 10
1.415521
 20
0.102222
 30
0.0
 10
0.572161
 20
0.102222
 30
0.0
 10
0.562240
 20
1.762479
 30
0.0
 10
0.105833
 20
2.509916
 30
0.0
 10
0.105833
 20
3.052319
 30
0.0
 10
0.608542
 20
3.105236
 30
0.0
 10
1.180703
 20
2.868762
 30
0.0
 10
1.415521
 20
2.294948
 30
0.0
 10
1.415521
 20
0.102222
 30
0.0
  0
LWPOLYLINE
  5
14c
100
AcDbEntity
  8
h_
 62
7
100
AcDbPolyline
 90
5
 70
0
 10
-0.406797
 20
0.108713
 30
0.0
 10
-1.319609
 20
0.108713
 30
0.0
 10
-1.319609
 20
4.967141
 30
0.0
 10
-0.406797
 20
4.967141
 30
0.0
 10
-0.406797
 20
0.108713
 30
0.0
  0
LWPOLYLINE
  5
14d
100
AcDbEntity
  8
i_
 62
7
100
AcDbPolyline
 90
9
 70
0
 10
0.466328
 20
4.156965
 30
0.0
 10
0.325768
 20
3.821262
 30
0.0
 10
-0.009922
 20
3.680715
 30
0.0
 10
-0.343958
 20
3.822927
 30
0.0
 10
-0.486172
 20
4.156965
 30
0.0
 10
-0.347266
 20
4.486036
 30
0.0
 10
-0.009922
 20
4.619979
 30
0.0
 10
0.327422
 20
4.486036
 30
0.0
 10
0.466328
 20
4.156965
 30
0.0
  0
LWPOLYLINE
  5
14e
100
AcDbEntity
  8
i_
 62
7
100
AcDbPolyline
 90
5
 70
0
 10
0.436562
 20
0.105524
 30
0.0
 10
-0.443177
 20
0.105524
 30
0.0
 10
-0.443177
 20
3.191229
 30
0.0
 10
0.436562
 20
3.191229
 30
0.0
 10
0.436562
 20
0.105524
 30
0.0
  0
LWPOLYLINE
  5
14f
100
AcDbEntity
  8
j_
 62
7
100
AcDbPolyline
 90
9
 70
0
 10
0.654844
 20
4.077576
 30
0.0
 10
0.515937
 20
3.750170
 30
0.0
 10
0.181901
 20
3.617864
 30
0.0
 10
-0.152135
 20
3.750170
 30
0.0
 10
-0.291042
 20
4.077576
 30
0.0
 10
-0.152135
 20
4.403345
 30
0.0
 10
0.181901
 20
4.537288
 30
0.0
 10
0.515937
 20
4.405010
 30
0.0
 10
0.654844
 20
4.077576
 30
0.0
  0
LWPOLYLINE
  5
150
100
AcDbEntity
  8
j_
 62
7
100
AcDbPolyline
 90
8
 70
0
 10
0.615156
 20
-0.185503
 30
0.0
 10
-0.420026
 20
-0.992490
 30
0.0
 10
-0.697839
 20
-0.942875
 30
0.0
 10
-0.697839
 20
-0.400500
 30
0.0
 10
-0.234818
 20
0.346965
 30
0.0
 10
-0.234818
 20
3.138312
 30
0.0
 10
0.611849
 20
3.138312
 30
0.0
 10
0.615156
 20
-0.185503
 30
0.0
  0
LWPOLYLINE
  5
151
100
AcDbEntity
  8
k_
 62
7
100
AcDbPolyline
 90
8
 70
0
 10
1.683411
 20
0.098920
 30
0.0
 10
0.625078
 20
0.098920
 30
0.0
 10
-0.138906
 20
1.610333
 30
0.0
 10
-0.138906
 20
2.308184
 30
0.0
 10
0.479557
 20
3.356583
 30
0.0
 10
1.521354
 20
3.356583
 30
0.0
 10
0.754062
 20
2.109754
 30
0.0
 10
1.683411
 20
0.098920
 30
0.0
  0
LWPOLYLINE
  5
152
100
AcDbEntity
  8
k_
 62
7
100
AcDbPolyline
 90
5
 70
0
 10
-0.757370
 20
0.105411
 30
0.0
 10
-1.633802
 20
0.105411
 30
0.0
 10
-1.633802
 20
4.983679
 30
0.0
 10
-0.757370
 20
4.983679
 30
0.0
 10
-0.757370
 20
0.105411
 30
0.0
  0
LWPOLYLINE
  5
153
100
AcDbEntity
  8
l_
 62
7
100
AcDbPolyline
 90
5
 70
0
 10
0.446484
 20
0.098920
 30
0.0
 10
-0.466328
 20
0.098920
 30
0.0
 10
-0.466328
 20
4.957319
 30
0.0
 10
0.446484
 20
4.957319
 30
0.0
 10
0.446484
 20
0.098920
 30
0.0
  0
LWPOLYLINE
  5
154
100
AcDbEntity
  8
m_
 62
7
100
AcDbPolyline
 90
9
 70
0
 10
2.219193
 20
0.102222
 30
0.0
 10
1.392370
 20
0.102222
 30
0.0
 10
1.392370
 20
1.838538
 30
0.0
 10
0.978958
 20
2.450396
 30
0.0
 10
0.978958
 20
3.105236
 30
0.0
 10
1.468437
 20
3.128378
 30
0.0
 10
1.990990
 20
2.933222
 30
0.0
 10
2.219193
 20
2.430527
 30
0.0
 10
2.219193
 20
0.102222
 30
0.0
  0
LWPOLYLINE
  5
155
100
AcDbEntity
  8
m_
 62
7
100
AcDbPolyline
 90
9
 70
0
 10
0.529167
 20
0.105609
 30
0.0
 10
-0.297656
 20
0.105609
 30
0.0
 10
-0.297656
 20
1.898172
 30
0.0
 10
-0.707760
 20
2.457084
 30
0.0
 10
-0.707760
 20
3.118557
 30
0.0
 10
-0.611849
 20
3.128435
 30
0.0
 10
0.145521
 20
3.029205
 30
0.0
 10
0.529167
 20
2.440518
 30
0.0
 10
0.529167
 20
0.105609
 30
0.0
  0
LWPOLYLINE
  5
156
100
AcDbEntity
  8
m_
 62
7
100
AcDbPolyline
 90
5
 70
0
 10
-1.256771
 20
0.105609
 30
0.0
 10
-2.186120
 20
0.105609
 30
0.0
 10
-2.186120
 20
3.138397
 30
0.0
 10
-1.256771
 20
3.138397
 30
0.0
 10
-1.256771
 20
0.105609
 30
0.0
  0
LWPOLYLINE
  5
157
100
AcDbEntity
  8
n_
 62
7
100
AcDbPolyline
 90
9
 70
0
 10
1.415521
 20
0.105524
 30
0.0
 10
0.588698
 20
0.105524
 30
0.0
 10
0.588698
 20
1.898087
 30
0.0
 10
0.178594
 20
2.457000
 30
0.0
 10
0.178594
 20
3.118472
 30
0.0
 10
0.274505
 20
3.128350
 30
0.0
 10
1.031875
 20
3.029121
 30
0.0
 10
1.415521
 20
2.440433
 30
0.0
 10
1.415521
 20
0.105524
 30
0.0
  0
LWPOLYLINE
  5
158
100
AcDbEntity
  8
n_
 62
7
100
AcDbPolyline
 90
5
 70
0
 10
-0.370417
 20
0.105524
 30
0.0
 10
-1.299766
 20
0.105524
 30
0.0
 10
-1.299766
 20
3.138312
 30
0.0
 10
-0.370417
 20
3.138312
 30
0.0
 10
-0.370417
 20
0.105524
 30
0.0
  0
LWPOLYLINE
  5
159
100
AcDbEntity
  8
o_
 62
7
100
AcDbPolyline
 90
12
 70
0
 10
1.385755
 20
1.355684
 30
0.0
 10
1.068255
 20
0.505715
 30
0.0
 10
0.264583
 20
0.085684
 30
0.0
 10
0.248047
 20
0.836452
 30
0.0
 10
0.264583
 20
0.836452
 30
0.0
 10
0.558932
 20
1.230010
 30
0.0
 10
0.592005
 20
1.745941
 30
0.0
 10
0.264583
 20
2.371035
 30
0.0
 10
0.264583
 20
3.138312
 30
0.0
 10
1.069909
 20
2.711677
 30
0.0
 10
1.385755
 20
1.865010
 30
0.0
 10
1.385755
 20
1.355684
 30
0.0
  0
LWPOLYLINE
  5
15a
100
AcDbEntity
  8
o_
 62
7
100
AcDbPolyline
 90
14
 70
0
 10
-0.221589
 20
0.833121
 30
0.0
 10
-0.234818
 20
0.085684
 30
0.0
 10
-1.038490
 20
0.505715
 30
0.0
 10
-1.355990
 20
1.355684
 30
0.0
 10
-1.355990
 20
1.865010
 30
0.0
 10
-1.040143
 20
2.711677
 30
0.0
 10
-0.234818
 20
3.138312
 30
0.0
 10
-0.234818
 20
2.371035
 30
0.0
 10
-0.532474
 20
1.974146
 30
0.0
 10
-0.565547
 20
1.461517
 30
0.0
 10
-0.472943
 20
1.097705
 30
0.0
 10
-0.257969
 20
0.823215
 30
0.0
 10
-0.221589
 20
0.833093
 30
0.0
 10
-0.221589
 20
0.833121
 30
0.0
  0
LWPOLYLINE
  5
15b
100
AcDbEntity
  8
p_
 62
7
100
AcDbPolyline
 90
16
 70
0
 10
1.422135
 20
1.643410
 30
0.0
 10
1.101328
 20
0.604916
 30
0.0
 10
0.175286
 20
0.102222
 30
0.0
 10
-0.016536
 20
0.121978
 30
0.0
 10
-0.016536
 20
0.806592
 30
0.0
 10
0.119062
 20
0.760280
 30
0.0
 10
0.456406
 20
1.094318
 30
0.0
 10
0.545703
 20
1.616881
 30
0.0
 10
0.456406
 20
2.139415
 30
0.0
 10
0.119062
 20
2.470151
 30
0.0
 10
-0.016536
 20
2.423867
 30
0.0
 10
-0.016536
 20
3.168002
 30
0.0
 10
0.175286
 20
3.187758
 30
0.0
 10
1.098021
 20
2.685035
 30
0.0
 10
1.422135
 20
1.643240
 30
0.0
 10
1.422135
 20
1.643410
 30
0.0
  0
LWPOLYLINE
  5
15c
100
AcDbEntity
  8
p_
 62
7
100
AcDbPolyline
 90
5
 70
0
 10
-0.383646
 20
-1.035500
 30
0.0
 10
-1.293151
 20
-1.035500
 30
0.0
 10
-1.293151
 20
3.148247
 30
0.0
 10
-0.383646
 20
3.148247
 30
0.0
 10
-0.383646
 20
-1.035500
 30
0.0
  0
LWPOLYLINE
  5
15d
100
AcDbEntity
  8
q_
 62
7
100
AcDbPolyline
 90
5
 70
0
 10
1.398984
 20
-1.035500
 30
0.0
 10
0.486172
 20
-1.035500
 30
0.0
 10
0.486172
 20
3.148247
 30
0.0
 10
1.398984
 20
3.148247
 30
0.0
 10
1.398984
 20
-1.035500
 30
0.0
  0
LWPOLYLINE
  5
15e
100
AcDbEntity
  8
q_
 62
7
100
AcDbPolyline
 90
15
 70
0
 10
0.122370
 20
0.122062
 30
0.0
 10
-0.069453
 20
0.102307
 30
0.0
 10
-0.995495
 20
0.601699
 30
0.0
 10
-1.316302
 20
1.643494
 30
0.0
 10
-0.995495
 20
2.685289
 30
0.0
 10
-0.069453
 20
3.188012
 30
0.0
 10
0.122370
 20
3.168256
 30
0.0
 10
0.122370
 20
2.424121
 30
0.0
 10
-0.016536
 20
2.470405
 30
0.0
 10
-0.353880
 20
2.136367
 30
0.0
 10
-0.443177
 20
1.617135
 30
0.0
 10
-0.353880
 20
1.094572
 30
0.0
 10
-0.016536
 20
0.760534
 30
0.0
 10
0.122370
 20
0.806846
 30
0.0
 10
0.122370
 20
0.122062
 30
0.0
  0
LWPOLYLINE
  5
15f
100
AcDbEntity
  8
r_
 62
7
100
AcDbPolyline
 90
8
 70
0
 10
1.326224
 20
2.526455
 30
0.0
 10
0.191823
 20
1.828632
 30
0.0
 10
0.105833
 20
2.457000
 30
0.0
 10
0.492786
 20
3.108538
 30
0.0
 10
1.246849
 20
3.399594
 30
0.0
 10
1.299766
 20
3.144916
 30
0.0
 10
1.326224
 20
2.886965
 30
0.0
 10
1.326224
 20
2.526455
 30
0.0
  0
LWPOLYLINE
  5
160
100
AcDbEntity
  8
r_
 62
7
100
AcDbPolyline
 90
5
 70
0
 10
-0.314193
 20
0.105524
 30
0.0
 10
-1.243542
 20
0.105524
 30
0.0
 10
-1.243542
 20
3.138312
 30
0.0
 10
-0.314193
 20
3.138312
 30
0.0
 10
-0.314193
 20
0.105524
 30
0.0
  0
LWPOLYLINE
  5
161
100
AcDbEntity
  8
s_
 62
7
100
AcDbPolyline
 90
7
 70
0
 10
1.303073
 20
2.146132
 30
0.0
 10
0.750755
 20
2.146132
 30
0.0
 10
0.403490
 20
2.493406
 30
0.0
 10
0.162057
 20
2.870427
 30
0.0
 10
0.224896
 20
3.197833
 30
0.0
 10
0.959115
 20
2.877031
 30
0.0
 10
1.303073
 20
2.146132
 30
0.0
  0
LWPOLYLINE
  5
162
100
AcDbEntity
  8
s_
 62
7
100
AcDbPolyline
 90
13
 70
0
 10
1.395677
 20
1.008410
 30
0.0
 10
1.081484
 20
0.360202
 30
0.0
 10
0.380339
 20
0.125364
 30
0.0
 10
0.509323
 20
0.585076
 30
0.0
 10
0.049609
 20
1.203538
 30
0.0
 10
-0.800365
 20
1.554114
 30
0.0
 10
-1.260078
 20
2.265202
 30
0.0
 10
-0.982266
 20
2.873729
 30
0.0
 10
-0.350573
 20
3.131708
 30
0.0
 10
-0.449792
 20
2.761292
 30
0.0
 10
0.029766
 20
2.132896
 30
0.0
 10
0.916120
 20
1.696326
 30
0.0
 10
1.395677
 20
1.008410
 30
0.0
  0
LWPOLYLINE
  5
163
100
AcDbEntity
  8
s_
 62
7
100
AcDbPolyline
 90
6
 70
0
 10
-0.155443
 20
0.548698
 30
0.0
 10
-0.264583
 20
0.115458
 30
0.0
 10
-1.336146
 20
0.641323
 30
0.0
 10
-0.939271
 20
1.074562
 30
0.0
 10
-0.456406
 20
0.902576
 30
0.0
 10
-0.155443
 20
0.548698
 30
0.0
  0
LWPOLYLINE
  5
164
100
AcDbEntity
  8
t_
 62
7
100
AcDbPolyline
 90
18
 70
0
 10
0.886354
 20
2.430556
 30
0.0
 10
0.436562
 20
2.430556
 30
0.0
 10
0.436562
 20
1.110941
 30
0.0
 10
0.754062
 20
0.793441
 30
0.0
 10
0.754062
 20
0.082382
 30
0.0
 10
0.635000
 20
0.075609
 30
0.0
 10
-0.057878
 20
0.338555
 30
0.0
 10
-0.363802
 20
1.018203
 30
0.0
 10
-0.380339
 20
1.018203
 30
0.0
 10
-0.380339
 20
2.430414
 30
0.0
 10
-0.883047
 20
2.430414
 30
0.0
 10
-0.883047
 20
3.171248
 30
0.0
 10
-0.380339
 20
3.171248
 30
0.0
 10
-0.380339
 20
4.173362
 30
0.0
 10
0.436562
 20
4.656216
 30
0.0
 10
0.436562
 20
3.171248
 30
0.0
 10
0.886354
 20
3.171248
 30
0.0
 10
0.886354
 20
2.430556
 30
0.0
  0
LWPOLYLINE
  5
165
100
AcDbEntity
  8
u_
 62
7
100
AcDbPolyline
 90
5
 70
0
 10
1.415521
 20
0.105524
 30
0.0
 10
0.482865
 20
0.105524
 30
0.0
 10
0.482865
 20
3.138312
 30
0.0
 10
1.415521
 20
3.138312
 30
0.0
 10
1.415521
 20
0.105524
 30
0.0
  0
LWPOLYLINE
  5
166
100
AcDbEntity
  8
u_
 62
7
100
AcDbPolyline
 90
9
 70
0
 10
-0.062839
 20
0.122175
 30
0.0
 10
-0.158750
 20
0.112298
 30
0.0
 10
-0.916120
 20
0.211499
 30
0.0
 10
-1.299766
 20
0.803516
 30
0.0
 10
-1.299766
 20
3.138454
 30
0.0
 10
-0.472943
 20
3.138454
 30
0.0
 10
-0.476250
 20
1.342589
 30
0.0
 10
-0.062839
 20
0.783676
 30
0.0
 10
-0.062839
 20
0.122175
 30
0.0
  0
LWPOLYLINE
  5
167
100
AcDbEntity
  8
v_
 62
7
100
AcDbPolyline
 90
5
 70
0
 10
1.617266
 20
3.138312
 30
0.0
 10
0.704453
 20
1.114243
 30
0.0
 10
0.231510
 20
2.238729
 30
0.0
 10
0.615156
 20
3.138312
 30
0.0
 10
1.617266
 20
3.138312
 30
0.0
  0
LWPOLYLINE
  5
168
100
AcDbEntity
  8
v_
 62
7
100
AcDbPolyline
 90
5
 70
0
 10
0.486172
 20
0.105524
 30
0.0
 10
-0.423333
 20
0.105524
 30
0.0
 10
-1.554427
 20
3.138312
 30
0.0
 10
-0.661458
 20
3.138312
 30
0.0
 10
0.486172
 20
0.105524
 30
0.0
  0
LWPOLYLINE
  5
169
100
AcDbEntity
  8
w_
 62
7
100
AcDbPolyline
 90
5
 70
0
 10
2.447396
 20
3.154851
 30
0.0
 10
1.518047
 20
1.464819
 30
0.0
 10
1.045104
 20
2.384243
 30
0.0
 10
1.481667
 20
3.154851
 30
0.0
 10
2.447396
 20
3.154851
 30
0.0
  0
LWPOLYLINE
  5
16a
100
AcDbEntity
  8
w_
 62
7
100
AcDbPolyline
 90
8
 70
0
 10
1.332839
 20
1.081166
 30
0.0
 10
0.863203
 20
0.105524
 30
0.0
 10
0.277812
 20
0.105524
 30
0.0
 10
-0.797057
 20
3.138312
 30
0.0
 10
0.224896
 20
3.138312
 30
0.0
 10
0.661458
 20
1.795556
 30
0.0
 10
0.823516
 20
2.033666
 30
0.0
 10
1.332839
 20
1.081166
 30
0.0
  0
LWPOLYLINE
  5
16b
100
AcDbEntity
  8
w_
 62
7
100
AcDbPolyline
 90
8
 70
0
 10
-0.469635
 20
1.114243
 30
0.0
 10
-0.959115
 20
0.118760
 30
0.0
 10
-1.508125
 20
0.118760
 30
0.0
 10
-2.510234
 20
3.138312
 30
0.0
 10
-1.561042
 20
3.138312
 30
0.0
 10
-1.124479
 20
1.924531
 30
0.0
 10
-0.889661
 20
2.275108
 30
0.0
 10
-0.469635
 20
1.114243
 30
0.0
  0
LWPOLYLINE
  5
16c
100
AcDbEntity
  8
x_
 62
7
100
AcDbPolyline
 90
5
 70
0
 10
1.726406
 20
3.138312
 30
0.0
 10
0.853281
 20
1.907993
 30
0.0
 10
0.287734
 20
2.695139
 30
0.0
 10
0.618464
 20
3.138312
 30
0.0
 10
1.726406
 20
3.138312
 30
0.0
  0
LWPOLYLINE
  5
16d
100
AcDbEntity
  8
x_
 62
7
100
AcDbPolyline
 90
5
 70
0
 10
1.455208
 20
0.105524
 30
0.0
 10
0.416719
 20
0.105524
 30
0.0
 10
-1.607344
 20
3.154851
 30
0.0
 10
-0.496094
 20
3.154851
 30
0.0
 10
1.455208
 20
0.105524
 30
0.0
  0
LWPOLYLINE
  5
16e
100
AcDbEntity
  8
x_
 62
7
100
AcDbPolyline
 90
5
 70
0
 10
-0.386953
 20
0.436260
 30
0.0
 10
-0.585391
 20
0.118760
 30
0.0
 10
-1.716484
 20
0.118760
 30
0.0
 10
-0.932656
 20
1.263087
 30
0.0
 10
-0.386953
 20
0.436260
 30
0.0
  0
LWPOLYLINE
  5
16f
100
AcDbEntity
  8
y_
 62
7
100
AcDbPolyline
 90
5
 70
0
 10
1.809089
 20
3.138312
 30
0.0
 10
-0.046302
 20
-1.690340
 30
0.0
 10
-1.031875
 20
-1.690340
 30
0.0
 10
0.843359
 20
3.138312
 30
0.0
 10
1.809089
 20
3.138312
 30
0.0
  0
LWPOLYLINE
  5
170
100
AcDbEntity
  8
y_
 62
7
100
AcDbPolyline
 90
5
 70
0
 10
-0.138906
 20
2.013826
 30
0.0
 10
-0.558932
 20
0.912510
 30
0.0
 10
-1.742943
 20
3.138312
 30
0.0
 10
-0.704453
 20
3.138312
 30
0.0
 10
-0.138906
 20
2.013826
 30
0.0
  0
LWPOLYLINE
  5
171
100
AcDbEntity
  8
z_
 62
7
100
AcDbPolyline
 90
5
 70
0
 10
-0.003307
 20
3.138312
 30
0.0
 10
-0.549010
 20
2.291646
 30
0.0
 10
-1.551120
 20
2.291646
 30
0.0
 10
-1.551120
 20
3.138312
 30
0.0
 10
-0.003307
 20
3.138312
 30
0.0
  0
LWPOLYLINE
  5
172
100
AcDbEntity
  8
z_
 62
7
100
AcDbPolyline
 90
5
 70
0
 10
1.637109
 20
3.138312
 30
0.0
 10
-0.492786
 20
0.118760
 30
0.0
 10
-1.551120
 20
0.118760
 30
0.0
 10
0.433255
 20
3.138312
 30
0.0
 10
1.637109
 20
3.138312
 30
0.0
  0
LWPOLYLINE
  5
173
100
AcDbEntity
  8
z_
 62
7
100
AcDbPolyline
 90
5
 70
0
 10
1.511432
 20
0.118760
 30
0.0
 10
-0.072760
 20
0.118760
 30
0.0
 10
0.545703
 20
0.932351
 30
0.0
 10
1.511432
 20
0.932351
 30
0.0
 10
1.511432
 20
0.118760
 30
0.0
  0
LWPOLYLINE
  5
174
100
AcDbEntity
  8
!
 62
7
100
AcDbPolyline
 90
5
 70
0
 10
0.532474
 20
5.010236
 30
0.0
 10
0.330729
 20
1.372222
 30
0.0
 10
-0.162057
 20
1.372222
 30
0.0
 10
-0.363802
 20
5.010236
 30
0.0
 10
0.532474
 20
5.010236
 30
0.0
  0
LWPOLYLINE
  5
175
100
AcDbEntity
  8
!
 62
7
100
AcDbPolyline
 90
9
 70
0
 10
0.558932
 20
0.509017
 30
0.0
 10
0.420026
 20
0.183248
 30
0.0
 10
0.085990
 20
0.049306
 30
0.0
 10
-0.251354
 20
0.181583
 30
0.0
 10
-0.390260
 20
0.509017
 30
0.0
 10
-0.249701
 20
0.834786
 30
0.0
 10
0.085990
 20
0.965427
 30
0.0
 10
0.420026
 20
0.833121
 30
0.0
 10
0.558932
 20
0.509017
 30
0.0
  0
LWPOLYLINE
  5
176
100
AcDbEntity
  8
@
 62
7
100
AcDbPolyline
 90
5
 70
0
 10
-0.036380
 20
2.893569
 30
0.0
 10
-0.750755
 20
2.701743
 30
0.0
 10
-1.177396
 20
3.293760
 30
0.0
 10
-0.036380
 20
3.624497
 30
0.0
 10
-0.036380
 20
2.893569
 30
0.0
  0
LWPOLYLINE
  5
177
100
AcDbEntity
  8
@
 62
7
100
AcDbPolyline
 90
25
 70
0
 10
2.434167
 20
2.420621
 30
0.0
 10
2.010833
 20
1.005108
 30
0.0
 10
0.297656
 20
1.005108
 30
0.0
 10
0.297656
 20
3.624497
 30
0.0
 10
0.866510
 20
3.373121
 30
0.0
 10
1.055026
 20
2.764594
 30
0.0
 10
1.055026
 20
1.428441
 30
0.0
 10
1.789245
 20
1.428441
 30
0.0
 10
2.030677
 20
2.420621
 30
0.0
 10
1.408906
 20
3.951903
 30
0.0
 10
-0.115755
 20
4.580299
 30
0.0
 10
-1.638763
 20
3.951903
 30
0.0
 10
-2.258880
 20
2.420621
 30
0.0
 10
-1.638763
 20
0.889368
 30
0.0
 10
-0.115755
 20
0.260972
 30
0.0
 10
1.263385
 20
0.766997
 30
0.0
 10
1.835547
 20
0.766997
 30
0.0
 10
0.960768
 20
0.093953
 30
0.0
 10
-0.115755
 20
-0.149125
 30
0.0
 10
-1.931458
 20
0.595010
 30
0.0
 10
-2.668984
 20
2.420621
 30
0.0
 10
-1.929805
 20
4.244595
 30
0.0
 10
-0.115755
 20
4.990396
 30
0.0
 10
1.696641
 20
4.242958
 30
0.0
 10
2.434167
 20
2.420621
 30
0.0
  0
LWPOLYLINE
  5
178
100
AcDbEntity
  8
@
 62
7
100
AcDbPolyline
 90
12
 70
0
 10
-0.023151
 20
1.828632
 30
0.0
 10
-0.367109
 20
1.689722
 30
0.0
 10
-0.238125
 20
1.560747
 30
0.0
 10
-0.036380
 20
1.547482
 30
0.0
 10
-0.036380
 20
1.008381
 30
0.0
 10
-0.291042
 20
0.985239
 30
0.0
 10
-0.916120
 20
1.177066
 30
0.0
 10
-1.227005
 20
1.726072
 30
0.0
 10
-0.922734
 20
2.285014
 30
0.0
 10
-0.291042
 20
2.470208
 30
0.0
 10
-0.026458
 20
2.430527
 30
0.0
 10
-0.023151
 20
1.828632
 30
0.0
  0
SPLINE
  5
179
100
AcDbEntity
  8
#
 62
7
100
AcDbSpline
 70
8
 71
3
 72
8
 73
4
 74
0
 40
0
 40
0
 40
0
 40
0
 40
1
 40
1
 40
1
 40
1
 10
0.502708
 20
1.898087
 30
0.0
 10
0.498296
 20
2.096517
 30
0.0
 10
0.490579
 20
2.490076
 30
0.0
 10
0.479557
 20
3.078792
 30
0.0
  0
LWPOLYLINE
  5
17a
100
AcDbEntity
  8
#
 62
7
100
AcDbPolyline
 90
29
 70
0
 10
2.248958
 20
1.316004
 30
0.0
 10
1.263385
 20
1.316004
 30
0.0
 10
1.236927
 20
0.125364
 30
0.0
 10
0.535781
 20
0.125364
 30
0.0
 10
0.515938
 20
1.316004
 30
0.0
 10
-0.635000
 20
1.316004
 30
0.0
 10
-0.658151
 20
0.125364
 30
0.0
 10
-1.359297
 20
0.125364
 30
0.0
 10
-1.382448
 20
1.316004
 30
0.0
 10
-2.252265
 20
1.316004
 30
0.0
 10
-2.252265
 20
1.898087
 30
0.0
 10
-1.395677
 20
1.898087
 30
0.0
 10
-1.418828
 20
3.078792
 30
0.0
 10
-2.255573
 20
3.078792
 30
0.0
 10
-2.255573
 20
3.631101
 30
0.0
 10
-1.428750
 20
3.631101
 30
0.0
 10
-1.455208
 20
4.990396
 30
0.0
 10
-0.565547
 20
4.990396
 30
0.0
 10
-0.592005
 20
3.631101
 30
0.0
 10
0.469636
 20
3.631101
 30
0.0
 10
0.443177
 20
4.987094
 30
0.0
 10
1.332839
 20
4.987094
 30
0.0
 10
1.309688
 20
3.631101
 30
0.0
 10
2.248959
 20
3.631101
 30
0.0
 10
2.248959
 20
3.078792
 30
0.0
 10
1.296459
 20
3.078792
 30
0.0
 10
1.273308
 20
1.898087
 30
0.0
 10
2.248959
 20
1.898087
 30
0.0
 10
2.248958
 20
1.316004
 30
0.0
  0
LWPOLYLINE
  5
17b
100
AcDbEntity
  8
#
 62
7
100
AcDbPolyline
 90
4
 70
0
 10
0.479557
 20
3.078792
 30
0.0
 10
-0.601927
 20
3.078792
 30
0.0
 10
-0.625078
 20
1.898087
 30
0.0
 10
0.502708
 20
1.898087
 30
0.0
  0
LWPOLYLINE
  5
17c
100
AcDbEntity
  8
$
 62
7
100
AcDbPolyline
 90
5
 70
0
 10
0.201745
 20
3.981677
 30
0.0
 10
-0.181901
 20
3.981677
 30
0.0
 10
-0.181901
 20
4.954017
 30
0.0
 10
0.201745
 20
4.954017
 30
0.0
 10
0.201745
 20
3.981677
 30
0.0
  0
LWPOLYLINE
  5
17d
100
AcDbEntity
  8
$
 62
7
100
AcDbPolyline
 90
7
 70
0
 10
0.992188
 20
3.055621
 30
0.0
 10
0.572161
 20
3.055621
 30
0.0
 10
0.238125
 20
3.297062
 30
0.0
 10
0.238125
 20
3.746868
 30
0.0
 10
0.754062
 20
3.558344
 30
0.0
 10
0.992188
 20
3.075490
 30
0.0
 10
0.992188
 20
3.055621
 30
0.0
  0
LWPOLYLINE
  5
17e
100
AcDbEntity
  8
$
 62
7
100
AcDbPolyline
 90
15
 70
0
 10
1.048411
 20
1.964240
 30
0.0
 10
0.744141
 20
1.501198
 30
0.0
 10
0.238125
 20
1.388760
 30
0.0
 10
0.238125
 20
1.851774
 30
0.0
 10
0.472943
 20
2.050205
 30
0.0
 10
0.145521
 20
2.321420
 30
0.0
 10
-0.459714
 20
2.599240
 30
0.0
 10
-0.787135
 20
3.118472
 30
0.0
 10
-0.575469
 20
3.581486
 30
0.0
 10
-0.082682
 20
3.746868
 30
0.0
 10
-0.082682
 20
3.290458
 30
0.0
 10
-0.218281
 20
3.135010
 30
0.0
 10
0.112448
 20
2.827416
 30
0.0
 10
0.720990
 20
2.519851
 30
0.0
 10
1.048411
 20
1.964240
 30
0.0
  0
LWPOLYLINE
  5
17f
100
AcDbEntity
  8
$
 62
7
100
AcDbPolyline
 90
8
 70
0
 10
-0.076068
 20
1.388760
 30
0.0
 10
-0.638307
 20
1.550812
 30
0.0
 10
-0.919427
 20
2.043601
 30
0.0
 10
-0.919427
 20
2.086583
 30
0.0
 10
-0.347266
 20
2.086583
 30
0.0
 10
-0.262930
 20
1.919592
 30
0.0
 10
-0.076068
 20
1.851774
 30
0.0
 10
-0.076068
 20
1.388760
 30
0.0
  0
LWPOLYLINE
  5
180
100
AcDbEntity
  8
$
 62
7
100
AcDbPolyline
 90
5
 70
0
 10
0.198437
 20
0.102222
 30
0.0
 10
-0.181901
 20
0.102222
 30
0.0
 10
-0.181901
 20
1.074562
 30
0.0
 10
0.198437
 20
1.074562
 30
0.0
 10
0.198437
 20
0.102222
 30
0.0
  0
LWPOLYLINE
  5
181
100
AcDbEntity
  8
%
 62
7
100
AcDbPolyline
 90
15
 70
0
 10
2.437474
 20
0.846358
 30
0.0
 10
2.227461
 20
0.308922
 30
0.0
 10
1.706563
 20
0.085684
 30
0.0
 10
1.600729
 20
0.085684
 30
0.0
 10
1.600729
 20
0.621455
 30
0.0
 10
1.835547
 20
0.783535
 30
0.0
 10
1.918229
 20
1.071260
 30
0.0
 10
1.918229
 20
1.646740
 30
0.0
 10
1.832240
 20
1.936102
 30
0.0
 10
1.600729
 20
2.099819
 30
0.0
 10
1.600729
 20
2.566163
 30
0.0
 10
1.706563
 20
2.566163
 30
0.0
 10
2.224154
 20
2.337958
 30
0.0
 10
2.437474
 20
1.802160
 30
0.0
 10
2.437474
 20
0.846358
 30
0.0
  0
LWPOLYLINE
  5
182
100
AcDbEntity
  8
%
 62
7
100
AcDbPolyline
 90
14
 70
0
 10
-0.453099
 20
3.240844
 30
0.0
 10
-0.661458
 20
2.703408
 30
0.0
 10
-1.180703
 20
2.480170
 30
0.0
 10
-1.286536
 20
2.480170
 30
0.0
 10
-1.286536
 20
3.015941
 30
0.0
 10
-1.051719
 20
3.177993
 30
0.0
 10
-0.972344
 20
3.465747
 30
0.0
 10
-0.972344
 20
4.037896
 30
0.0
 10
-1.286536
 20
4.491004
 30
0.0
 10
-1.286536
 20
4.957319
 30
0.0
 10
-1.180703
 20
4.957319
 30
0.0
 10
-0.664766
 20
4.730780
 30
0.0
 10
-0.453099
 20
4.196646
 30
0.0
 10
-0.453099
 20
3.240844
 30
0.0
  0
LWPOLYLINE
  5
183
100
AcDbEntity
  8
%
 62
7
100
AcDbPolyline
 90
5
 70
0
 10
1.815703
 20
4.811806
 30
0.0
 10
-1.402292
 20
0.112156
 30
0.0
 10
-1.805781
 20
0.389948
 30
0.0
 10
1.412214
 20
5.089625
 30
0.0
 10
1.815703
 20
4.811806
 30
0.0
  0
LWPOLYLINE
  5
184
100
AcDbEntity
  8
%
 62
7
100
AcDbPolyline
 90
14
 70
0
 10
1.329531
 20
0.085684
 30
0.0
 10
1.223698
 20
0.085684
 30
0.0
 10
0.696185
 20
0.307285
 30
0.0
 10
0.486172
 20
0.846358
 30
0.0
 10
0.486172
 20
1.802160
 30
0.0
 10
0.697839
 20
2.342926
 30
0.0
 10
1.223698
 20
2.566163
 30
0.0
 10
1.329531
 20
2.566163
 30
0.0
 10
1.329531
 20
2.099819
 30
0.0
 10
1.093060
 20
1.939432
 30
0.0
 10
1.002109
 20
1.646740
 30
0.0
 10
1.002109
 20
1.071260
 30
0.0
 10
1.329531
 20
0.614851
 30
0.0
 10
1.329531
 20
0.085684
 30
0.0
  0
LWPOLYLINE
  5
185
100
AcDbEntity
  8
%
 62
7
100
AcDbPolyline
 90
14
 70
0
 10
-1.557734
 20
2.480170
 30
0.0
 10
-1.663568
 20
2.480170
 30
0.0
 10
-2.191081
 20
2.701743
 30
0.0
 10
-2.404401
 20
3.240844
 30
0.0
 10
-2.404401
 20
4.196646
 30
0.0
 10
-2.191081
 20
4.735747
 30
0.0
 10
-1.663568
 20
4.957319
 30
0.0
 10
-1.557734
 20
4.957319
 30
0.0
 10
-1.557734
 20
4.491004
 30
0.0
 10
-1.795859
 20
4.322319
 30
0.0
 10
-1.881849
 20
4.037896
 30
0.0
 10
-1.881849
 20
3.465747
 30
0.0
 10
-1.557734
 20
3.006035
 30
0.0
 10
-1.557734
 20
2.480170
 30
0.0
  0
LWPOLYLINE
  5
186
100
AcDbEntity
  8
^
 62
7
100
AcDbPolyline
 90
7
 70
0
 10
1.147630
 20
3.789851
 30
0.0
 10
0.651536
 20
3.297062
 30
0.0
 10
-0.003307
 20
3.882448
 30
0.0
 10
-0.658151
 20
3.297062
 30
0.0
 10
-1.154245
 20
3.789851
 30
0.0
 10
-0.003307
 20
5.073087
 30
0.0
 10
1.147630
 20
3.789851
 30
0.0
  0
LWPOLYLINE
  5
187
100
AcDbEntity
  8
&
 62
7
100
AcDbPolyline
 90
14
 70
0
 10
2.093516
 20
0.105524
 30
0.0
 10
0.727604
 20
0.105524
 30
0.0
 10
-0.314193
 20
2.136198
 30
0.0
 10
-1.058333
 20
4.090812
 30
0.0
 10
-0.793750
 20
4.717543
 30
0.0
 10
-0.155443
 20
4.970556
 30
0.0
 10
0.481211
 20
4.715906
 30
0.0
 10
0.747448
 20
4.090812
 30
0.0
 10
0.446484
 20
3.432670
 30
0.0
 10
1.074870
 20
2.159368
 30
0.0
 10
1.604036
 20
2.013826
 30
0.0
 10
1.911615
 20
1.444979
 30
0.0
 10
1.613958
 20
1.074562
 30
0.0
 10
2.093516
 20
0.105524
 30
0.0
  0
LWPOLYLINE
  5
188
100
AcDbEntity
  8
&
 62
7
100
AcDbPolyline
 90
7
 70
0
 10
-0.006615
 20
0.214660
 30
0.0
 10
-0.565547
 20
0.105524
 30
0.0
 10
-1.627188
 20
0.528858
 30
0.0
 10
-2.060443
 20
1.577285
 30
0.0
 10
-1.825625
 20
2.362766
 30
0.0
 10
-1.200547
 20
2.903504
 30
0.0
 10
-0.006615
 20
0.214660
 30
0.0
  0
LWPOLYLINE
  5
189
100
AcDbEntity
  8
*
 62
7
100
AcDbPolyline
 90
25
 70
0
 10
1.160859
 20
3.766708
 30
0.0
 10
0.429948
 20
3.766708
 30
0.0
 10
0.945885
 20
3.250750
 30
0.0
 10
0.734219
 20
3.035781
 30
0.0
 10
0.218281
 20
3.555042
 30
0.0
 10
0.218281
 20
2.824114
 30
0.0
 10
-0.082682
 20
2.824114
 30
0.0
 10
-0.082682
 20
3.555042
 30
0.0
 10
-0.598620
 20
3.035781
 30
0.0
 10
-0.810286
 20
3.250750
 30
0.0
 10
-0.294349
 20
3.766708
 30
0.0
 10
-1.025260
 20
3.766708
 30
0.0
 10
-1.025260
 20
4.067670
 30
0.0
 10
-0.294349
 20
4.067670
 30
0.0
 10
-0.810286
 20
4.583601
 30
0.0
 10
-0.598620
 20
4.795267
 30
0.0
 10
-0.082682
 20
4.279337
 30
0.0
 10
-0.082682
 20
5.010236
 30
0.0
 10
0.218281
 20
5.010236
 30
0.0
 10
0.218281
 20
4.279337
 30
0.0
 10
0.734219
 20
4.795267
 30
0.0
 10
0.945885
 20
4.583601
 30
0.0
 10
0.429948
 20
4.067670
 30
0.0
 10
1.160859
 20
4.067670
 30
0.0
 10
1.160859
 20
3.766708
 30
0.0
  0
LWPOLYLINE
  5
18a
100
AcDbEntity
  8
(
 62
7
100
AcDbPolyline
 90
11
 70
0
 10
0.519245
 20
-0.089604
 30
0.0
 10
-0.079375
 20
0.148535
 30
0.0
 10
-0.317500
 20
0.747156
 30
0.0
 10
-0.317500
 20
4.348792
 30
0.0
 10
-0.079375
 20
4.947413
 30
0.0
 10
0.519245
 20
5.185524
 30
0.0
 10
0.519245
 20
4.656358
 30
0.0
 10
0.095911
 20
4.024660
 30
0.0
 10
0.095911
 20
1.071260
 30
0.0
 10
0.519245
 20
0.439562
 30
0.0
 10
0.519245
 20
-0.089604
 30
0.0
  0
LWPOLYLINE
  5
18b
100
AcDbEntity
  8
)
 62
7
100
AcDbPolyline
 90
11
 70
0
 10
0.519245
 20
0.747156
 30
0.0
 10
0.281120
 20
0.148535
 30
0.0
 10
-0.317500
 20
-0.089604
 30
0.0
 10
-0.317500
 20
0.439562
 30
0.0
 10
0.105833
 20
1.071260
 30
0.0
 10
0.105833
 20
4.024660
 30
0.0
 10
-0.317500
 20
4.656358
 30
0.0
 10
-0.317500
 20
5.185524
 30
0.0
 10
0.281120
 20
4.947413
 30
0.0
 10
0.519245
 20
4.348792
 30
0.0
 10
0.519245
 20
0.747156
 30
0.0
  0
LWPOLYLINE
  5
18c
100
AcDbEntity
  8
-
 62
7
100
AcDbPolyline
 90
5
 70
0
 10
1.150937
 20
2.384243
 30
0.0
 10
-1.035182
 20
2.384243
 30
0.0
 10
-1.035182
 20
3.263986
 30
0.0
 10
1.150937
 20
3.263986
 30
0.0
 10
1.150937
 20
2.384243
 30
0.0
  0
LWPOLYLINE
  5
18d
100
AcDbEntity
  8
=
 62
7
100
AcDbPolyline
 90
5
 70
0
 10
1.766094
 20
2.953118
 30
0.0
 10
-1.716484
 20
2.953118
 30
0.0
 10
-1.716484
 20
3.538504
 30
0.0
 10
1.766094
 20
3.538504
 30
0.0
 10
1.766094
 20
2.953118
 30
0.0
  0
LWPOLYLINE
  5
18e
100
AcDbEntity
  8
=
 62
7
100
AcDbPolyline
 90
5
 70
0
 10
1.766094
 20
1.752573
 30
0.0
 10
-1.713177
 20
1.752573
 30
0.0
 10
-1.713177
 20
2.341260
 30
0.0
 10
1.766094
 20
2.341260
 30
0.0
 10
1.766094
 20
1.752573
 30
0.0
  0
LWPOLYLINE
  5
18f
100
AcDbEntity
  8
+
 62
7
100
AcDbPolyline
 90
13
 70
0
 10
1.756172
 20
2.371035
 30
0.0
 10
0.310885
 20
2.371035
 30
0.0
 10
0.310885
 20
0.929049
 30
0.0
 10
-0.274505
 20
0.929049
 30
0.0
 10
-0.274505
 20
2.371035
 30
0.0
 10
-1.719792
 20
2.371035
 30
0.0
 10
-1.719792
 20
2.959722
 30
0.0
 10
-0.274505
 20
2.959722
 30
0.0
 10
-0.274505
 20
4.401708
 30
0.0
 10
0.310885
 20
4.401708
 30
0.0
 10
0.310885
 20
2.959722
 30
0.0
 10
1.756172
 20
2.959722
 30
0.0
 10
1.756172
 20
2.371035
 30
0.0
  0
LWPOLYLINE
  5
190
100
AcDbEntity
  8
<
 62
7
100
AcDbPolyline
 90
7
 70
0
 10
1.306380
 20
0.102222
 30
0.0
 10
0.578776
 20
0.102222
 30
0.0
 10
-1.312995
 20
2.533087
 30
0.0
 10
0.578776
 20
4.963952
 30
0.0
 10
1.306380
 20
4.963952
 30
0.0
 10
-0.585391
 20
2.533087
 30
0.0
 10
1.306380
 20
0.102222
 30
0.0
  0
LWPOLYLINE
  5
191
100
AcDbEntity
  8
>
 62
7
100
AcDbPolyline
 90
7
 70
0
 10
1.306380
 20
2.533087
 30
0.0
 10
-0.585391
 20
0.102222
 30
0.0
 10
-1.312995
 20
0.102222
 30
0.0
 10
0.578776
 20
2.533087
 30
0.0
 10
-1.312995
 20
4.963952
 30
0.0
 10
-0.585391
 20
4.963952
 30
0.0
 10
1.306380
 20
2.533087
 30
0.0
  0
LWPOLYLINE
  5
192
100
AcDbEntity
  8
/
 62
7
100
AcDbPolyline
 90
5
 70
0
 10
2.282031
 20
4.970556
 30
0.0
 10
-1.491589
 20
0.125364
 30
0.0
 10
-2.219193
 20
0.125364
 30
0.0
 10
1.551120
 20
4.970556
 30
0.0
 10
2.282031
 20
4.970556
 30
0.0
  0
LWPOLYLINE
  5
193
100
AcDbEntity
  8
?
 62
7
100
AcDbPolyline
 90
14
 70
0
 10
1.610651
 20
3.558344
 30
0.0
 10
1.322917
 20
2.863823
 30
0.0
 10
0.790443
 20
2.288344
 30
0.0
 10
0.502708
 20
1.299465
 30
0.0
 10
-0.396875
 20
1.299465
 30
0.0
 10
-0.403489
 20
1.874916
 30
0.0
 10
-0.122370
 20
2.572767
 30
0.0
 10
0.413412
 20
3.085396
 30
0.0
 10
0.701146
 20
3.707160
 30
0.0
 10
0.601927
 20
3.923793
 30
0.0
 10
0.390261
 20
4.057736
 30
0.0
 10
0.390261
 20
4.993698
 30
0.0
 10
1.250156
 20
4.477767
 30
0.0
 10
1.610651
 20
3.558344
 30
0.0
  0
LWPOLYLINE
  5
194
100
AcDbEntity
  8
?
 62
7
100
AcDbPolyline
 90
8
 70
0
 10
-0.211667
 20
4.117285
 30
0.0
 10
-0.575469
 20
3.908920
 30
0.0
 10
-0.691224
 20
3.485587
 30
0.0
 10
-1.547812
 20
3.485587
 30
0.0
 10
-1.561042
 20
3.670781
 30
0.0
 10
-1.152591
 20
4.606743
 30
0.0
 10
-0.211667
 20
5.013538
 30
0.0
 10
-0.211667
 20
4.117285
 30
0.0
  0
LWPOLYLINE
  5
195
100
AcDbEntity
  8
?
 62
7
100
AcDbPolyline
 90
9
 70
0
 10
0.535781
 20
0.492479
 30
0.0
 10
0.396875
 20
0.165073
 30
0.0
 10
0.059531
 20
0.032767
 30
0.0
 10
-0.276159
 20
0.165073
 30
0.0
 10
-0.413411
 20
0.492479
 30
0.0
 10
-0.274505
 20
0.816583
 30
0.0
 10
0.059531
 20
0.948889
 30
0.0
 10
0.395221
 20
0.816583
 30
0.0
 10
0.535781
 20
0.492479
 30
0.0
  0
LWPOLYLINE
  5
196
100
AcDbEntity
  8
,
 62
7
100
AcDbPolyline
 90
12
 70
0
 10
0.770599
 20
0.800073
 30
0.0
 10
0.714375
 20
0.538792
 30
0.0
 10
0.565547
 20
0.320493
 30
0.0
 10
-0.052917
 20
-0.595629
 30
0.0
 10
-0.433255
 20
-0.324413
 30
0.0
 10
-0.152135
 20
0.155139
 30
0.0
 10
-0.497747
 20
0.398217
 30
0.0
 10
-0.631693
 20
0.800073
 30
0.0
 10
-0.426641
 20
1.284592
 30
0.0
 10
0.069453
 20
1.478056
 30
0.0
 10
0.565547
 20
1.282927
 30
0.0
 10
0.770599
 20
0.800073
 30
0.0
  0
LWPOLYLINE
  5
197
100
AcDbEntity
  8
.
 62
7
100
AcDbPolyline
 90
9
 70
0
 10
0.783828
 20
0.783535
 30
0.0
 10
0.577122
 20
0.300653
 30
0.0
 10
0.079375
 20
0.105524
 30
0.0
 10
-0.416719
 20
0.300653
 30
0.0
 10
-0.621771
 20
0.783535
 30
0.0
 10
-0.416719
 20
1.269691
 30
0.0
 10
0.079375
 20
1.464819
 30
0.0
 10
0.577122
 20
1.269691
 30
0.0
 10
0.783828
 20
0.783535
 30
0.0
  0
LWPOLYLINE
  5
198
100
AcDbEntity
  8
\
 62
7
100
AcDbPolyline
 90
5
 70
0
 10
2.282031
 20
0.125364
 30
0.0
 10
1.554427
 20
0.125364
 30
0.0
 10
-2.219193
 20
4.970556
 30
0.0
 10
-1.491589
 20
4.970556
 30
0.0
 10
2.282031
 20
0.125364
 30
0.0
  0
LWPOLYLINE
  5
199
100
AcDbEntity
  8
~
 62
7
100
AcDbPolyline
 90
13
 70
0
 10
0.972344
 20
3.664177
 30
0.0
 10
0.773906
 20
3.204465
 30
0.0
 10
0.380339
 20
3.564948
 30
0.0
 10
-0.062839
 20
3.422736
 30
0.0
 10
-0.515937
 20
3.280524
 30
0.0
 10
-0.840052
 20
3.427703
 30
0.0
 10
-0.969036
 20
3.773312
 30
0.0
 10
-0.813594
 20
4.170202
 30
0.0
 10
-0.443177
 20
3.872542
 30
0.0
 10
0.044648
 20
4.001517
 30
0.0
 10
0.535781
 20
4.130493
 30
0.0
 10
0.849974
 20
3.993248
 30
0.0
 10
0.972344
 20
3.664177
 30
0.0
  0
LWPOLYLINE
  5
19a
100
AcDbEntity
  8
`
 62
7
100
AcDbPolyline
 90
5
 70
0
 10
0.889661
 20
3.789851
 30
0.0
 10
0.393568
 20
3.297062
 30
0.0
 10
-0.889661
 20
4.444691
 30
0.0
 10
-0.261276
 20
5.073087
 30
0.0
 10
0.889661
 20
3.789851
 30
0.0
  0
LWPOLYLINE
  5
19b
100
AcDbEntity
  8
_
 62
7
100
AcDbPolyline
 90
5
 70
0
 10
2.556536
 20
-0.565854
 30
0.0
 10
-2.563151
 20
-0.565854
 30
0.0
 10
-2.563151
 20
-0.178899
 30
0.0
 10
2.556536
 20
-0.178899
 30
0.0
 10
2.556536
 20
-0.565854
 30
0.0
  0
LWPOLYLINE
  5
19c
100
AcDbEntity
  8
;
 62
7
100
AcDbPolyline
 90
9
 70
0
 10
0.770599
 20
3.538504
 30
0.0
 10
0.565547
 20
3.055621
 30
0.0
 10
0.069453
 20
2.860493
 30
0.0
 10
-0.426641
 20
3.055621
 30
0.0
 10
-0.631693
 20
3.538504
 30
0.0
 10
-0.426641
 20
4.024660
 30
0.0
 10
0.069453
 20
4.219788
 30
0.0
 10
0.565547
 20
4.024660
 30
0.0
 10
0.770599
 20
3.538504
 30
0.0
  0
LWPOLYLINE
  5
19d
100
AcDbEntity
  8
;
 62
7
100
AcDbPolyline
 90
12
 70
0
 10
0.770599
 20
0.800073
 30
0.0
 10
0.714375
 20
0.538792
 30
0.0
 10
0.565547
 20
0.320493
 30
0.0
 10
-0.052917
 20
-0.595629
 30
0.0
 10
-0.433255
 20
-0.324413
 30
0.0
 10
-0.152135
 20
0.155139
 30
0.0
 10
-0.497747
 20
0.398217
 30
0.0
 10
-0.631693
 20
0.800073
 30
0.0
 10
-0.426641
 20
1.284592
 30
0.0
 10
0.069453
 20
1.478056
 30
0.0
 10
0.565547
 20
1.282927
 30
0.0
 10
0.770599
 20
0.800073
 30
0.0
  0
LWPOLYLINE
  5
19e
100
AcDbEntity
  8
'
 62
7
100
AcDbPolyline
 90
12
 70
0
 10
0.783828
 20
4.305781
 30
0.0
 10
0.727604
 20
4.047830
 30
0.0
 10
0.582083
 20
3.826229
 30
0.0
 10
-0.036380
 20
2.906806
 30
0.0
 10
-0.420026
 20
3.181323
 30
0.0
 10
-0.135599
 20
3.660875
 30
0.0
 10
-0.484518
 20
3.903953
 30
0.0
 10
-0.618464
 20
4.305781
 30
0.0
 10
-0.411758
 20
4.790300
 30
0.0
 10
0.082682
 20
4.987094
 30
0.0
 10
0.578776
 20
4.790300
 30
0.0
 10
0.783828
 20
4.305781
 30
0.0
  0
LWPOLYLINE
  5
19f
100
AcDbEntity
  8
:
 62
7
100
AcDbPolyline
 90
9
 70
0
 10
0.770599
 20
3.538504
 30
0.0
 10
0.565547
 20
3.055621
 30
0.0
 10
0.069453
 20
2.860493
 30
0.0
 10
-0.426641
 20
3.055621
 30
0.0
 10
-0.631693
 20
3.538504
 30
0.0
 10
-0.426641
 20
4.024660
 30
0.0
 10
0.069453
 20
4.219788
 30
0.0
 10
0.565547
 20
4.024660
 30
0.0
 10
0.770599
 20
3.538504
 30
0.0
  0
LWPOLYLINE
  5
1a0
100
AcDbEntity
  8
:
 62
7
100
AcDbPolyline
 90
9
 70
0
 10
0.770599
 20
0.800073
 30
0.0
 10
0.565547
 20
0.317191
 30
0.0
 10
0.069453
 20
0.122062
 30
0.0
 10
-0.426641
 20
0.315554
 30
0.0
 10
-0.631693
 20
0.800073
 30
0.0
 10
-0.426641
 20
1.284592
 30
0.0
 10
0.069453
 20
1.478056
 30
0.0
 10
0.565547
 20
1.282927
 30
0.0
 10
0.770599
 20
0.800073
 30
0.0
  0
LWPOLYLINE
  5
1a1
100
AcDbEntity
  8
[
 62
7
100
AcDbPolyline
 90
9
 70
0
 10
0.519245
 20
-0.089604
 30
0.0
 10
-0.317500
 20
-0.089604
 30
0.0
 10
-0.317500
 20
5.185524
 30
0.0
 10
0.519245
 20
5.185524
 30
0.0
 10
0.519245
 20
4.656358
 30
0.0
 10
0.095911
 20
4.656358
 30
0.0
 10
0.095911
 20
0.439562
 30
0.0
 10
0.519245
 20
0.439562
 30
0.0
 10
0.519245
 20
-0.089604
 30
0.0
  0
LWPOLYLINE
  5
1a2
100
AcDbEntity
  8
]
 62
7
100
AcDbPolyline
 90
9
 70
0
 10
0.314193
 20
-0.089604
 30
0.0
 10
-0.522552
 20
-0.089604
 30
0.0
 10
-0.522552
 20
0.439562
 30
0.0
 10
-0.099219
 20
0.439562
 30
0.0
 10
-0.099219
 20
4.656358
 30
0.0
 10
-0.522552
 20
4.656358
 30
0.0
 10
-0.522552
 20
5.185524
 30
0.0
 10
0.314193
 20
5.185524
 30
0.0
 10
0.314193
 20
-0.089604
 30
0.0
  0
LWPOLYLINE
  5
1a3
100
AcDbEntity
  8
{
 62
7
100
AcDbPolyline
 90
19
 70
0
 10
0.929349
 20
-0.089604
 30
0.0
 10
0.330729
 20
0.148535
 30
0.0
 10
0.092604
 20
0.747156
 30
0.0
 10
0.092604
 20
1.712864
 30
0.0
 10
-0.145521
 20
2.311486
 30
0.0
 10
-0.744141
 20
2.549625
 30
0.0
 10
-0.145521
 20
2.787736
 30
0.0
 10
0.092604
 20
3.386358
 30
0.0
 10
0.092604
 20
4.352094
 30
0.0
 10
0.330729
 20
4.950715
 30
0.0
 10
0.929349
 20
5.188826
 30
0.0
 10
0.929349
 20
4.659660
 30
0.0
 10
0.506016
 20
4.027990
 30
0.0
 10
0.506016
 20
3.181323
 30
0.0
 10
0.082682
 20
2.549625
 30
0.0
 10
0.506016
 20
1.917927
 30
0.0
 10
0.506016
 20
1.071260
 30
0.0
 10
0.929349
 20
0.439562
 30
0.0
 10
0.929349
 20
-0.089604
 30
0.0
  0
LWPOLYLINE
  5
1a4
100
AcDbEntity
  8
}
 62
7
100
AcDbPolyline
 90
19
 70
0
 10
0.740833
 20
2.549625
 30
0.0
 10
0.142214
 20
2.311486
 30
0.0
 10
-0.095911
 20
1.712864
 30
0.0
 10
-0.095911
 20
0.747156
 30
0.0
 10
-0.334036
 20
0.148535
 30
0.0
 10
-0.932656
 20
-0.089604
 30
0.0
 10
-0.932656
 20
0.439562
 30
0.0
 10
-0.509323
 20
1.071260
 30
0.0
 10
-0.509323
 20
1.917927
 30
0.0
 10
-0.085990
 20
2.549625
 30
0.0
 10
-0.509323
 20
3.181323
 30
0.0
 10
-0.509323
 20
4.027990
 30
0.0
 10
-0.932656
 20
4.659660
 30
0.0
 10
-0.932656
 20
5.188826
 30
0.0
 10
-0.334036
 20
4.950715
 30
0.0
 10
-0.095911
 20
4.352094
 30
0.0
 10
-0.095911
 20
3.386358
 30
0.0
 10
0.142214
 20
2.787736
 30
0.0
 10
0.740833
 20
2.549625
 30
0.0
  0
LWPOLYLINE
  5
1a5
100
AcDbEntity
  8
|
 62
7
100
AcDbPolyline
 90
5
 70
0
 10
0.294349
 20
-0.231816
 30
0.0
 10
-0.287734
 20
-0.231816
 30
0.0
 10
-0.287734
 20
5.288056
 30
0.0
 10
0.294349
 20
5.288056
 30
0.0
 10
0.294349
 20
-0.231816
 30
0.0
  0
LWPOLYLINE
  5
1a6
100
AcDbEntity
  8
"
 62
7
100
AcDbPolyline
 90
5
 70
0
 10
1.111250
 20
4.987094
 30
0.0
 10
1.018646
 20
3.263986
 30
0.0
 10
0.314193
 20
3.263986
 30
0.0
 10
0.224896
 20
4.987094
 30
0.0
 10
1.111250
 20
4.987094
 30
0.0
  0
LWPOLYLINE
  5
1a7
100
AcDbEntity
  8
"
 62
7
100
AcDbPolyline
 90
5
 70
0
 10
-0.082682
 20
5.010236
 30
0.0
 10
-0.175286
 20
3.290458
 30
0.0
 10
-0.876432
 20
3.290458
 30
0.0
 10
-0.972344
 20
5.010236
 30
0.0
 10
-0.082682
 20
5.010236
 30
0.0
  0
LWPOLYLINE
  5
1a8
100
AcDbEntity
  8
0
 62
7
100
AcDbPolyline
 90
13
 70
0
 10
1.888464
 20
1.673184
 30
0.0
 10
1.468437
 20
0.614851
 30
0.0
 10
0.429948
 20
0.112156
 30
0.0
 10
0.429948
 20
1.005108
 30
0.0
 10
0.806979
 20
1.306069
 30
0.0
 10
0.949193
 20
1.775715
 30
0.0
 10
0.949193
 20
3.323535
 30
0.0
 10
0.806979
 20
3.791516
 30
0.0
 10
0.429948
 20
4.090812
 30
0.0
 10
0.429948
 20
4.983792
 30
0.0
 10
1.468437
 20
4.481069
 30
0.0
 10
1.888464
 20
3.422736
 30
0.0
 10
1.888464
 20
1.673184
 30
0.0
  0
LWPOLYLINE
  5
1a9
100
AcDbEntity
  8
0
 62
7
100
AcDbPolyline
 90
13
 70
0
 10
-0.314193
 20
0.105524
 30
0.0
 10
-1.413867
 20
0.580137
 30
0.0
 10
-1.865312
 20
1.673184
 30
0.0
 10
-1.865312
 20
3.422736
 30
0.0
 10
-1.415521
 20
4.515811
 30
0.0
 10
-0.314193
 20
4.987094
 30
0.0
 10
-0.314193
 20
4.117285
 30
0.0
 10
-0.755716
 20
3.832833
 30
0.0
 10
-0.926042
 20
3.323535
 30
0.0
 10
-0.926042
 20
1.775715
 30
0.0
 10
-0.757370
 20
1.269691
 30
0.0
 10
-0.314193
 20
0.978663
 30
0.0
 10
-0.314193
 20
0.105524
 30
0.0
  0
LWPOLYLINE
  5
1aa
100
AcDbEntity
  8
1
 62
7
100
AcDbPolyline
 90
8
 70
0
 10
0.919427
 20
0.125364
 30
0.0
 10
-0.138906
 20
0.125364
 30
0.0
 10
-0.138906
 20
3.373121
 30
0.0
 10
-0.800365
 20
3.581486
 30
0.0
 10
-0.138906
 20
4.970556
 30
0.0
 10
-0.135599
 20
4.970556
 30
0.0
 10
0.919427
 20
4.970556
 30
0.0
 10
0.919427
 20
0.125364
 30
0.0
  0
LWPOLYLINE
  5
1ab
100
AcDbEntity
  8
2
 62
7
100
AcDbPolyline
 90
7
 70
0
 10
-0.191823
 20
4.173504
 30
0.0
 10
-0.677995
 20
4.004819
 30
0.0
 10
-0.909505
 20
3.581486
 30
0.0
 10
-1.812396
 20
3.581486
 30
0.0
 10
-1.299766
 20
4.610073
 30
0.0
 10
-0.191823
 20
4.990396
 30
0.0
 10
-0.191823
 20
4.173504
 30
0.0
  0
LWPOLYLINE
  5
1ac
100
AcDbEntity
  8
2
 62
7
100
AcDbPolyline
 90
14
 70
0
 10
1.888464
 20
3.720396
 30
0.0
 10
1.395677
 20
2.628986
 30
0.0
 10
0.357187
 20
1.845170
 30
0.0
 10
-0.549010
 20
0.995202
 30
0.0
 10
-0.780521
 20
0.125364
 30
0.0
 10
-1.858698
 20
0.125364
 30
0.0
 10
-1.134401
 20
1.884851
 30
0.0
 10
0.181901
 20
2.867125
 30
0.0
 10
0.886354
 20
3.604656
 30
0.0
 10
0.757370
 20
3.961837
 30
0.0
 10
0.476250
 20
4.094114
 30
0.0
 10
0.476250
 20
4.973858
 30
0.0
 10
1.432057
 20
4.613375
 30
0.0
 10
1.888464
 20
3.720396
 30
0.0
  0
LWPOLYLINE
  5
1ad
100
AcDbEntity
  8
2
 62
7
100
AcDbPolyline
 90
7
 70
0
 10
1.766094
 20
0.125364
 30
0.0
 10
-0.046302
 20
0.125364
 30
0.0
 10
-0.046302
 20
0.350267
 30
0.0
 10
0.115755
 20
0.872830
 30
0.0
 10
0.582083
 20
1.120875
 30
0.0
 10
1.766094
 20
1.120875
 30
0.0
 10
1.766094
 20
0.125364
 30
0.0
  0
LWPOLYLINE
  5
1ae
100
AcDbEntity
  8
3
 62
7
100
AcDbPolyline
 90
17
 70
0
 10
1.931458
 20
1.507830
 30
0.0
 10
1.508125
 20
0.522254
 30
0.0
 10
0.492786
 20
0.128666
 30
0.0
 10
0.492786
 20
1.018344
 30
0.0
 10
0.906198
 20
1.650042
 30
0.0
 10
-0.089297
 20
2.218889
 30
0.0
 10
-0.089297
 20
2.840653
 30
0.0
 10
0.922734
 20
3.475653
 30
0.0
 10
0.805326
 20
3.821262
 30
0.0
 10
0.512630
 20
4.037896
 30
0.0
 10
0.512630
 20
4.983792
 30
0.0
 10
1.511432
 20
4.646452
 30
0.0
 10
1.931458
 20
3.703858
 30
0.0
 10
1.759479
 20
3.042413
 30
0.0
 10
1.250156
 20
2.605844
 30
0.0
 10
1.759479
 20
2.169274
 30
0.0
 10
1.931458
 20
1.507830
 30
0.0
  0
LWPOLYLINE
  5
1af
100
AcDbEntity
  8
3
 62
7
100
AcDbPolyline
 90
6
 70
0
 10
-0.327422
 20
4.087510
 30
0.0
 10
-0.962422
 20
3.670781
 30
0.0
 10
-2.004219
 20
3.670781
 30
0.0
 10
-1.435365
 20
4.659660
 30
0.0
 10
-0.327422
 20
4.990396
 30
0.0
 10
-0.327422
 20
4.087510
 30
0.0
  0
LWPOLYLINE
  5
1b0
100
AcDbEntity
  8
3
 62
7
100
AcDbPolyline
 90
7
 70
0
 10
-0.360495
 20
0.125364
 30
0.0
 10
-1.501510
 20
0.505715
 30
0.0
 10
-2.017448
 20
1.577285
 30
0.0
 10
-0.962422
 20
1.577285
 30
0.0
 10
-0.816901
 20
1.124177
 30
0.0
 10
-0.360495
 20
0.975333
 30
0.0
 10
-0.360495
 20
0.125364
 30
0.0
  0
LWPOLYLINE
  5
1b1
100
AcDbEntity
  8
4
 62
7
100
AcDbPolyline
 90
9
 70
0
 10
1.994297
 20
1.411903
 30
0.0
 10
1.412214
 20
1.411903
 30
0.0
 10
1.412214
 20
0.105524
 30
0.0
 10
0.317500
 20
0.105524
 30
0.0
 10
0.317500
 20
4.970556
 30
0.0
 10
1.412214
 20
4.970556
 30
0.0
 10
1.412214
 20
2.473538
 30
0.0
 10
1.994297
 20
2.473538
 30
0.0
 10
1.994297
 20
1.411903
 30
0.0
  0
LWPOLYLINE
  5
1b2
100
AcDbEntity
  8
4
 62
7
100
AcDbPolyline
 90
9
 70
0
 10
-0.119062
 20
2.896871
 30
0.0
 10
-0.568854
 20
2.420621
 30
0.0
 10
-0.155443
 20
2.420621
 30
0.0
 10
-0.155443
 20
1.464819
 30
0.0
 10
-1.961224
 20
1.464819
 30
0.0
 10
-1.961224
 20
2.420621
 30
0.0
 10
-1.944687
 20
2.420621
 30
0.0
 10
-0.119062
 20
4.586903
 30
0.0
 10
-0.119062
 20
2.896871
 30
0.0
  0
LWPOLYLINE
  5
1b3
100
AcDbEntity
  8
5
 62
7
100
AcDbPolyline
 90
7
 70
0
 10
1.792552
 20
4.123889
 30
0.0
 10
-0.866510
 20
4.123889
 30
0.0
 10
-0.866510
 20
2.473538
 30
0.0
 10
-1.961224
 20
2.473538
 30
0.0
 10
-1.961224
 20
4.990396
 30
0.0
 10
1.792552
 20
4.990396
 30
0.0
 10
1.792552
 20
4.123889
 30
0.0
  0
LWPOLYLINE
  5
1b4
100
AcDbEntity
  8
5
 62
7
100
AcDbPolyline
 90
12
 70
0
 10
2.014141
 20
1.600427
 30
0.0
 10
1.491589
 20
0.502413
 30
0.0
 10
0.307578
 20
0.125364
 30
0.0
 10
0.307578
 20
1.001806
 30
0.0
 10
0.810286
 20
1.215137
 30
0.0
 10
1.002109
 20
1.739337
 30
0.0
 10
0.585391
 20
2.384243
 30
0.0
 10
-0.248047
 20
2.483472
 30
0.0
 10
-0.248047
 20
3.349979
 30
0.0
 10
0.466328
 20
3.349979
 30
0.0
 10
1.610651
 20
2.820812
 30
0.0
 10
2.014141
 20
1.600427
 30
0.0
  0
LWPOLYLINE
  5
1b5
100
AcDbEntity
  8
5
 62
7
100
AcDbPolyline
 90
7
 70
0
 10
-0.257969
 20
0.125364
 30
0.0
 10
-1.438672
 20
0.489177
 30
0.0
 10
-1.977760
 20
1.580587
 30
0.0
 10
-0.886354
 20
1.580587
 30
0.0
 10
-0.730911
 20
1.124177
 30
0.0
 10
-0.257969
 20
1.001806
 30
0.0
 10
-0.257969
 20
0.125364
 30
0.0
  0
LWPOLYLINE
  5
1b6
100
AcDbEntity
  8
6
 62
7
100
AcDbPolyline
 90
6
 70
0
 10
2.010833
 20
3.670781
 30
0.0
 10
0.932656
 20
3.670781
 30
0.0
 10
0.307578
 20
4.100747
 30
0.0
 10
0.307578
 20
4.970556
 30
0.0
 10
1.428750
 20
4.659660
 30
0.0
 10
2.010833
 20
3.670781
 30
0.0
  0
LWPOLYLINE
  5
1b7
100
AcDbEntity
  8
6
 62
7
100
AcDbPolyline
 90
14
 70
0
 10
2.027370
 20
1.848472
 30
0.0
 10
1.585846
 20
0.568538
 30
0.0
 10
0.307578
 20
0.125364
 30
0.0
 10
0.307578
 20
0.998504
 30
0.0
 10
0.826823
 20
1.246549
 30
0.0
 10
1.008724
 20
1.808792
 30
0.0
 10
0.899583
 20
2.208955
 30
0.0
 10
0.562240
 20
2.440490
 30
0.0
 10
-0.248047
 20
2.467019
 30
0.0
 10
-0.248047
 20
3.336828
 30
0.0
 10
0.466328
 20
3.336828
 30
0.0
 10
1.580886
 20
2.936665
 30
0.0
 10
2.027370
 20
1.848557
 30
0.0
 10
2.027370
 20
1.848472
 30
0.0
  0
LWPOLYLINE
  5
1b8
100
AcDbEntity
  8
6
 62
7
100
AcDbPolyline
 90
11
 70
0
 10
-0.257969
 20
0.125364
 30
0.0
 10
-1.475052
 20
0.518952
 30
0.0
 10
-1.981068
 20
1.666580
 30
0.0
 10
-1.981068
 20
3.429368
 30
0.0
 10
-1.475052
 20
4.580299
 30
0.0
 10
-0.257969
 20
4.970556
 30
0.0
 10
-0.257969
 20
4.100747
 30
0.0
 10
-0.886354
 20
3.624497
 30
0.0
 10
-0.886354
 20
1.474754
 30
0.0
 10
-0.257969
 20
0.998504
 30
0.0
 10
-0.257969
 20
0.125364
 30
0.0
  0
LWPOLYLINE
  5
1b9
100
AcDbEntity
  8
7
 62
7
100
AcDbPolyline
 90
6
 70
0
 10
-0.039688
 20
4.950715
 30
0.0
 10
-0.466328
 20
3.915524
 30
0.0
 10
-1.825625
 20
3.915524
 30
0.0
 10
-1.825625
 20
4.960621
 30
0.0
 10
-0.039688
 20
4.960621
 30
0.0
 10
-0.039688
 20
4.950715
 30
0.0
  0
LWPOLYLINE
  5
1ba
100
AcDbEntity
  8
7
 62
7
100
AcDbPolyline
 90
5
 70
0
 10
1.855391
 20
4.973858
 30
0.0
 10
0.158750
 20
0.115458
 30
0.0
 10
-1.187318
 20
0.115458
 30
0.0
 10
0.542396
 20
4.973858
 30
0.0
 10
1.855391
 20
4.973858
 30
0.0
  0
LWPOLYLINE
  5
1bb
100
AcDbEntity
  8
8
 62
7
100
AcDbPolyline
 90
19
 70
0
 10
1.918229
 20
3.700556
 30
0.0
 10
1.842161
 20
3.131708
 30
0.0
 10
1.481667
 20
2.701743
 30
0.0
 10
1.858698
 20
2.159368
 30
0.0
 10
1.908307
 20
1.590493
 30
0.0
 10
1.418828
 20
0.479243
 30
0.0
 10
0.234818
 20
0.125364
 30
0.0
 10
0.234818
 20
0.942285
 30
0.0
 10
0.767292
 20
1.130781
 30
0.0
 10
0.846667
 20
1.673184
 30
0.0
 10
0.720990
 20
2.172576
 30
0.0
 10
0.234818
 20
2.328024
 30
0.0
 10
0.234818
 20
3.138312
 30
0.0
 10
0.856589
 20
3.740236
 30
0.0
 10
0.760677
 20
4.140427
 30
0.0
 10
0.241432
 20
4.279337
 30
0.0
 10
0.241432
 20
4.990396
 30
0.0
 10
1.432057
 20
4.752285
 30
0.0
 10
1.918229
 20
3.700556
 30
0.0
  0
LWPOLYLINE
  5
1bc
100
AcDbEntity
  8
8
 62
7
100
AcDbPolyline
 90
19
 70
0
 10
-0.238125
 20
0.125364
 30
0.0
 10
-1.422135
 20
0.479243
 30
0.0
 10
-1.911615
 20
1.590493
 30
0.0
 10
-1.862005
 20
2.159368
 30
0.0
 10
-1.484974
 20
2.701743
 30
0.0
 10
-1.845469
 20
3.131708
 30
0.0
 10
-1.921536
 20
3.700556
 30
0.0
 10
-1.435365
 20
4.752285
 30
0.0
 10
-0.244740
 20
4.990396
 30
0.0
 10
-0.244740
 20
4.279337
 30
0.0
 10
-0.763984
 20
4.140427
 30
0.0
 10
-0.859896
 20
3.740236
 30
0.0
 10
-0.238125
 20
3.138312
 30
0.0
 10
-0.238125
 20
2.328024
 30
0.0
 10
-0.724297
 20
2.172576
 30
0.0
 10
-0.849974
 20
1.673184
 30
0.0
 10
-0.770599
 20
1.130781
 30
0.0
 10
-0.238125
 20
0.942285
 30
0.0
 10
-0.238125
 20
0.125364
 30
0.0
  0
LWPOLYLINE
  5
1bd
100
AcDbEntity
  8
9
 62
7
100
AcDbPolyline
 90
11
 70
0
 10
2.027370
 20
1.666580
 30
0.0
 10
1.521354
 20
0.515621
 30
0.0
 10
0.304271
 20
0.125364
 30
0.0
 10
0.304271
 20
0.995202
 30
0.0
 10
0.932656
 20
1.471452
 30
0.0
 10
0.932656
 20
3.621166
 30
0.0
 10
0.304271
 20
4.097416
 30
0.0
 10
0.304271
 20
4.970556
 30
0.0
 10
1.521354
 20
4.576997
 30
0.0
 10
2.027370
 20
3.429368
 30
0.0
 10
2.027370
 20
1.666580
 30
0.0
  0
LWPOLYLINE
  5
1be
100
AcDbEntity
  8
9
 62
7
100
AcDbPolyline
 90
13
 70
0
 10
0.294349
 20
1.759177
 30
0.0
 10
-0.420026
 20
1.759177
 30
0.0
 10
-1.534583
 20
2.159368
 30
0.0
 10
-1.981068
 20
3.247448
 30
0.0
 10
-1.539544
 20
4.527382
 30
0.0
 10
-0.261276
 20
4.970556
 30
0.0
 10
-0.261276
 20
4.097416
 30
0.0
 10
-0.780521
 20
3.849371
 30
0.0
 10
-0.962422
 20
3.287156
 30
0.0
 10
-0.853281
 20
2.886965
 30
0.0
 10
-0.515938
 20
2.655458
 30
0.0
 10
0.294349
 20
2.628930
 30
0.0
 10
0.294349
 20
1.759177
 30
0.0
  0
LWPOLYLINE
  5
1bf
100
AcDbEntity
  8
9
 62
7
100
AcDbPolyline
 90
6
 70
0
 10
-0.261276
 20
0.125364
 30
0.0
 10
-1.382448
 20
0.436260
 30
0.0
 10
-1.964531
 20
1.425139
 30
0.0
 10
-0.886354
 20
1.425139
 30
0.0
 10
-0.261276
 20
0.995202
 30
0.0
 10
-0.261276
 20
0.125364
 30
0.0
  0
ENDSEC
  0
SECTION
  2
OBJECTS
  0
DICTIONARY
  5
C
330
0
100
AcDbDictionary
  3
ACAD_GROUP
350
D
  3
ACAD_MLINESTYLE
350
17
  0
DICTIONARY
  5
D
330
C
100
AcDbDictionary
  0
DICTIONARY
  5
1A
330
C
100
AcDbDictionary
  0
DICTIONARY
  5
17
330
C
100
AcDbDictionary
  3
STANDARD
350
18
  0
DICTIONARY
  5
19
330
C
100
AcDbDictionary
  0
ENDSEC
  0
EOF
