999
DXF created by Inkscape
  0
SECTION
  2
HEADER
  9
$ACADVER
  1
AC1014
  9
$HANDSEED
  5
FFFF
  9
$MEASUREMENT
 70
     1
  0
ENDSEC
  0
SECTION
  2
TABLES
  0
TABLE
  2
VPORT
  5
8
330
0
100
AcDbSymbolTable
 70
     4
  0
VPORT
  5
2E
330
8
100
AcDbSymbolTableRecord
100
AcDbViewportTableRecord
  2
*ACTIVE
 70
     0
 10
0.0
 20
0.0
 11
1.0
 21
1.0
 12
210.0
 22
148.5
 13
0.0
 23
0.0
 14
10.0
 24
10.0
 15
10.0
 25
10.0
 16
0.0
 26
0.0
 36
1.0
 17
0.0
 27
0.0
 37
0.0
 40
341.0
 41
1.24
 42
50.0
 43
0.0
 44
0.0
 50
0.0
 51
0.0
 71
     0
 72
   100
 73
     1
 74
     3
 75
     0
 76
     0
 77
     0
 78
     0
  0
ENDTAB
  0
TABLE
  2
LTYPE
  5
5
330
0
100
AcDbSymbolTable
 70
     1
  0
LTYPE
  5
14
330
5
100
AcDbSymbolTableRecord
100
AcDbLinetypeTableRecord
  2
BYBLOCK
 70
     0
  3

 72
    65
 73
     0
 40
0.0
  0
LTYPE
  5
15
330
5
100
AcDbSymbolTableRecord
100
AcDbLinetypeTableRecord
  2
BYLAYER
 70
     0
  3

 72
    65
 73
     0
 40
0.0
  0
LTYPE
  5
16
330
5
100
AcDbSymbolTableRecord
100
AcDbLinetypeTableRecord
  2
CONTINUOUS
 70
     0
  3
Solid line
 72
    65
 73
     0
 40
0.0
  0
ENDTAB
  0
TABLE
  2
LAYER
  5
2
100
AcDbSymbolTable
 70
58
  0
LAYER
  5
50
100
AcDbSymbolTableRecord
100
AcDbLayerTableRecord
  2
0
 70
0
  6
CONTINUOUS
  0
LAYER
  5
51
100
AcDbSymbolTableRecord
100
AcDbLayerTableRecord
  2
!
 70
0
  6
CONTINUOUS
  0
LAYER
  5
52
100
AcDbSymbolTableRecord
100
AcDbLayerTableRecord
  2
|
 70
0
  6
CONTINUOUS
  0
LAYER
  5
53
100
AcDbSymbolTableRecord
100
AcDbLayerTableRecord
  2
#
 70
0
  6
CONTINUOUS
  0
LAYER
  5
54
100
AcDbSymbolTableRecord
100
AcDbLayerTableRecord
  2
[
 70
0
  6
CONTINUOUS
  0
LAYER
  5
55
100
AcDbSymbolTableRecord
100
AcDbLayerTableRecord
  2
]
 70
0
  6
CONTINUOUS
  0
LAYER
  5
56
100
AcDbSymbolTableRecord
100
AcDbLayerTableRecord
  2
/
 70
0
  6
CONTINUOUS
  0
LAYER
  5
57
100
AcDbSymbolTableRecord
100
AcDbLayerTableRecord
  2
%
 70
0
  6
CONTINUOUS
  0
LAYER
  5
58
100
AcDbSymbolTableRecord
100
AcDbLayerTableRecord
  2
\
 70
0
  6
CONTINUOUS
  0
LAYER
  5
59
100
AcDbSymbolTableRecord
100
AcDbLayerTableRecord
  2
>
 70
0
  6
CONTINUOUS
  0
LAYER
  5
5a
100
AcDbSymbolTableRecord
100
AcDbLayerTableRecord
  2
<
 70
0
  6
CONTINUOUS
  0
LAYER
  5
5b
100
AcDbSymbolTableRecord
100
AcDbLayerTableRecord
  2
^
 70
0
  6
CONTINUOUS
  0
LAYER
  5
5c
100
AcDbSymbolTableRecord
100
AcDbLayerTableRecord
  2
;
 70
0
  6
CONTINUOUS
  0
LAYER
  5
5d
100
AcDbSymbolTableRecord
100
AcDbLayerTableRecord
  2
:
 70
0
  6
CONTINUOUS
  0
LAYER
  5
5e
100
AcDbSymbolTableRecord
100
AcDbLayerTableRecord
  2
"
 70
0
  6
CONTINUOUS
  0
LAYER
  5
5f
100
AcDbSymbolTableRecord
100
AcDbLayerTableRecord
  2
.
 70
0
  6
CONTINUOUS
  0
LAYER
  5
60
100
AcDbSymbolTableRecord
100
AcDbLayerTableRecord
  2
,
 70
0
  6
CONTINUOUS
  0
LAYER
  5
61
100
AcDbSymbolTableRecord
100
AcDbLayerTableRecord
  2
-
 70
0
  6
CONTINUOUS
  0
LAYER
  5
62
100
AcDbSymbolTableRecord
100
AcDbLayerTableRecord
  2
+
 70
0
  6
CONTINUOUS
  0
LAYER
  5
63
100
AcDbSymbolTableRecord
100
AcDbLayerTableRecord
  2
*
 70
0
  6
CONTINUOUS
  0
LAYER
  5
64
100
AcDbSymbolTableRecord
100
AcDbLayerTableRecord
  2
)
 70
0
  6
CONTINUOUS
  0
LAYER
  5
65
100
AcDbSymbolTableRecord
100
AcDbLayerTableRecord
  2
(
 70
0
  6
CONTINUOUS
  0
LAYER
  5
66
100
AcDbSymbolTableRecord
100
AcDbLayerTableRecord
  2
9
 70
0
  6
CONTINUOUS
  0
LAYER
  5
67
100
AcDbSymbolTableRecord
100
AcDbLayerTableRecord
  2
8
 70
0
  6
CONTINUOUS
  0
LAYER
  5
68
100
AcDbSymbolTableRecord
100
AcDbLayerTableRecord
  2
7
 70
0
  6
CONTINUOUS
  0
LAYER
  5
69
100
AcDbSymbolTableRecord
100
AcDbLayerTableRecord
  2
6
 70
0
  6
CONTINUOUS
  0
LAYER
  5
6a
100
AcDbSymbolTableRecord
100
AcDbLayerTableRecord
  2
5
 70
0
  6
CONTINUOUS
  0
LAYER
  5
6b
100
AcDbSymbolTableRecord
100
AcDbLayerTableRecord
  2
4
 70
0
  6
CONTINUOUS
  0
LAYER
  5
6c
100
AcDbSymbolTableRecord
100
AcDbLayerTableRecord
  2
3
 70
0
  6
CONTINUOUS
  0
LAYER
  5
6d
100
AcDbSymbolTableRecord
100
AcDbLayerTableRecord
  2
2
 70
0
  6
CONTINUOUS
  0
LAYER
  5
6e
100
AcDbSymbolTableRecord
100
AcDbLayerTableRecord
  2
1
 70
0
  6
CONTINUOUS
  0
LAYER
  5
6f
100
AcDbSymbolTableRecord
100
AcDbLayerTableRecord
  2
border
 70
0
  6
CONTINUOUS
  0
LAYER
  5
70
100
AcDbSymbolTableRecord
100
AcDbLayerTableRecord
  2
Z
 70
0
  6
CONTINUOUS
  0
LAYER
  5
71
100
AcDbSymbolTableRecord
100
AcDbLayerTableRecord
  2
Y
 70
0
  6
CONTINUOUS
  0
LAYER
  5
72
100
AcDbSymbolTableRecord
100
AcDbLayerTableRecord
  2
X
 70
0
  6
CONTINUOUS
  0
LAYER
  5
73
100
AcDbSymbolTableRecord
100
AcDbLayerTableRecord
  2
W
 70
0
  6
CONTINUOUS
  0
LAYER
  5
74
100
AcDbSymbolTableRecord
100
AcDbLayerTableRecord
  2
V
 70
0
  6
CONTINUOUS
  0
LAYER
  5
75
100
AcDbSymbolTableRecord
100
AcDbLayerTableRecord
  2
U
 70
0
  6
CONTINUOUS
  0
LAYER
  5
76
100
AcDbSymbolTableRecord
100
AcDbLayerTableRecord
  2
T
 70
0
  6
CONTINUOUS
  0
LAYER
  5
77
100
AcDbSymbolTableRecord
100
AcDbLayerTableRecord
  2
S
 70
0
  6
CONTINUOUS
  0
LAYER
  5
78
100
AcDbSymbolTableRecord
100
AcDbLayerTableRecord
  2
R
 70
0
  6
CONTINUOUS
  0
LAYER
  5
79
100
AcDbSymbolTableRecord
100
AcDbLayerTableRecord
  2
Q
 70
0
  6
CONTINUOUS
  0
LAYER
  5
7a
100
AcDbSymbolTableRecord
100
AcDbLayerTableRecord
  2
P
 70
0
  6
CONTINUOUS
  0
LAYER
  5
7b
100
AcDbSymbolTableRecord
100
AcDbLayerTableRecord
  2
O
 70
0
  6
CONTINUOUS
  0
LAYER
  5
7c
100
AcDbSymbolTableRecord
100
AcDbLayerTableRecord
  2
N
 70
0
  6
CONTINUOUS
  0
LAYER
  5
7d
100
AcDbSymbolTableRecord
100
AcDbLayerTableRecord
  2
M
 70
0
  6
CONTINUOUS
  0
LAYER
  5
7e
100
AcDbSymbolTableRecord
100
AcDbLayerTableRecord
  2
L
 70
0
  6
CONTINUOUS
  0
LAYER
  5
7f
100
AcDbSymbolTableRecord
100
AcDbLayerTableRecord
  2
K
 70
0
  6
CONTINUOUS
  0
LAYER
  5
80
100
AcDbSymbolTableRecord
100
AcDbLayerTableRecord
  2
J
 70
0
  6
CONTINUOUS
  0
LAYER
  5
81
100
AcDbSymbolTableRecord
100
AcDbLayerTableRecord
  2
I
 70
0
  6
CONTINUOUS
  0
LAYER
  5
82
100
AcDbSymbolTableRecord
100
AcDbLayerTableRecord
  2
H
 70
0
  6
CONTINUOUS
  0
LAYER
  5
83
100
AcDbSymbolTableRecord
100
AcDbLayerTableRecord
  2
G
 70
0
  6
CONTINUOUS
  0
LAYER
  5
84
100
AcDbSymbolTableRecord
100
AcDbLayerTableRecord
  2
F
 70
0
  6
CONTINUOUS
  0
LAYER
  5
85
100
AcDbSymbolTableRecord
100
AcDbLayerTableRecord
  2
E
 70
0
  6
CONTINUOUS
  0
LAYER
  5
86
100
AcDbSymbolTableRecord
100
AcDbLayerTableRecord
  2
D
 70
0
  6
CONTINUOUS
  0
LAYER
  5
87
100
AcDbSymbolTableRecord
100
AcDbLayerTableRecord
  2
C
 70
0
  6
CONTINUOUS
  0
LAYER
  5
88
100
AcDbSymbolTableRecord
100
AcDbLayerTableRecord
  2
B
 70
0
  6
CONTINUOUS
  0
LAYER
  5
89
100
AcDbSymbolTableRecord
100
AcDbLayerTableRecord
  2
A
 70
0
  6
CONTINUOUS
  0
ENDTAB
  0
TABLE
  2
STYLE
  5
3
330
0
100
AcDbSymbolTable
 70
     1
  0
STYLE
  5
11
330
3
100
AcDbSymbolTableRecord
100
AcDbTextStyleTableRecord
  2
STANDARD
 70
     0
 40
0.0
 41
1.0
 50
0.0
 71
     0
 42
2.5
  3
txt
  4

  0
ENDTAB
  0
TABLE
  2
VIEW
  5
6
330
0
100
AcDbSymbolTable
 70
     0
  0
ENDTAB
  0
TABLE
  2
UCS
  5
7
330
0
100
AcDbSymbolTable
 70
     0
  0
ENDTAB
  0
TABLE
  2
APPID
  5
9
330
0
100
AcDbSymbolTable
 70
     2
  0
APPID
  5
12
330
9
100
AcDbSymbolTableRecord
100
AcDbRegAppTableRecord
  2
ACAD
 70
     0
  0
ENDTAB
  0
TABLE
  2
DIMSTYLE
  5
A
330
0
100
AcDbSymbolTable
 70
     1
  0
DIMSTYLE
105
27
330
A
100
AcDbSymbolTableRecord
100
AcDbDimStyleTableRecord
  2
ISO-25
 70
     0
  3

  4

  5

  6

  7

 40
1.0
 41
2.5
 42
0.625
 43
3.75
 44
1.25
 45
0.0
 46
0.0
 47
0.0
 48
0.0
140
2.5
141
2.5
142
0.0
143
0.03937007874016
144
1.0
145
0.0
146
1.0
147
0.625
 71
     0
 72
     0
 73
     0
 74
     0
 75
     0
 76
     0
 77
     1
 78
     8
170
     0
171
     3
172
     1
173
     0
174
     0
175
     0
176
     0
177
     0
178
     0
270
     2
271
     2
272
     2
273
     2
274
     3
340
11
275
     0
280
     0
281
     0
282
     0
283
     0
284
     8
285
     0
286
     0
287
     3
288
     0
  0
ENDTAB
  0
TABLE
  2
BLOCK_RECORD
  5
1
330
0
100
AcDbSymbolTable
 70
     1
  0
BLOCK_RECORD
  5
1F
330
1
100
AcDbSymbolTableRecord
100
AcDbBlockTableRecord
  2
*MODEL_SPACE
  0
BLOCK_RECORD
  5
1B
330
1
100
AcDbSymbolTableRecord
100
AcDbBlockTableRecord
  2
*PAPER_SPACE
  0
ENDTAB
  0
ENDSEC
  0
SECTION
  2
BLOCKS
  0
BLOCK
  5
20
330
1F
100
AcDbEntity
  8
0
100
AcDbBlockBegin
  2
*MODEL_SPACE
 70
     0
 10
0.0
 20
0.0
 30
0.0
  3
*MODEL_SPACE
  1

  0
ENDBLK
  5
21
330
1F
100
AcDbEntity
  8
0
100
AcDbBlockEnd
  0
BLOCK
  5
1C
330
1B
100
AcDbEntity
 67
     1
  8
0
100
AcDbBlockBegin
  2
*PAPER_SPACE
  1

  0
ENDBLK
  5
1D
330
1B
100
AcDbEntity
 67
     1
  8
0
100
AcDbBlockEnd
  0
ENDSEC
  0
SECTION
  2
ENTITIES
  0
LWPOLYLINE
  5
100
100
AcDbEntity
  8
0
 62
7
100
AcDbPolyline
 90
21
 70
0
 10
5.726638
 20
1.718819
 30
0.0
 10
5.824869
 20
3.092226
 30
0.0
 10
5.824869
 20
8.196722
 30
0.0
 10
5.705703
 20
9.396760
 30
0.0
 10
5.249572
 20
9.787101
 30
0.0
 10
5.249572
 20
11.016546
 30
0.0
 10
5.902166
 20
10.944156
 30
0.0
 10
6.519735
 20
10.756055
 30
0.0
 10
7.045917
 20
10.430624
 30
0.0
 10
7.481114
 20
9.960865
 30
0.0
 10
7.944089
 20
8.782249
 30
0.0
 10
8.014139
 20
6.403567
 30
0.0
 10
8.014139
 20
4.596272
 30
0.0
 10
7.929999
 20
2.195860
 30
0.0
 10
7.508892
 20
1.053480
 30
0.0
 10
7.080942
 20
0.590975
 30
0.0
 10
6.533624
 20
0.258319
 30
0.0
 10
5.930146
 20
0.048628
 30
0.0
 10
5.305531
 20
-0.030789
 30
0.0
 10
5.305531
 20
1.198232
 30
0.0
 10
5.726638
 20
1.718819
 30
0.0
  0
LWPOLYLINE
  5
101
100
AcDbEntity
  8
0
 62
7
100
AcDbPolyline
 90
21
 70
0
 10
4.814375
 20
-0.030789
 30
0.0
 10
4.197007
 20
0.034320
 30
0.0
 10
3.565549
 20
0.243813
 30
0.0
 10
2.562099
 20
1.024666
 30
0.0
 10
2.105968
 20
2.210366
 30
0.0
 10
2.035716
 20
4.596272
 30
0.0
 10
2.035716
 20
6.403567
 30
0.0
 10
2.119857
 20
8.804008
 30
0.0
 10
2.225134
 20
9.389704
 30
0.0
 10
2.526873
 20
9.946359
 30
0.0
 10
3.495498
 20
10.741548
 30
0.0
 10
4.758415
 20
11.016546
 30
0.0
 10
4.758415
 20
9.787101
 30
0.0
 10
4.589932
 20
9.715106
 30
0.0
 10
4.379379
 20
9.440306
 30
0.0
 10
4.224987
 20
8.196722
 30
0.0
 10
4.224987
 20
3.005527
 30
0.0
 10
4.309329
 20
1.689779
 30
0.0
 10
4.512837
 20
1.350068
 30
0.0
 10
4.814375
 20
1.198232
 30
0.0
 10
4.814375
 20
-0.030789
 30
0.0
  0
LWPOLYLINE
  5
102
100
AcDbEntity
  8
!
 62
7
100
AcDbPolyline
 90
5
 70
0
 10
6.026857
 20
3.245557
 30
0.0
 10
4.014111
 20
3.245557
 30
0.0
 10
4.014111
 20
11.014824
 30
0.0
 10
6.026857
 20
11.014824
 30
0.0
 10
6.026857
 20
3.245557
 30
0.0
  0
LWPOLYLINE
  5
103
100
AcDbEntity
  8
!
 62
7
100
AcDbPolyline
 90
5
 70
0
 10
6.026857
 20
0.000001
 30
0.0
 10
4.014111
 20
0.000001
 30
0.0
 10
4.014111
 20
2.124824
 30
0.0
 10
6.026857
 20
2.124824
 30
0.0
 10
6.026857
 20
0.000001
 30
0.0
  0
LWPOLYLINE
  5
104
100
AcDbEntity
  8
|
 62
7
100
AcDbPolyline
 90
5
 70
0
 10
6.026857
 20
-0.282221
 30
0.0
 10
4.014111
 20
-0.282221
 30
0.0
 10
4.014111
 20
11.297046
 30
0.0
 10
6.026857
 20
11.297046
 30
0.0
 10
6.026857
 20
-0.282221
 30
0.0
  0
LWPOLYLINE
  5
105
100
AcDbEntity
  8
#
 62
7
100
AcDbPolyline
 90
21
 70
0
 10
1.960598
 20
0.888042
 30
0.0
 10
3.453693
 20
0.888042
 30
0.0
 10
3.711123
 20
2.917869
 30
0.0
 10
4.208821
 20
2.917869
 30
0.0
 10
4.689358
 20
4.476469
 30
0.0
 10
3.865581
 20
4.476469
 30
0.0
 10
4.140173
 20
6.687511
 30
0.0
 10
4.723682
 20
6.705573
 30
0.0
 10
5.187056
 20
8.300439
 30
0.0
 10
4.260308
 20
8.300439
 30
0.0
 10
4.517738
 20
10.148995
 30
0.0
 10
3.007481
 20
10.148995
 30
0.0
 10
2.801536
 20
8.300439
 30
0.0
 10
1.514385
 20
8.300439
 30
0.0
 10
0.982363
 20
6.687454
 30
0.0
 10
2.647078
 20
6.687454
 30
0.0
 10
2.372486
 20
4.494531
 30
0.0
 10
1.274117
 20
4.494531
 30
0.0
 10
0.724933
 20
2.917812
 30
0.0
 10
2.218028
 20
2.917812
 30
0.0
 10
1.960598
 20
0.888042
 30
0.0
  0
LWPOLYLINE
  5
106
100
AcDbEntity
  8
#
 62
7
100
AcDbPolyline
 90
21
 70
0
 10
8.093806
 20
10.290106
 30
0.0
 10
6.600710
 20
10.290106
 30
0.0
 10
6.343280
 20
8.260279
 30
0.0
 10
5.845582
 20
8.260279
 30
0.0
 10
5.365046
 20
6.701678
 30
0.0
 10
6.188822
 20
6.701678
 30
0.0
 10
5.914230
 20
4.490637
 30
0.0
 10
5.330721
 20
4.472574
 30
0.0
 10
4.867347
 20
2.877708
 30
0.0
 10
5.794096
 20
2.877708
 30
0.0
 10
5.536665
 20
1.029153
 30
0.0
 10
7.046923
 20
1.029153
 30
0.0
 10
7.252867
 20
2.877708
 30
0.0
 10
8.540018
 20
2.877708
 30
0.0
 10
9.072040
 20
4.490693
 30
0.0
 10
7.407325
 20
4.490693
 30
0.0
 10
7.681917
 20
6.683616
 30
0.0
 10
8.780286
 20
6.683616
 30
0.0
 10
9.329471
 20
8.260335
 30
0.0
 10
7.836376
 20
8.260335
 30
0.0
 10
8.093806
 20
10.290106
 30
0.0
  0
LWPOLYLINE
  5
107
100
AcDbEntity
  8
[
 62
7
100
AcDbPolyline
 90
11
 70
0
 10
3.117023
 20
0.000001
 30
0.0
 10
5.411991
 20
0.000001
 30
0.0
 10
7.579079
 20
0.000001
 30
0.0
 10
7.579079
 20
1.814013
 30
0.0
 10
5.407383
 20
1.814013
 30
0.0
 10
5.407383
 20
9.146682
 30
0.0
 10
7.579079
 20
9.146682
 30
0.0
 10
7.579079
 20
11.011776
 30
0.0
 10
5.411991
 20
11.014881
 30
0.0
 10
3.117023
 20
11.014881
 30
0.0
 10
3.117023
 20
0.000058
 30
0.0
  0
LWPOLYLINE
  5
108
100
AcDbEntity
  8
]
 62
7
100
AcDbPolyline
 90
11
 70
0
 10
7.579079
 20
0.000001
 30
0.0
 10
5.284111
 20
0.000001
 30
0.0
 10
3.117023
 20
0.000001
 30
0.0
 10
3.117023
 20
1.814013
 30
0.0
 10
5.288719
 20
1.814013
 30
0.0
 10
5.288719
 20
9.146682
 30
0.0
 10
3.117023
 20
9.146682
 30
0.0
 10
3.117023
 20
11.011776
 30
0.0
 10
5.284111
 20
11.014881
 30
0.0
 10
7.579079
 20
11.014881
 30
0.0
 10
7.579079
 20
0.000058
 30
0.0
  0
LWPOLYLINE
  5
109
100
AcDbEntity
  8
/
 62
7
100
AcDbPolyline
 90
5
 70
0
 10
4.756857
 20
0.000001
 30
0.0
 10
2.461889
 20
0.000001
 30
0.0
 10
5.284111
 20
11.014824
 30
0.0
 10
7.579079
 20
11.014824
 30
0.0
 10
4.756857
 20
0.000001
 30
0.0
  0
LWPOLYLINE
  5
10a
100
AcDbEntity
  8
%
 62
7
100
AcDbPolyline
 90
5
 70
0
 10
4.347772
 20
1.411112
 30
0.0
 10
2.744111
 20
1.411112
 30
0.0
 10
5.566333
 20
9.603713
 30
0.0
 10
7.155746
 20
9.603713
 30
0.0
 10
4.347772
 20
1.411112
 30
0.0
  0
LWPOLYLINE
  5
10b
100
AcDbEntity
  8
%
 62
7
100
AcDbPolyline
 90
15
 70
0
 10
5.738678
 20
2.783192
 30
0.0
 10
5.866305
 20
3.294664
 30
0.0
 10
6.305912
 20
3.761036
 30
0.0
 10
6.830603
 20
3.896446
 30
0.0
 10
7.270209
 20
3.791149
 30
0.0
 10
7.638911
 20
3.415031
 30
0.0
 10
7.823262
 20
3.038914
 30
0.0
 10
7.809080
 20
2.482315
 30
0.0
 10
7.596368
 20
2.076141
 30
0.0
 10
7.326932
 20
1.835434
 30
0.0
 10
6.929868
 20
1.685009
 30
0.0
 10
6.447719
 20
1.760193
 30
0.0
 10
6.022294
 20
2.061098
 30
0.0
 10
5.781219
 20
2.497358
 30
0.0
 10
5.738678
 20
2.783192
 30
0.0
  0
LWPOLYLINE
  5
10c
100
AcDbEntity
  8
%
 62
7
100
AcDbPolyline
 90
15
 70
0
 10
2.069789
 20
8.286526
 30
0.0
 10
2.197416
 20
8.797997
 30
0.0
 10
2.637023
 20
9.264369
 30
0.0
 10
3.161714
 20
9.399779
 30
0.0
 10
3.601320
 20
9.294482
 30
0.0
 10
3.970022
 20
8.918365
 30
0.0
 10
4.154373
 20
8.542247
 30
0.0
 10
4.140191
 20
7.985648
 30
0.0
 10
3.927478
 20
7.579474
 30
0.0
 10
3.658042
 20
7.338767
 30
0.0
 10
3.260978
 20
7.188342
 30
0.0
 10
2.778830
 20
7.263526
 30
0.0
 10
2.353404
 20
7.564432
 30
0.0
 10
2.112330
 20
8.000691
 30
0.0
 10
2.069788
 20
8.286526
 30
0.0
  0
LWPOLYLINE
  5
10d
100
AcDbEntity
  8
\
 62
7
100
AcDbPolyline
 90
5
 70
0
 10
7.579079
 20
0.000001
 30
0.0
 10
5.284111
 20
0.000001
 30
0.0
 10
2.461889
 20
11.014824
 30
0.0
 10
4.756857
 20
11.014824
 30
0.0
 10
7.579079
 20
0.000001
 30
0.0
  0
LWPOLYLINE
  5
10e
100
AcDbEntity
  8
>
 62
7
100
AcDbPolyline
 90
7
 70
0
 10
2.146139
 20
11.037346
 30
0.0
 10
4.343381
 20
11.037346
 30
0.0
 10
8.124707
 20
5.263192
 30
0.0
 10
4.343381
 20
0.000001
 30
0.0
 10
2.146139
 20
0.000001
 30
0.0
 10
5.901896
 20
5.263192
 30
0.0
 10
2.146139
 20
11.037346
 30
0.0
  0
LWPOLYLINE
  5
10f
100
AcDbEntity
  8
<
 62
7
100
AcDbPolyline
 90
7
 70
0
 10
8.124707
 20
11.037346
 30
0.0
 10
5.927465
 20
11.037346
 30
0.0
 10
2.146139
 20
5.263192
 30
0.0
 10
5.927465
 20
0.000001
 30
0.0
 10
8.124707
 20
0.000001
 30
0.0
 10
4.368950
 20
5.263192
 30
0.0
 10
8.124707
 20
11.037346
 30
0.0
  0
LWPOLYLINE
  5
110
100
AcDbEntity
  8
^
 62
7
100
AcDbPolyline
 90
7
 70
0
 10
1.874529
 20
6.052313
 30
0.0
 10
1.874529
 20
7.607160
 30
0.0
 10
5.124119
 20
10.282994
 30
0.0
 10
8.086148
 20
7.607160
 30
0.0
 10
8.086148
 20
6.052313
 30
0.0
 10
5.124119
 20
8.710028
 30
0.0
 10
1.874529
 20
6.052313
 30
0.0
  0
LWPOLYLINE
  5
111
100
AcDbEntity
  8
;
 62
7
100
AcDbPolyline
 90
5
 70
0
 10
5.231898
 20
1.891342
 30
0.0
 10
3.041641
 20
1.891342
 30
0.0
 10
4.020193
 20
4.947046
 30
0.0
 10
6.210450
 20
4.947046
 30
0.0
 10
5.231898
 20
1.891342
 30
0.0
  0
LWPOLYLINE
  5
112
100
AcDbEntity
  8
;
 62
7
100
AcDbPolyline
 90
5
 70
0
 10
3.857955
 20
6.745028
 30
0.0
 10
6.106299
 20
6.745028
 30
0.0
 10
6.106299
 20
9.351068
 30
0.0
 10
3.883504
 20
9.351068
 30
0.0
 10
3.857954
 20
6.745028
 30
0.0
  0
LWPOLYLINE
  5
113
100
AcDbEntity
  8
:
 62
7
100
AcDbPolyline
 90
5
 70
0
 10
6.167968
 20
6.689120
 30
0.0
 10
3.873000
 20
6.689120
 30
0.0
 10
3.873000
 20
9.321491
 30
0.0
 10
6.167968
 20
9.321491
 30
0.0
 10
6.167968
 20
6.689120
 30
0.0
  0
LWPOLYLINE
  5
114
100
AcDbEntity
  8
:
 62
7
100
AcDbPolyline
 90
5
 70
0
 10
6.167968
 20
2.173564
 30
0.0
 10
3.873000
 20
2.173564
 30
0.0
 10
3.873000
 20
4.805935
 30
0.0
 10
6.167968
 20
4.805935
 30
0.0
 10
6.167968
 20
2.173564
 30
0.0
  0
LWPOLYLINE
  5
115
100
AcDbEntity
  8
"
 62
7
100
AcDbPolyline
 90
5
 70
0
 10
4.463629
 20
5.063971
 30
0.0
 10
2.461889
 20
5.063971
 30
0.0
 10
2.461889
 20
9.321491
 30
0.0
 10
4.463629
 20
9.321491
 30
0.0
 10
4.463629
 20
5.063971
 30
0.0
  0
LWPOLYLINE
  5
116
100
AcDbEntity
  8
"
 62
7
100
AcDbPolyline
 90
5
 70
0
 10
7.285851
 20
5.063971
 30
0.0
 10
5.284111
 20
5.063971
 30
0.0
 10
5.284111
 20
9.321491
 30
0.0
 10
7.285851
 20
9.321491
 30
0.0
 10
7.285851
 20
5.063971
 30
0.0
  0
LWPOLYLINE
  5
117
100
AcDbEntity
  8
.
 62
7
100
AcDbPolyline
 90
5
 70
0
 10
3.916578
 20
0.480231
 30
0.0
 10
3.916578
 20
2.548158
 30
0.0
 10
6.194728
 20
2.548158
 30
0.0
 10
6.194728
 20
0.471200
 30
0.0
 10
3.916578
 20
0.480231
 30
0.0
  0
LWPOLYLINE
  5
118
100
AcDbEntity
  8
,
 62
7
100
AcDbPolyline
 90
5
 70
0
 10
3.352134
 20
0.339120
 30
0.0
 10
4.622134
 20
2.830380
 30
0.0
 10
6.900283
 20
2.830380
 30
0.0
 10
5.739023
 20
0.344341
 30
0.0
 10
3.352134
 20
0.339261
 30
0.0
  0
LWPOLYLINE
  5
119
100
AcDbEntity
  8
-
 62
7
100
AcDbPolyline
 90
5
 70
0
 10
7.888061
 20
4.431342
 30
0.0
 10
2.223245
 20
4.431342
 30
0.0
 10
2.223245
 20
7.063713
 30
0.0
 10
7.888061
 20
7.063713
 30
0.0
 10
7.888061
 20
4.431342
 30
0.0
  0
LWPOLYLINE
  5
11a
100
AcDbEntity
  8
+
 62
7
100
AcDbPolyline
 90
13
 70
0
 10
2.222795
 20
4.702275
 30
0.0
 10
4.012430
 20
4.702275
 30
0.0
 10
4.012430
 20
2.912648
 30
0.0
 10
6.079570
 20
2.912648
 30
0.0
 10
6.079570
 20
4.702275
 30
0.0
 10
7.894755
 20
4.702275
 30
0.0
 10
7.894755
 20
6.769412
 30
0.0
 10
6.079570
 20
6.769412
 30
0.0
 10
6.079570
 20
8.610150
 30
0.0
 10
4.012430
 20
8.610150
 30
0.0
 10
4.012430
 20
6.769412
 30
0.0
 10
2.222795
 20
6.769412
 30
0.0
 10
2.222795
 20
4.702275
 30
0.0
  0
LWPOLYLINE
  5
11b
100
AcDbEntity
  8
*
 62
7
100
AcDbPolyline
 90
28
 70
0
 10
4.317843
 20
8.610150
 30
0.0
 10
4.317843
 20
7.613708
 30
0.0
 10
3.551362
 20
8.303544
 30
0.0
 10
2.529387
 20
7.230478
 30
0.0
 10
3.219221
 20
6.489532
 30
0.0
 10
2.197246
 20
6.489532
 30
0.0
 10
2.197246
 20
4.982127
 30
0.0
 10
3.219221
 20
4.982127
 30
0.0
 10
2.529387
 20
4.292291
 30
0.0
 10
3.551362
 20
3.168115
 30
0.0
 10
4.317843
 20
3.883520
 30
0.0
 10
4.266744
 20
2.887078
 30
0.0
 10
5.799707
 20
2.887078
 30
0.0
 10
5.799707
 20
3.934602
 30
0.0
 10
6.566188
 20
3.168115
 30
0.0
 10
7.588163
 20
4.266750
 30
0.0
 10
6.821681
 20
4.982127
 30
0.0
 10
7.971403
 20
4.982127
 30
0.0
 10
7.971403
 20
6.489532
 30
0.0
 10
6.847231
 20
6.489532
 30
0.0
 10
7.588163
 20
7.230478
 30
0.0
 10
6.566188
 20
8.303544
 30
0.0
 10
5.799707
 20
7.588167
 30
0.0
 10
5.799707
 20
8.610150
 30
0.0
 10
4.317843
 20
8.610150
 30
0.0
 10
4.317843
 20
7.613708
 30
0.0
 10
4.317843
 20
7.613708
 30
0.0
 10
4.317843
 20
7.613708
 30
0.0
  0
LWPOLYLINE
  5
11c
100
AcDbEntity
  8
)
 62
7
100
AcDbPolyline
 90
23
 70
0
 10
3.676454
 20
-0.030789
 30
0.0
 10
4.457403
 20
0.077979
 30
0.0
 10
5.171710
 20
0.404313
 30
0.0
 10
6.072923
 20
1.491715
 30
0.0
 10
6.333368
 20
2.622805
 30
0.0
 10
6.453249
 20
5.363719
 30
0.0
 10
6.373200
 20
7.915798
 30
0.0
 10
6.226509
 20
8.916276
 30
0.0
 10
6.086137
 20
9.416684
 30
0.0
 10
5.812479
 20
9.945823
 30
0.0
 10
4.877944
 20
10.714568
 30
0.0
 10
4.297115
 20
10.939189
 30
0.0
 10
3.689476
 20
11.019058
 30
0.0
 10
3.689476
 20
9.655868
 30
0.0
 10
4.016754
 20
9.518200
 30
0.0
 10
4.170148
 20
9.177501
 30
0.0
 10
4.343843
 20
7.582184
 30
0.0
 10
4.397271
 20
5.305497
 30
0.0
 10
4.337139
 20
3.079751
 30
0.0
 10
4.103505
 20
1.825358
 30
0.0
 10
3.956622
 20
1.542459
 30
0.0
 10
3.676454
 20
1.346540
 30
0.0
 10
3.676454
 20
-0.030789
 30
0.0
  0
LWPOLYLINE
  5
11d
100
AcDbEntity
  8
(
 62
7
100
AcDbPolyline
 90
23
 70
0
 10
6.453249
 20
-0.030789
 30
0.0
 10
5.672300
 20
0.077979
 30
0.0
 10
4.957993
 20
0.404313
 30
0.0
 10
4.056780
 20
1.491715
 30
0.0
 10
3.796335
 20
2.622805
 30
0.0
 10
3.676454
 20
5.363719
 30
0.0
 10
3.756503
 20
7.915798
 30
0.0
 10
3.903194
 20
8.916276
 30
0.0
 10
4.043566
 20
9.416684
 30
0.0
 10
4.317224
 20
9.945823
 30
0.0
 10
5.251759
 20
10.714568
 30
0.0
 10
5.832588
 20
10.939189
 30
0.0
 10
6.440227
 20
11.019058
 30
0.0
 10
6.440227
 20
9.655868
 30
0.0
 10
6.112949
 20
9.518200
 30
0.0
 10
5.959555
 20
9.177501
 30
0.0
 10
5.785861
 20
7.582184
 30
0.0
 10
5.732432
 20
5.305497
 30
0.0
 10
5.792564
 20
3.079751
 30
0.0
 10
6.026198
 20
1.825358
 30
0.0
 10
6.173081
 20
1.542459
 30
0.0
 10
6.453249
 20
1.346540
 30
0.0
 10
6.453249
 20
-0.030789
 30
0.0
  0
LWPOLYLINE
  5
11e
100
AcDbEntity
  8
9
 62
7
100
AcDbPolyline
 90
16
 70
0
 10
4.675534
 20
11.037346
 30
0.0
 10
3.270319
 20
10.781850
 30
0.0
 10
2.299443
 20
9.964252
 30
0.0
 10
2.043949
 20
9.274416
 30
0.0
 10
2.018400
 20
8.201351
 30
0.0
 10
2.197246
 20
6.974982
 30
0.0
 10
2.810431
 20
6.080761
 30
0.0
 10
3.717265
 20
5.356861
 30
0.0
 10
5.263170
 20
5.212053
 30
0.0
 10
5.263170
 20
6.566212
 30
0.0
 10
4.241195
 20
7.102744
 30
0.0
 10
4.025560
 20
7.769071
 30
0.0
 10
4.011251
 20
8.712342
 30
0.0
 10
4.241195
 20
9.453260
 30
0.0
 10
4.675534
 20
9.810977
 30
0.0
 10
4.675534
 20
11.037346
 30
0.0
  0
LWPOLYLINE
  5
11f
100
AcDbEntity
  8
9
 62
7
100
AcDbPolyline
 90
23
 70
0
 10
5.263956
 20
11.037346
 30
0.0
 10
6.669171
 20
10.781850
 30
0.0
 10
7.640047
 20
9.964252
 30
0.0
 10
7.895541
 20
9.274416
 30
0.0
 10
7.921090
 20
8.201351
 30
0.0
 10
7.920300
 20
6.974982
 30
0.0
 10
7.920300
 20
4.113447
 30
0.0
 10
7.921090
 20
2.938189
 30
0.0
 10
7.844443
 20
1.762902
 30
0.0
 10
7.640049
 20
1.149718
 30
0.0
 10
6.745819
 20
0.408800
 30
0.0
 10
5.263172
 20
0.178846
 30
0.0
 10
5.263962
 20
1.354132
 30
0.0
 10
5.749400
 20
1.686251
 30
0.0
 10
5.902696
 20
2.069509
 30
0.0
 10
5.927455
 20
4.011254
 30
0.0
 10
5.926665
 20
4.445594
 30
0.0
 10
5.926665
 20
6.515101
 30
0.0
 10
5.927455
 20
7.102744
 30
0.0
 10
5.928245
 20
8.712342
 30
0.0
 10
5.698301
 20
9.453260
 30
0.0
 10
5.263961
 20
9.810977
 30
0.0
 10
5.263958
 20
11.037346
 30
0.0
  0
LWPOLYLINE
  5
120
100
AcDbEntity
  8
9
 62
7
100
AcDbPolyline
 90
9
 70
0
 10
2.210610
 20
2.069509
 30
0.0
 10
2.236159
 20
1.762902
 30
0.0
 10
2.440554
 20
1.149718
 30
0.0
 10
3.334782
 20
0.408800
 30
0.0
 10
4.675534
 20
0.178846
 30
0.0
 10
4.675534
 20
1.354132
 30
0.0
 10
4.190096
 20
1.686251
 30
0.0
 10
4.036800
 20
2.069509
 30
0.0
 10
2.210610
 20
2.069509
 30
0.0
  0
LWPOLYLINE
  5
121
100
AcDbEntity
  8
8
 62
7
100
AcDbPolyline
 90
26
 70
0
 10
4.675534
 20
11.037346
 30
0.0
 10
3.270319
 20
10.781850
 30
0.0
 10
2.299443
 20
9.964252
 30
0.0
 10
2.043949
 20
9.274416
 30
0.0
 10
2.018400
 20
8.201351
 30
0.0
 10
2.197246
 20
6.974982
 30
0.0
 10
2.810431
 20
6.080761
 30
0.0
 10
3.628010
 20
5.518659
 30
0.0
 10
2.708233
 20
5.007696
 30
0.0
 10
2.197246
 20
4.113447
 30
0.0
 10
2.018400
 20
2.938189
 30
0.0
 10
2.095048
 20
1.762902
 30
0.0
 10
2.299443
 20
1.149718
 30
0.0
 10
3.193671
 20
0.408800
 30
0.0
 10
4.675534
 20
0.178846
 30
0.0
 10
4.675534
 20
1.354132
 30
0.0
 10
4.190096
 20
1.686251
 30
0.0
 10
4.036800
 20
2.069509
 30
0.0
 10
4.241195
 20
4.011254
 30
0.0
 10
4.675534
 20
4.522246
 30
0.0
 10
4.675534
 20
6.591753
 30
0.0
 10
4.241195
 20
7.102744
 30
0.0
 10
4.011251
 20
8.712342
 30
0.0
 10
4.241195
 20
9.453260
 30
0.0
 10
4.675534
 20
9.810977
 30
0.0
 10
4.675534
 20
11.037346
 30
0.0
  0
LWPOLYLINE
  5
122
100
AcDbEntity
  8
8
 62
7
100
AcDbPolyline
 90
26
 70
0
 10
5.263956
 20
11.037346
 30
0.0
 10
6.669171
 20
10.781850
 30
0.0
 10
7.640047
 20
9.964252
 30
0.0
 10
7.895541
 20
9.274416
 30
0.0
 10
7.921090
 20
8.201351
 30
0.0
 10
7.742247
 20
6.974982
 30
0.0
 10
7.129061
 20
6.080761
 30
0.0
 10
6.311481
 20
5.518659
 30
0.0
 10
7.231259
 20
5.007696
 30
0.0
 10
7.742247
 20
4.113447
 30
0.0
 10
7.921090
 20
2.938189
 30
0.0
 10
7.844443
 20
1.762902
 30
0.0
 10
7.640049
 20
1.149718
 30
0.0
 10
6.745819
 20
0.408800
 30
0.0
 10
5.263172
 20
0.178846
 30
0.0
 10
5.263962
 20
1.354132
 30
0.0
 10
5.749400
 20
1.686251
 30
0.0
 10
5.902696
 20
2.069509
 30
0.0
 10
5.698301
 20
4.011254
 30
0.0
 10
5.263962
 20
4.522246
 30
0.0
 10
5.263962
 20
6.591753
 30
0.0
 10
5.698301
 20
7.102744
 30
0.0
 10
5.928245
 20
8.712342
 30
0.0
 10
5.698301
 20
9.453260
 30
0.0
 10
5.263962
 20
9.810977
 30
0.0
 10
5.263958
 20
11.037346
 30
0.0
  0
LWPOLYLINE
  5
123
100
AcDbEntity
  8
7
 62
7
100
AcDbPolyline
 90
7
 70
0
 10
2.448519
 20
11.061673
 30
0.0
 10
7.635877
 20
11.061673
 30
0.0
 10
6.365877
 20
0.032090
 30
0.0
 10
4.192935
 20
0.032090
 30
0.0
 10
5.462935
 20
9.166551
 30
0.0
 10
2.448519
 20
9.166551
 30
0.0
 10
2.448519
 20
11.061673
 30
0.0
  0
LWPOLYLINE
  5
124
100
AcDbEntity
  8
6
 62
7
100
AcDbPolyline
 90
16
 70
0
 10
5.263956
 20
0.178846
 30
0.0
 10
6.669171
 20
0.434341
 30
0.0
 10
7.640047
 20
1.251939
 30
0.0
 10
7.895541
 20
1.941775
 30
0.0
 10
7.921090
 20
3.014840
 30
0.0
 10
7.742247
 20
4.241209
 30
0.0
 10
7.129061
 20
5.135430
 30
0.0
 10
6.222226
 20
5.859330
 30
0.0
 10
4.676321
 20
6.004138
 30
0.0
 10
4.676321
 20
4.649979
 30
0.0
 10
5.698298
 20
4.113447
 30
0.0
 10
5.913933
 20
3.447120
 30
0.0
 10
5.928241
 20
2.503849
 30
0.0
 10
5.698297
 20
1.762931
 30
0.0
 10
5.263957
 20
1.405214
 30
0.0
 10
5.263957
 20
0.178846
 30
0.0
  0
LWPOLYLINE
  5
125
100
AcDbEntity
  8
6
 62
7
100
AcDbPolyline
 90
23
 70
0
 10
4.675535
 20
0.178846
 30
0.0
 10
3.270319
 20
0.434341
 30
0.0
 10
2.299444
 20
1.251939
 30
0.0
 10
2.043950
 20
1.941775
 30
0.0
 10
2.018400
 20
3.014840
 30
0.0
 10
2.019190
 20
4.241209
 30
0.0
 10
2.019190
 20
7.102744
 30
0.0
 10
2.018400
 20
8.278002
 30
0.0
 10
2.095048
 20
9.453289
 30
0.0
 10
2.299443
 20
10.066473
 30
0.0
 10
3.193671
 20
10.807391
 30
0.0
 10
4.676321
 20
11.037346
 30
0.0
 10
4.675531
 20
9.862059
 30
0.0
 10
4.190093
 20
9.529940
 30
0.0
 10
4.036797
 20
9.146682
 30
0.0
 10
4.012037
 20
7.204937
 30
0.0
 10
4.012827
 20
6.770597
 30
0.0
 10
4.012827
 20
4.701090
 30
0.0
 10
4.012037
 20
4.113447
 30
0.0
 10
4.011247
 20
2.503849
 30
0.0
 10
4.241191
 20
1.762931
 30
0.0
 10
4.675530
 20
1.405214
 30
0.0
 10
4.675535
 20
0.178846
 30
0.0
  0
LWPOLYLINE
  5
126
100
AcDbEntity
  8
6
 62
7
100
AcDbPolyline
 90
9
 70
0
 10
7.728880
 20
9.146682
 30
0.0
 10
7.703330
 20
9.453289
 30
0.0
 10
7.498935
 20
10.066473
 30
0.0
 10
6.604708
 20
10.807391
 30
0.0
 10
5.263956
 20
11.037346
 30
0.0
 10
5.263956
 20
9.862059
 30
0.0
 10
5.749394
 20
9.529940
 30
0.0
 10
5.902689
 20
9.146682
 30
0.0
 10
7.728879
 20
9.146682
 30
0.0
  0
LWPOLYLINE
  5
127
100
AcDbEntity
  8
5
 62
7
100
AcDbPolyline
 90
29
 70
0
 10
5.181711
 20
-0.001269
 30
0.0
 10
5.181711
 20
1.224168
 30
0.0
 10
5.425161
 20
1.346568
 30
0.0
 10
5.632690
 20
1.606100
 30
0.0
 10
5.797318
 20
1.973553
 30
0.0
 10
5.854587
 20
2.478110
 30
0.0
 10
5.496596
 20
4.035215
 30
0.0
 10
4.036711
 20
5.131196
 30
0.0
 10
3.349875
 20
5.606769
 30
0.0
 10
2.655855
 20
6.154562
 30
0.0
 10
1.967301
 20
6.897146
 30
0.0
 10
1.961834
 20
8.158538
 30
0.0
 10
1.967301
 20
9.018920
 30
0.0
 10
1.967301
 20
11.011776
 30
0.0
 10
3.163899
 20
11.011776
 30
0.0
 10
3.876284
 20
11.011776
 30
0.0
 10
4.675534
 20
11.011776
 30
0.0
 10
4.675534
 20
9.018920
 30
0.0
 10
4.322105
 20
9.018920
 30
0.0
 10
3.942914
 20
9.018920
 30
0.0
 10
4.001144
 20
7.582014
 30
0.0
 10
4.494875
 20
7.257572
 30
0.0
 10
5.152973
 20
6.832206
 30
0.0
 10
7.478689
 20
5.023021
 30
0.0
 10
7.943833
 20
2.780822
 30
0.0
 10
7.865215
 20
1.865377
 30
0.0
 10
7.657685
 20
1.180734
 30
0.0
 10
6.720215
 20
0.337454
 30
0.0
 10
5.181711
 20
-0.001269
 30
0.0
  0
LWPOLYLINE
  5
128
100
AcDbEntity
  8
5
 62
7
100
AcDbPolyline
 90
13
 70
0
 10
3.178269
 20
0.402394
 30
0.0
 10
2.247981
 20
1.353596
 30
0.0
 10
2.018899
 20
3.198962
 30
0.0
 10
2.018899
 20
3.588570
 30
0.0
 10
4.036711
 20
3.588570
 30
0.0
 10
4.036711
 20
2.564950
 30
0.0
 10
4.079818
 20
1.944823
 30
0.0
 10
4.201542
 20
1.562863
 30
0.0
 10
4.387518
 20
1.339315
 30
0.0
 10
4.680849
 20
1.224168
 30
0.0
 10
4.680849
 20
-0.001269
 30
0.0
 10
3.915190
 20
0.106681
 30
0.0
 10
3.178269
 20
0.402394
 30
0.0
  0
LWPOLYLINE
  5
129
100
AcDbEntity
  8
5
 62
7
100
AcDbPolyline
 90
5
 70
0
 10
5.263170
 20
9.018920
 30
0.0
 10
7.779193
 20
9.018920
 30
0.0
 10
7.779193
 20
11.011776
 30
0.0
 10
5.263170
 20
11.011776
 30
0.0
 10
5.263170
 20
9.018920
 30
0.0
  0
LWPOLYLINE
  5
12a
100
AcDbEntity
  8
4
 62
7
100
AcDbPolyline
 90
5
 70
0
 10
5.836734
 20
0.000001
 30
0.0
 10
7.704944
 20
0.000001
 30
0.0
 10
7.704944
 20
11.014824
 30
0.0
 10
5.836734
 20
11.014824
 30
0.0
 10
5.836734
 20
0.000001
 30
0.0
  0
LWPOLYLINE
  5
12b
100
AcDbEntity
  8
4
 62
7
100
AcDbPolyline
 90
9
 70
0
 10
5.124141
 20
4.765493
 30
0.0
 10
2.050952
 20
4.765493
 30
0.0
 10
2.050952
 20
6.661462
 30
0.0
 10
3.912811
 20
10.991456
 30
0.0
 10
5.303598
 20
11.017138
 30
0.0
 10
5.281167
 20
9.300522
 30
0.0
 10
4.024972
 20
6.661518
 30
0.0
 10
5.169006
 20
6.661518
 30
0.0
 10
5.124141
 20
4.765493
 30
0.0
  0
LWPOLYLINE
  5
12c
100
AcDbEntity
  8
3
 62
7
100
AcDbPolyline
 90
12
 70
0
 10
3.321548
 20
10.667268
 30
0.0
 10
2.398240
 20
9.859773
 30
0.0
 10
2.176548
 20
8.129582
 30
0.0
 10
2.176548
 20
8.028687
 30
0.0
 10
4.194358
 20
8.028687
 30
0.0
 10
4.194358
 20
8.519161
 30
0.0
 10
4.244444
 20
9.102712
 30
0.0
 10
4.380333
 20
9.470391
 30
0.0
 10
4.766653
 20
9.758653
 30
0.0
 10
4.766653
 20
10.984457
 30
0.0
 10
4.044100
 20
10.905068
 30
0.0
 10
3.321548
 20
10.667268
 30
0.0
  0
LWPOLYLINE
  5
12d
100
AcDbEntity
  8
3
 62
7
100
AcDbPolyline
 90
13
 70
0
 10
3.178269
 20
0.402394
 30
0.0
 10
2.247981
 20
1.353596
 30
0.0
 10
2.018899
 20
3.198962
 30
0.0
 10
2.018899
 20
3.588570
 30
0.0
 10
4.036711
 20
3.588570
 30
0.0
 10
4.036711
 20
2.564950
 30
0.0
 10
4.079818
 20
1.944823
 30
0.0
 10
4.201542
 20
1.562863
 30
0.0
 10
4.387518
 20
1.339315
 30
0.0
 10
4.680849
 20
1.224168
 30
0.0
 10
4.680849
 20
-0.001269
 30
0.0
 10
3.915190
 20
0.106681
 30
0.0
 10
3.178269
 20
0.402394
 30
0.0
  0
LWPOLYLINE
  5
12e
100
AcDbEntity
  8
3
 62
7
100
AcDbPolyline
 90
17
 70
0
 10
6.328447
 20
5.508584
 30
0.0
 10
6.555792
 20
5.606769
 30
0.0
 10
7.249812
 20
6.154562
 30
0.0
 10
7.743489
 20
6.897146
 30
0.0
 10
7.943833
 20
8.158538
 30
0.0
 10
7.886563
 20
9.189354
 30
0.0
 10
7.657686
 20
9.874026
 30
0.0
 10
6.741768
 20
10.695800
 30
0.0
 10
6.054932
 20
10.905068
 30
0.0
 10
5.267513
 20
10.984457
 30
0.0
 10
5.267513
 20
9.758653
 30
0.0
 10
5.711309
 20
9.398425
 30
0.0
 10
5.861567
 20
9.045252
 30
0.0
 10
5.911654
 20
8.562172
 30
0.0
 10
5.725677
 20
7.017570
 30
0.0
 10
5.410792
 20
6.693127
 30
0.0
 10
4.534960
 20
5.508584
 30
0.0
  0
LWPOLYLINE
  5
12f
100
AcDbEntity
  8
3
 62
7
100
AcDbPolyline
 90
17
 70
0
 10
6.328447
 20
5.508584
 30
0.0
 10
6.555792
 20
5.410399
 30
0.0
 10
7.249812
 20
4.862606
 30
0.0
 10
7.743489
 20
4.120022
 30
0.0
 10
7.943833
 20
2.858630
 30
0.0
 10
7.886563
 20
1.827814
 30
0.0
 10
7.657686
 20
1.143142
 30
0.0
 10
6.741768
 20
0.321368
 30
0.0
 10
6.054932
 20
0.112100
 30
0.0
 10
5.267513
 20
0.032711
 30
0.0
 10
5.267513
 20
1.258515
 30
0.0
 10
5.711309
 20
1.618743
 30
0.0
 10
5.861567
 20
1.971916
 30
0.0
 10
5.911654
 20
2.454996
 30
0.0
 10
5.725677
 20
3.999598
 30
0.0
 10
5.410792
 20
4.324041
 30
0.0
 10
4.534960
 20
5.508584
 30
0.0
  0
LWPOLYLINE
  5
130
100
AcDbEntity
  8
2
 62
7
100
AcDbPolyline
 90
12
 70
0
 10
3.321548
 20
10.667268
 30
0.0
 10
2.398240
 20
9.859773
 30
0.0
 10
2.176548
 20
8.129582
 30
0.0
 10
2.176548
 20
8.028687
 30
0.0
 10
4.194358
 20
8.028687
 30
0.0
 10
4.194358
 20
8.519161
 30
0.0
 10
4.244444
 20
9.102712
 30
0.0
 10
4.380333
 20
9.470391
 30
0.0
 10
4.766653
 20
9.758653
 30
0.0
 10
4.766653
 20
10.984457
 30
0.0
 10
4.044100
 20
10.905068
 30
0.0
 10
3.321548
 20
10.667268
 30
0.0
  0
LWPOLYLINE
  5
131
100
AcDbEntity
  8
2
 62
7
100
AcDbPolyline
 90
31
 70
0
 10
4.723956
 20
-0.001269
 30
0.0
 10
4.723956
 20
1.781727
 30
0.0
 10
4.480506
 20
1.904126
 30
0.0
 10
4.272977
 20
2.163658
 30
0.0
 10
4.108349
 20
2.531111
 30
0.0
 10
4.051080
 20
3.035668
 30
0.0
 10
4.409071
 20
4.035215
 30
0.0
 10
5.868956
 20
5.131196
 30
0.0
 10
6.555792
 20
5.606769
 30
0.0
 10
7.249812
 20
6.154562
 30
0.0
 10
7.743489
 20
6.897146
 30
0.0
 10
7.943833
 20
8.158538
 30
0.0
 10
7.886563
 20
9.189354
 30
0.0
 10
7.657686
 20
9.874026
 30
0.0
 10
6.741768
 20
10.695800
 30
0.0
 10
6.054932
 20
10.905068
 30
0.0
 10
5.267513
 20
10.984457
 30
0.0
 10
5.267513
 20
9.758653
 30
0.0
 10
5.711309
 20
9.398425
 30
0.0
 10
5.861567
 20
9.045252
 30
0.0
 10
5.911654
 20
8.562172
 30
0.0
 10
5.725677
 20
7.582014
 30
0.0
 10
5.410792
 20
7.257572
 30
0.0
 10
4.752694
 20
6.832206
 30
0.0
 10
2.984550
 20
5.261978
 30
0.0
 10
2.280446
 20
3.072893
 30
0.0
 10
2.093554
 20
1.812263
 30
0.0
 10
2.062125
 20
0.159316
 30
0.0
 10
3.212003
 20
0.159316
 30
0.0
 10
4.723956
 20
0.159316
 30
0.0
 10
4.723956
 20
-0.001269
 30
0.0
  0
LWPOLYLINE
  5
132
100
AcDbEntity
  8
2
 62
7
100
AcDbPolyline
 90
8
 70
0
 10
7.899361
 20
0.159316
 30
0.0
 10
7.891343
 20
1.805490
 30
0.0
 10
5.510075
 20
1.805490
 30
0.0
 10
5.277920
 20
1.805490
 30
0.0
 10
5.277920
 20
0.159316
 30
0.0
 10
5.856333
 20
0.159316
 30
0.0
 10
6.616167
 20
0.159316
 30
0.0
 10
7.899361
 20
0.159316
 30
0.0
  0
LWPOLYLINE
  5
133
100
AcDbEntity
  8
1
 62
7
100
AcDbPolyline
 90
8
 70
0
 10
6.732413
 20
0.000001
 30
0.0
 10
4.437444
 20
0.000001
 30
0.0
 10
4.414347
 20
8.579021
 30
0.0
 10
3.295750
 20
7.779457
 30
0.0
 10
2.034897
 20
9.412705
 30
0.0
 10
4.437445
 20
11.014824
 30
0.0
 10
6.732414
 20
11.014824
 30
0.0
 10
6.732414
 20
0.000001
 30
0.0
  0
LWPOLYLINE
  5
134
100
AcDbEntity
  8
border
 62
7
100
AcDbPolyline
 90
5
 70
0
 10
0.000000
 20
11.000008
 30
0.0
 10
10.000000
 20
11.000008
 30
0.0
 10
10.000000
 20
0.000001
 30
0.0
 10
0.000000
 20
0.000001
 30
0.0
 10
0.000000
 20
11.000008
 30
0.0
  0
LWPOLYLINE
  5
135
100
AcDbEntity
  8
Z
 62
7
100
AcDbPolyline
 90
11
 70
0
 10
7.947973
 20
0.000001
 30
0.0
 10
1.985303
 20
0.000001
 30
0.0
 10
2.016271
 20
1.868736
 30
0.0
 10
5.311999
 20
9.161951
 30
0.0
 10
2.029054
 20
9.137397
 30
0.0
 10
2.029054
 20
11.046941
 30
0.0
 10
7.947973
 20
11.046941
 30
0.0
 10
7.942142
 20
9.419620
 30
0.0
 10
4.534236
 20
1.894587
 30
0.0
 10
7.947974
 20
1.894587
 30
0.0
 10
7.947974
 20
0.000030
 30
0.0
  0
LWPOLYLINE
  5
136
100
AcDbEntity
  8
Y
 62
7
100
AcDbPolyline
 90
11
 70
0
 10
3.919589
 20
0.000001
 30
0.0
 10
3.919589
 20
3.944678
 30
0.0
 10
2.018860
 20
11.000064
 30
0.0
 10
3.838764
 20
11.000064
 30
0.0
 10
4.890256
 20
6.832517
 30
0.0
 10
5.133116
 20
6.832517
 30
0.0
 10
6.171073
 20
11.000064
 30
0.0
 10
7.990977
 20
11.000064
 30
0.0
 10
6.090248
 20
3.944678
 30
0.0
 10
6.090248
 20
0.000001
 30
0.0
 10
3.919589
 20
0.000001
 30
0.0
  0
LWPOLYLINE
  5
137
100
AcDbEntity
  8
X
 62
7
100
AcDbPolyline
 90
15
 70
0
 10
6.016120
 20
0.000001
 30
0.0
 10
8.002613
 20
0.000001
 30
0.0
 10
6.660575
 20
5.775566
 30
0.0
 10
8.002613
 20
11.014824
 30
0.0
 10
6.029595
 20
11.014824
 30
0.0
 10
5.103720
 20
7.070232
 30
0.0
 10
4.902376
 20
7.070232
 30
0.0
 10
3.976501
 20
11.014824
 30
0.0
 10
2.003483
 20
11.014824
 30
0.0
 10
3.345520
 20
5.775566
 30
0.0
 10
2.003483
 20
0.000001
 30
0.0
 10
3.989975
 20
0.000001
 30
0.0
 10
4.902376
 20
4.227267
 30
0.0
 10
5.103720
 20
4.227267
 30
0.0
 10
6.016120
 20
0.000001
 30
0.0
  0
LWPOLYLINE
  5
138
100
AcDbEntity
  8
W
 62
7
100
AcDbPolyline
 90
17
 70
0
 10
8.291508
 20
10.986348
 30
0.0
 10
7.381493
 20
0.003614
 30
0.0
 10
5.502797
 20
0.003614
 30
0.0
 10
5.032912
 20
5.509882
 30
0.0
 10
4.935230
 20
5.509882
 30
0.0
 10
4.455802
 20
0.003614
 30
0.0
 10
2.586649
 20
0.003614
 30
0.0
 10
1.667090
 20
10.986348
 30
0.0
 10
3.027061
 20
10.986348
 30
0.0
 10
3.604452
 20
3.892015
 30
0.0
 10
3.741431
 20
3.892015
 30
0.0
 10
4.465345
 20
10.689591
 30
0.0
 10
5.492972
 20
10.689591
 30
0.0
 10
6.216886
 20
3.892015
 30
0.0
 10
6.344041
 20
3.892015
 30
0.0
 10
6.931257
 20
10.986348
 30
0.0
 10
8.291508
 20
10.986348
 30
0.0
  0
LWPOLYLINE
  5
139
100
AcDbEntity
  8
V
 62
7
100
AcDbPolyline
 90
9
 70
0
 10
7.990773
 20
11.014824
 30
0.0
 10
6.772581
 20
0.000001
 30
0.0
 10
3.406249
 20
0.000001
 30
0.0
 10
1.999617
 20
11.014824
 30
0.0
 10
4.084704
 20
11.014824
 30
0.0
 10
4.938627
 20
3.289612
 30
0.0
 10
5.139678
 20
3.289612
 30
0.0
 10
5.930908
 20
11.014824
 30
0.0
 10
7.990773
 20
11.014824
 30
0.0
  0
LWPOLYLINE
  5
13a
100
AcDbEntity
  8
U
 62
7
100
AcDbPolyline
 90
11
 70
0
 10
3.495150
 20
0.272628
 30
0.0
 10
2.481473
 20
1.045155
 30
0.0
 10
2.098777
 20
2.118982
 30
0.0
 10
2.035130
 20
4.583177
 30
0.0
 10
2.035130
 20
10.982764
 30
0.0
 10
4.246715
 20
10.982764
 30
0.0
 10
4.246715
 20
2.744443
 30
0.0
 10
4.360182
 20
1.604124
 30
0.0
 10
4.757112
 20
1.228938
 30
0.0
 10
4.757112
 20
-0.021504
 30
0.0
 10
3.495150
 20
0.272628
 30
0.0
  0
LWPOLYLINE
  5
13b
100
AcDbEntity
  8
U
 62
7
100
AcDbPolyline
 90
13
 70
0
 10
5.253275
 20
-0.036292
 30
0.0
 10
5.253275
 20
1.228938
 30
0.0
 10
5.678673
 20
1.655602
 30
0.0
 10
5.763468
 20
2.082265
 30
0.0
 10
5.791734
 20
2.891283
 30
0.0
 10
5.791734
 20
10.982764
 30
0.0
 10
7.989491
 20
10.982764
 30
0.0
 10
7.989491
 20
3.685965
 30
0.0
 10
7.904493
 20
1.891088
 30
0.0
 10
7.493328
 20
0.949566
 30
0.0
 10
7.096194
 20
0.537465
 30
0.0
 10
6.557532
 20
0.213982
 30
0.0
 10
5.253275
 20
-0.036292
 30
0.0
  0
LWPOLYLINE
  5
13c
100
AcDbEntity
  8
T
 62
7
100
AcDbPolyline
 90
9
 70
0
 10
7.981230
 20
9.364897
 30
0.0
 10
6.147135
 20
9.364897
 30
0.0
 10
6.147135
 20
0.000001
 30
0.0
 10
3.802013
 20
0.000001
 30
0.0
 10
3.802013
 20
9.364897
 30
0.0
 10
1.983013
 20
9.364897
 30
0.0
 10
1.983013
 20
10.982764
 30
0.0
 10
7.981230
 20
10.982764
 30
0.0
 10
7.981230
 20
9.364897
 30
0.0
  0
LWPOLYLINE
  5
13d
100
AcDbEntity
  8
S
 62
7
100
AcDbPolyline
 90
12
 70
0
 10
6.584119
 20
10.667268
 30
0.0
 10
7.507427
 20
9.859773
 30
0.0
 10
7.729119
 20
8.129582
 30
0.0
 10
7.729119
 20
8.028687
 30
0.0
 10
5.711309
 20
8.028687
 30
0.0
 10
5.711309
 20
8.519161
 30
0.0
 10
5.661223
 20
9.102712
 30
0.0
 10
5.525334
 20
9.470391
 30
0.0
 10
5.139014
 20
9.758653
 30
0.0
 10
5.139014
 20
10.984457
 30
0.0
 10
5.861567
 20
10.905068
 30
0.0
 10
6.584119
 20
10.667268
 30
0.0
  0
LWPOLYLINE
  5
13e
100
AcDbEntity
  8
S
 62
7
100
AcDbPolyline
 90
30
 70
0
 10
5.181711
 20
-0.001269
 30
0.0
 10
5.181711
 20
1.224168
 30
0.0
 10
5.425161
 20
1.346568
 30
0.0
 10
5.632690
 20
1.606100
 30
0.0
 10
5.797318
 20
1.973553
 30
0.0
 10
5.854587
 20
2.478110
 30
0.0
 10
5.496596
 20
4.035215
 30
0.0
 10
4.036711
 20
5.131196
 30
0.0
 10
3.349875
 20
5.606769
 30
0.0
 10
2.655855
 20
6.154562
 30
0.0
 10
2.162178
 20
6.897146
 30
0.0
 10
1.961834
 20
8.158538
 30
0.0
 10
2.019104
 20
9.189354
 30
0.0
 10
2.247981
 20
9.874026
 30
0.0
 10
3.163899
 20
10.695800
 30
0.0
 10
3.850735
 20
10.905068
 30
0.0
 10
4.638154
 20
10.984457
 30
0.0
 10
4.638154
 20
9.758653
 30
0.0
 10
4.194358
 20
9.398425
 30
0.0
 10
4.044100
 20
9.045252
 30
0.0
 10
3.994013
 20
8.562172
 30
0.0
 10
4.179990
 20
7.582014
 30
0.0
 10
4.494875
 20
7.257572
 30
0.0
 10
5.152973
 20
6.832206
 30
0.0
 10
7.478689
 20
5.023021
 30
0.0
 10
7.943833
 20
2.780822
 30
0.0
 10
7.865215
 20
1.865377
 30
0.0
 10
7.657685
 20
1.180734
 30
0.0
 10
6.720215
 20
0.337454
 30
0.0
 10
5.181711
 20
-0.001269
 30
0.0
  0
LWPOLYLINE
  5
13f
100
AcDbEntity
  8
S
 62
7
100
AcDbPolyline
 90
13
 70
0
 10
3.178269
 20
0.402394
 30
0.0
 10
2.247981
 20
1.353596
 30
0.0
 10
2.018899
 20
3.198962
 30
0.0
 10
2.018899
 20
3.588570
 30
0.0
 10
4.036711
 20
3.588570
 30
0.0
 10
4.036711
 20
2.564950
 30
0.0
 10
4.079818
 20
1.944823
 30
0.0
 10
4.201542
 20
1.562863
 30
0.0
 10
4.387518
 20
1.339315
 30
0.0
 10
4.680849
 20
1.224168
 30
0.0
 10
4.680849
 20
-0.001269
 30
0.0
 10
3.915190
 20
0.106681
 30
0.0
 10
3.178269
 20
0.402394
 30
0.0
  0
LWPOLYLINE
  5
140
100
AcDbEntity
  8
R
 62
7
100
AcDbPolyline
 90
7
 70
0
 10
4.286390
 20
6.404329
 30
0.0
 10
4.286390
 20
5.314472
 30
0.0
 10
4.286390
 20
0.000001
 30
0.0
 10
2.015888
 20
0.000001
 30
0.0
 10
2.015888
 20
11.031899
 30
0.0
 10
4.286390
 20
11.031899
 30
0.0
 10
4.286390
 20
6.404329
 30
0.0
  0
LWPOLYLINE
  5
141
100
AcDbEntity
  8
R
 62
7
100
AcDbPolyline
 90
33
 70
0
 10
4.970296
 20
6.433878
 30
0.0
 10
5.312458
 20
6.471357
 30
0.0
 10
5.545229
 20
6.620822
 30
0.0
 10
5.807226
 20
7.038765
 30
0.0
 10
5.916409
 20
7.852242
 30
0.0
 10
5.916409
 20
8.464156
 30
0.0
 10
5.836452
 20
9.091339
 30
0.0
 10
5.581553
 20
9.494521
 30
0.0
 10
5.363396
 20
9.643760
 30
0.0
 10
4.970296
 20
9.733056
 30
0.0
 10
4.970296
 20
11.046913
 30
0.0
 10
5.778208
 20
11.039575
 30
0.0
 10
6.527665
 20
10.927589
 30
0.0
 10
7.568347
 20
10.143886
 30
0.0
 10
7.968545
 20
8.210834
 30
0.0
 10
7.917607
 20
7.158229
 30
0.0
 10
7.713855
 20
6.591019
 30
0.0
 10
7.306350
 20
6.210301
 30
0.0
 10
6.746031
 20
6.016104
 30
0.0
 10
6.746031
 20
5.732584
 30
0.0
 10
7.270026
 20
5.493654
 30
0.0
 10
7.604881
 20
5.150613
 30
0.0
 10
7.779406
 20
4.784684
 30
0.0
 10
7.910509
 20
4.389234
 30
0.0
 10
7.968545
 20
2.731912
 30
0.0
 10
7.968545
 20
0.000171
 30
0.0
 10
5.916409
 20
0.000171
 30
0.0
 10
5.916409
 20
3.553292
 30
0.0
 10
5.858164
 20
4.448727
 30
0.0
 10
5.698043
 20
4.933951
 30
0.0
 10
5.457966
 20
5.157895
 30
0.0
 10
4.970296
 20
5.284669
 30
0.0
 10
4.970296
 20
6.433991
 30
0.0
  0
LWPOLYLINE
  5
142
100
AcDbEntity
  8
Q
 62
7
100
AcDbPolyline
 90
20
 70
0
 10
4.630292
 20
9.737515
 30
0.0
 10
4.412693
 20
9.635604
 30
0.0
 10
4.244210
 20
9.439093
 30
0.0
 10
4.110752
 20
8.973172
 30
0.0
 10
4.054591
 20
8.136158
 30
0.0
 10
4.054591
 20
2.763267
 30
0.0
 10
4.159868
 20
1.351140
 30
0.0
 10
4.630292
 20
0.958089
 30
0.0
 10
4.630292
 20
-0.017553
 30
0.0
 10
3.584571
 20
0.106258
 30
0.0
 10
2.875816
 20
0.433918
 30
0.0
 10
2.075874
 20
1.540342
 30
0.0
 10
1.865321
 20
3.738938
 30
0.0
 10
1.865321
 20
7.291636
 30
0.0
 10
1.977643
 20
9.009522
 30
0.0
 10
2.469001
 20
10.006896
 30
0.0
 10
3.409244
 20
10.727804
 30
0.0
 10
3.991587
 20
10.917006
 30
0.0
 10
4.630292
 20
10.989678
 30
0.0
 10
4.630292
 20
9.737515
 30
0.0
  0
LWPOLYLINE
  5
143
100
AcDbEntity
  8
Q
 62
7
100
AcDbPolyline
 90
33
 70
0
 10
5.079177
 20
11.004326
 30
0.0
 10
5.703589
 20
10.938737
 30
0.0
 10
6.328405
 20
10.713185
 30
0.0
 10
7.310719
 20
9.926716
 30
0.0
 10
7.570186
 20
9.446402
 30
0.0
 10
7.731624
 20
8.892993
 30
0.0
 10
7.815764
 20
8.245180
 30
0.0
 10
7.843744
 20
7.364308
 30
0.0
 10
7.745455
 20
3.398888
 30
0.0
 10
8.287968
 20
3.248182
 30
0.0
 10
8.099025
 20
1.967626
 30
0.0
 10
7.642981
 20
2.066828
 30
0.0
 10
7.353178
 20
1.347528
 30
0.0
 10
7.219528
 20
0.892529
 30
0.0
 10
7.069725
 20
0.659752
 30
0.0
 10
6.937599
 20
0.476364
 30
0.0
 10
6.817354
 20
0.360032
 30
0.0
 10
6.619523
 20
0.220219
 30
0.0
 10
6.381409
 20
0.134254
 30
0.0
 10
6.158080
 20
0.081056
 30
0.0
 10
5.867970
 20
0.015185
 30
0.0
 10
5.499602
 20
-0.025568
 30
0.0
 10
5.101606
 20
-0.040244
 30
0.0
 10
5.122967
 20
0.975192
 30
0.0
 10
5.772623
 20
1.403464
 30
0.0
 10
5.791828
 20
2.507546
 30
0.0
 10
4.876962
 20
2.860493
 30
0.0
 10
5.017385
 20
4.092393
 30
0.0
 10
5.684797
 20
3.851911
 30
0.0
 10
5.654467
 20
8.136214
 30
0.0
 10
5.542347
 20
9.293607
 30
0.0
 10
5.079170
 20
9.722952
 30
0.0
 10
5.079170
 20
11.004382
 30
0.0
  0
LWPOLYLINE
  5
144
100
AcDbEntity
  8
P
 62
7
100
AcDbPolyline
 90
5
 70
0
 10
4.369457
 20
0.000001
 30
0.0
 10
2.012936
 20
0.000001
 30
0.0
 10
2.012936
 20
11.046913
 30
0.0
 10
4.369457
 20
11.046913
 30
0.0
 10
4.369457
 20
0.000001
 30
0.0
  0
LWPOLYLINE
  5
145
100
AcDbEntity
  8
P
 62
7
100
AcDbPolyline
 90
26
 70
0
 10
4.992601
 20
11.046913
 30
0.0
 10
5.957842
 20
11.002152
 30
0.0
 10
6.634404
 20
10.867899
 30
0.0
 10
7.485612
 20
10.404970
 30
0.0
 10
7.759028
 20
10.069210
 30
0.0
 10
7.903585
 20
9.703507
 30
0.0
 10
7.972048
 20
9.128592
 30
0.0
 10
7.987093
 20
8.270185
 30
0.0
 10
7.987093
 20
7.090806
 30
0.0
 10
7.926261
 20
6.284864
 30
0.0
 10
7.751397
 20
5.702668
 30
0.0
 10
7.485395
 20
5.277218
 30
0.0
 10
7.090534
 20
5.000979
 30
0.0
 10
5.585221
 20
4.747064
 30
0.0
 10
4.992602
 20
4.747064
 30
0.0
 10
4.992602
 20
6.030921
 30
0.0
 10
5.509345
 20
6.120639
 30
0.0
 10
5.859073
 20
6.367076
 30
0.0
 10
6.064244
 20
6.792554
 30
0.0
 10
6.132488
 20
7.464243
 30
0.0
 10
6.132488
 20
8.434636
 30
0.0
 10
6.048981
 20
9.098846
 30
0.0
 10
5.843810
 20
9.487042
 30
0.0
 10
5.524607
 20
9.681014
 30
0.0
 10
4.992602
 20
9.793000
 30
0.0
 10
4.992602
 20
11.046913
 30
0.0
  0
LWPOLYLINE
  5
146
100
AcDbEntity
  8
O
 62
7
100
AcDbPolyline
 90
21
 70
0
 10
5.726638
 20
1.718819
 30
0.0
 10
5.824869
 20
3.092226
 30
0.0
 10
5.824869
 20
8.196722
 30
0.0
 10
5.705703
 20
9.396760
 30
0.0
 10
5.249572
 20
9.787101
 30
0.0
 10
5.249572
 20
11.016546
 30
0.0
 10
5.902166
 20
10.944156
 30
0.0
 10
6.519735
 20
10.756055
 30
0.0
 10
7.045917
 20
10.430624
 30
0.0
 10
7.481114
 20
9.960865
 30
0.0
 10
7.944089
 20
8.782249
 30
0.0
 10
8.014139
 20
6.403567
 30
0.0
 10
8.014139
 20
4.596272
 30
0.0
 10
7.929999
 20
2.195860
 30
0.0
 10
7.508892
 20
1.053480
 30
0.0
 10
7.080942
 20
0.590975
 30
0.0
 10
6.533624
 20
0.258319
 30
0.0
 10
5.930146
 20
0.048628
 30
0.0
 10
5.305531
 20
-0.030789
 30
0.0
 10
5.305531
 20
1.198232
 30
0.0
 10
5.726638
 20
1.718819
 30
0.0
  0
LWPOLYLINE
  5
147
100
AcDbEntity
  8
O
 62
7
100
AcDbPolyline
 90
21
 70
0
 10
4.814375
 20
-0.030789
 30
0.0
 10
4.197007
 20
0.034320
 30
0.0
 10
3.565549
 20
0.243813
 30
0.0
 10
2.562099
 20
1.024666
 30
0.0
 10
2.105968
 20
2.210366
 30
0.0
 10
2.035716
 20
4.596272
 30
0.0
 10
2.035716
 20
6.403567
 30
0.0
 10
2.119857
 20
8.804008
 30
0.0
 10
2.225134
 20
9.389704
 30
0.0
 10
2.526873
 20
9.946359
 30
0.0
 10
3.495498
 20
10.741548
 30
0.0
 10
4.758415
 20
11.016546
 30
0.0
 10
4.758415
 20
9.787101
 30
0.0
 10
4.589932
 20
9.715106
 30
0.0
 10
4.379379
 20
9.440306
 30
0.0
 10
4.224987
 20
8.196722
 30
0.0
 10
4.224987
 20
3.005527
 30
0.0
 10
4.309329
 20
1.689779
 30
0.0
 10
4.512837
 20
1.350068
 30
0.0
 10
4.814375
 20
1.198232
 30
0.0
 10
4.814375
 20
-0.030789
 30
0.0
  0
LWPOLYLINE
  5
148
100
AcDbEntity
  8
N
 62
7
100
AcDbPolyline
 90
13
 70
0
 10
7.976554
 20
0.000001
 30
0.0
 10
6.426140
 20
0.000001
 30
0.0
 10
4.253119
 20
4.614222
 30
0.0
 10
4.131476
 20
4.614222
 30
0.0
 10
4.131476
 20
0.000001
 30
0.0
 10
1.973279
 20
0.000001
 30
0.0
 10
1.973279
 20
11.000064
 30
0.0
 10
3.553776
 20
11.000064
 30
0.0
 10
5.711973
 20
6.370914
 30
0.0
 10
5.818357
 20
6.370914
 30
0.0
 10
5.818357
 20
11.000064
 30
0.0
 10
7.976554
 20
11.000064
 30
0.0
 10
7.976554
 20
0.000001
 30
0.0
  0
LWPOLYLINE
  5
149
100
AcDbEntity
  8
M
 62
7
100
AcDbPolyline
 90
17
 70
0
 10
4.921017
 20
6.073170
 30
0.0
 10
3.902751
 20
11.014824
 30
0.0
 10
1.918666
 20
11.014824
 30
0.0
 10
1.918666
 20
0.000001
 30
0.0
 10
3.373205
 20
0.000001
 30
0.0
 10
3.373205
 20
6.430181
 30
0.0
 10
3.476909
 20
6.430181
 30
0.0
 10
4.377520
 20
0.446646
 30
0.0
 10
5.616186
 20
0.446646
 30
0.0
 10
6.468830
 20
6.445110
 30
0.0
 10
6.562402
 20
6.445110
 30
0.0
 10
6.562402
 20
0.000001
 30
0.0
 10
8.016643
 20
0.000001
 30
0.0
 10
8.016643
 20
11.014824
 30
0.0
 10
6.032558
 20
11.014824
 30
0.0
 10
5.024722
 20
6.073170
 30
0.0
 10
4.921017
 20
6.073170
 30
0.0
  0
LWPOLYLINE
  5
14a
100
AcDbEntity
  8
L
 62
7
100
AcDbPolyline
 90
7
 70
0
 10
7.635885
 20
0.032090
 30
0.0
 10
2.448511
 20
0.032090
 30
0.0
 10
2.448511
 20
11.061673
 30
0.0
 10
4.621459
 20
11.061673
 30
0.0
 10
4.621459
 20
1.927212
 30
0.0
 10
7.635885
 20
1.927212
 30
0.0
 10
7.635885
 20
0.032090
 30
0.0
  0
LWPOLYLINE
  5
14b
100
AcDbEntity
  8
K
 62
7
100
AcDbPolyline
 90
14
 70
0
 10
7.666579
 20
0.032062
 30
0.0
 10
5.639072
 20
0.032062
 30
0.0
 10
4.389574
 20
4.631663
 30
0.0
 10
4.019773
 20
4.631663
 30
0.0
 10
4.019773
 20
0.032062
 30
0.0
 10
2.030673
 20
0.032062
 30
0.0
 10
2.030673
 20
11.046913
 30
0.0
 10
4.019773
 20
11.046913
 30
0.0
 10
4.019773
 20
6.596297
 30
0.0
 10
4.389574
 20
6.596297
 30
0.0
 10
5.741124
 20
11.046913
 30
0.0
 10
7.513684
 20
11.046913
 30
0.0
 10
6.123727
 20
6.134722
 30
0.0
 10
7.666579
 20
0.032062
 30
0.0
  0
LWPOLYLINE
  5
14c
100
AcDbEntity
  8
J
 62
7
100
AcDbPolyline
 90
22
 70
0
 10
7.239852
 20
3.476189
 30
0.0
 10
7.230262
 20
2.355654
 30
0.0
 10
7.202043
 20
1.556316
 30
0.0
 10
7.048029
 20
0.893545
 30
0.0
 10
6.565948
 20
0.391246
 30
0.0
 10
5.832858
 20
0.048600
 30
0.0
 10
3.164783
 20
0.051704
 30
0.0
 10
2.416515
 20
0.387690
 30
0.0
 10
1.920685
 20
0.896000
 30
0.0
 10
1.777639
 20
1.559392
 30
0.0
 10
1.774759
 20
3.515051
 30
0.0
 10
3.471980
 20
3.515051
 30
0.0
 10
3.471818
 20
2.335616
 30
0.0
 10
3.664702
 20
1.958031
 30
0.0
 10
3.965867
 20
1.778848
 30
0.0
 10
4.709749
 20
1.773204
 30
0.0
 10
5.021746
 20
1.962208
 30
0.0
 10
5.136269
 20
2.333471
 30
0.0
 10
5.174626
 20
3.268360
 30
0.0
 10
5.174626
 20
10.985530
 30
0.0
 10
7.239854
 20
10.985530
 30
0.0
 10
7.239854
 20
3.475991
 30
0.0
  0
LWPOLYLINE
  5
14d
100
AcDbEntity
  8
I
 62
7
100
AcDbPolyline
 90
5
 70
0
 10
6.167968
 20
0.000001
 30
0.0
 10
3.873000
 20
0.000001
 30
0.0
 10
3.873000
 20
11.014824
 30
0.0
 10
6.167968
 20
11.014824
 30
0.0
 10
6.167968
 20
0.000001
 30
0.0
  0
LWPOLYLINE
  5
14e
100
AcDbEntity
  8
H
 62
7
100
AcDbPolyline
 90
13
 70
0
 10
8.113949
 20
0.000001
 30
0.0
 10
5.913597
 20
0.000001
 30
0.0
 10
5.913597
 20
4.793038
 30
0.0
 10
4.347697
 20
4.793038
 30
0.0
 10
4.347697
 20
0.000001
 30
0.0
 10
2.147346
 20
0.000001
 30
0.0
 10
2.147346
 20
11.014824
 30
0.0
 10
4.347697
 20
11.014824
 30
0.0
 10
4.347697
 20
6.668433
 30
0.0
 10
5.913597
 20
6.668433
 30
0.0
 10
5.913597
 20
11.014824
 30
0.0
 10
8.113949
 20
11.014824
 30
0.0
 10
8.113949
 20
0.000001
 30
0.0
  0
LWPOLYLINE
  5
14f
100
AcDbEntity
  8
G
 62
7
100
AcDbPolyline
 90
15
 70
0
 10
6.790965
 20
10.518960
 30
0.0
 10
7.367221
 20
10.018636
 30
0.0
 10
7.721181
 20
9.415358
 30
0.0
 10
7.901847
 20
8.621128
 30
0.0
 10
7.957420
 20
7.502766
 30
0.0
 10
7.957420
 20
7.370658
 30
0.0
 10
5.791032
 20
7.370658
 30
0.0
 10
5.791032
 20
8.194436
 30
0.0
 10
5.770117
 20
8.907894
 30
0.0
 10
5.693628
 20
9.327164
 30
0.0
 10
5.520133
 20
9.628690
 30
0.0
 10
5.165974
 20
9.768587
 30
0.0
 10
5.165974
 20
11.019058
 30
0.0
 10
6.026872
 20
10.893920
 30
0.0
 10
6.790965
 20
10.518960
 30
0.0
  0
LWPOLYLINE
  5
150
100
AcDbEntity
  8
G
 62
7
100
AcDbPolyline
 90
17
 70
0
 10
5.721316
 20
1.559392
 30
0.0
 10
5.832663
 20
1.993450
 30
0.0
 10
5.874294
 20
2.736400
 30
0.0
 10
5.874294
 20
3.604515
 30
0.0
 10
5.305009
 20
3.604515
 30
0.0
 10
5.305009
 20
5.075683
 30
0.0
 10
7.957420
 20
5.075683
 30
0.0
 10
7.957420
 20
0.000001
 30
0.0
 10
6.249169
 20
0.000001
 30
0.0
 10
6.249169
 20
0.411905
 30
0.0
 10
6.006157
 20
0.132533
 30
0.0
 10
5.749402
 20
-0.044082
 30
0.0
 10
5.443845
 20
-0.161853
 30
0.0
 10
5.165975
 20
-0.191176
 30
0.0
 10
5.165975
 20
1.103180
 30
0.0
 10
5.492248
 20
1.228317
 30
0.0
 10
5.721316
 20
1.559392
 30
0.0
  0
LWPOLYLINE
  5
151
100
AcDbEntity
  8
G
 62
7
100
AcDbPolyline
 90
22
 70
0
 10
4.679952
 20
1.103180
 30
0.0
 10
4.679952
 20
-0.205936
 30
0.0
 10
4.443713
 20
-0.205936
 30
0.0
 10
3.263513
 20
0.095590
 30
0.0
 10
2.444046
 20
0.882680
 30
0.0
 10
2.082915
 20
1.927184
 30
0.0
 10
2.013597
 20
3.633641
 30
0.0
 10
2.013597
 20
6.796703
 30
0.0
 10
2.041285
 20
8.290025
 30
0.0
 10
2.159205
 20
9.246138
 30
0.0
 10
2.444046
 20
9.900893
 30
0.0
 10
2.992615
 20
10.467482
 30
0.0
 10
3.763280
 20
10.871992
 30
0.0
 10
4.679952
 20
11.019058
 30
0.0
 10
4.679952
 20
9.768587
 30
0.0
 10
4.464627
 20
9.621324
 30
0.0
 10
4.305076
 20
9.371472
 30
0.0
 10
4.179985
 20
8.076693
 30
0.0
 10
4.179985
 20
2.648205
 30
0.0
 10
4.305076
 20
1.544604
 30
0.0
 10
4.436940
 20
1.257838
 30
0.0
 10
4.679952
 20
1.103180
 30
0.0
  0
LWPOLYLINE
  5
152
100
AcDbEntity
  8
F
 62
7
100
AcDbPolyline
 90
11
 70
0
 10
7.983473
 20
9.364925
 30
0.0
 10
4.177691
 20
9.364925
 30
0.0
 10
4.177691
 20
6.396596
 30
0.0
 10
7.501035
 20
6.396596
 30
0.0
 10
7.501035
 20
4.912869
 30
0.0
 10
4.177691
 20
4.912869
 30
0.0
 10
4.177691
 20
-0.014759
 30
0.0
 10
1.995950
 20
-0.014759
 30
0.0
 10
1.995950
 20
10.982764
 30
0.0
 10
7.983473
 20
10.982764
 30
0.0
 10
7.983473
 20
9.364925
 30
0.0
  0
LWPOLYLINE
  5
153
100
AcDbEntity
  8
E
 62
7
100
AcDbPolyline
 90
13
 70
0
 10
7.708343
 20
0.000001
 30
0.0
 10
2.023433
 20
0.000001
 30
0.0
 10
2.023433
 20
11.014824
 30
0.0
 10
7.469252
 20
11.014824
 30
0.0
 10
7.469252
 20
9.392244
 30
0.0
 10
3.835730
 20
9.392244
 30
0.0
 10
3.835730
 20
6.415195
 30
0.0
 10
6.954121
 20
6.415195
 30
0.0
 10
6.954121
 20
4.927122
 30
0.0
 10
3.835730
 20
4.927122
 30
0.0
 10
3.835730
 20
1.592694
 30
0.0
 10
7.708343
 20
1.592694
 30
0.0
 10
7.708343
 20
0.000001
 30
0.0
  0
LWPOLYLINE
  5
154
100
AcDbEntity
  8
D
 62
7
100
AcDbPolyline
 90
5
 70
0
 10
4.193502
 20
-0.017045
 30
0.0
 10
2.014879
 20
-0.017045
 30
0.0
 10
2.014879
 20
11.046885
 30
0.0
 10
4.193502
 20
11.046885
 30
0.0
 10
4.193502
 20
-0.017045
 30
0.0
  0
LWPOLYLINE
  5
155
100
AcDbEntity
  8
D
 62
7
100
AcDbPolyline
 90
28
 70
0
 10
4.668648
 20
1.270538
 30
0.0
 10
5.352923
 20
1.480116
 30
0.0
 10
5.778592
 20
2.176330
 30
0.0
 10
5.932234
 20
3.119460
 30
0.0
 10
5.981110
 20
4.175140
 30
0.0
 10
5.981110
 20
5.522441
 30
0.0
 10
5.995133
 20
6.630502
 30
0.0
 10
5.932441
 20
8.015169
 30
0.0
 10
5.799831
 20
9.100680
 30
0.0
 10
5.366947
 20
9.624456
 30
0.0
 10
4.668653
 20
9.759302
 30
0.0
 10
4.668653
 20
11.046885
 30
0.0
 10
5.695067
 20
11.009518
 30
0.0
 10
6.365316
 20
10.874870
 30
0.0
 10
6.923792
 20
10.612883
 30
0.0
 10
7.356873
 20
10.208544
 30
0.0
 10
7.643328
 20
9.774345
 30
0.0
 10
7.810786
 20
9.145554
 30
0.0
 10
7.950405
 20
7.580942
 30
0.0
 10
8.020321
 20
5.372553
 30
0.0
 10
7.727056
 20
1.450087
 30
0.0
 10
7.322018
 20
0.596704
 30
0.0
 10
6.972873
 20
0.289815
 30
0.0
 10
6.518962
 20
0.080040
 30
0.0
 10
6.036999
 20
-0.002228
 30
0.0
 10
5.282814
 20
-0.032059
 30
0.0
 10
4.668653
 20
-0.032059
 30
0.0
 10
4.668653
 20
1.270538
 30
0.0
  0
LWPOLYLINE
  5
156
100
AcDbEntity
  8
C
 62
7
100
AcDbPolyline
 90
15
 70
0
 10
5.307615
 20
11.019058
 30
0.0
 10
6.115184
 20
10.903008
 30
0.0
 10
6.843087
 20
10.554830
 30
0.0
 10
7.370295
 20
10.127207
 30
0.0
 10
7.724001
 20
9.583478
 30
0.0
 10
7.897695
 20
9.032326
 30
0.0
 10
7.964529
 20
8.104238
 30
0.0
 10
7.964529
 20
7.379181
 30
0.0
 10
5.881741
 20
7.379181
 30
0.0
 10
5.881741
 20
8.423319
 30
0.0
 10
5.868336
 20
9.061451
 30
0.0
 10
5.774881
 20
9.329760
 30
0.0
 10
5.607887
 20
9.561662
 30
0.0
 10
5.307613
 20
9.655868
 30
0.0
 10
5.307613
 20
11.019058
 30
0.0
  0
LWPOLYLINE
  5
157
100
AcDbEntity
  8
C
 62
7
100
AcDbPolyline
 90
13
 70
0
 10
5.321021
 20
1.361074
 30
0.0
 10
5.581273
 20
1.498968
 30
0.0
 10
5.774883
 20
1.781642
 30
0.0
 10
5.848229
 20
2.006488
 30
0.0
 10
5.881742
 20
2.695167
 30
0.0
 10
5.881742
 20
3.493038
 30
0.0
 10
7.937719
 20
3.493038
 30
0.0
 10
7.890992
 20
2.441619
 30
0.0
 10
7.737407
 20
1.593202
 30
0.0
 10
6.856110
 20
0.476703
 30
0.0
 10
6.128589
 20
0.121470
 30
0.0
 10
5.321021
 20
-0.016226
 30
0.0
 10
5.321021
 20
1.361074
 30
0.0
  0
LWPOLYLINE
  5
158
100
AcDbEntity
  8
C
 62
7
100
AcDbPolyline
 90
23
 70
0
 10
4.759916
 20
-0.030789
 30
0.0
 10
3.978967
 20
0.077979
 30
0.0
 10
3.264660
 20
0.404313
 30
0.0
 10
2.363447
 20
1.491715
 30
0.0
 10
2.103002
 20
2.622805
 30
0.0
 10
1.983121
 20
5.363719
 30
0.0
 10
2.063170
 20
7.915798
 30
0.0
 10
2.209861
 20
8.916276
 30
0.0
 10
2.350233
 20
9.416684
 30
0.0
 10
2.623891
 20
9.945823
 30
0.0
 10
3.558426
 20
10.714568
 30
0.0
 10
4.139255
 20
10.939189
 30
0.0
 10
4.746894
 20
11.019058
 30
0.0
 10
4.746894
 20
9.655868
 30
0.0
 10
4.419616
 20
9.518200
 30
0.0
 10
4.266222
 20
9.177501
 30
0.0
 10
4.092528
 20
7.582184
 30
0.0
 10
4.039099
 20
5.305497
 30
0.0
 10
4.099231
 20
3.079751
 30
0.0
 10
4.332865
 20
1.825358
 30
0.0
 10
4.479748
 20
1.542459
 30
0.0
 10
4.759916
 20
1.346540
 30
0.0
 10
4.759916
 20
-0.030789
 30
0.0
  0
LWPOLYLINE
  5
159
100
AcDbEntity
  8
B
 62
7
100
AcDbPolyline
 90
42
 70
0
 10
4.577376
 20
1.251600
 30
0.0
 10
5.140163
 20
1.341093
 30
0.0
 10
5.494171
 20
1.565093
 30
0.0
 10
5.695579
 20
2.013036
 30
0.0
 10
5.771879
 20
2.729514
 30
0.0
 10
5.771879
 20
3.834385
 30
0.0
 10
5.702552
 20
4.603074
 30
0.0
 10
5.508116
 20
5.028326
 30
0.0
 10
5.167854
 20
5.200256
 30
0.0
 10
4.549884
 20
5.282270
 30
0.0
 10
4.549884
 20
6.372184
 30
0.0
 10
5.202518
 20
6.491649
 30
0.0
 10
5.591389
 20
6.760381
 30
0.0
 10
5.723271
 20
7.297619
 30
0.0
 10
5.771879
 20
8.238068
 30
0.0
 10
5.633224
 20
9.163503
 30
0.0
 10
5.188573
 20
9.656404
 30
0.0
 10
4.938556
 20
9.716150
 30
0.0
 10
4.730375
 20
9.745925
 30
0.0
 10
4.577376
 20
9.730967
 30
0.0
 10
4.563431
 20
11.014881
 30
0.0
 10
5.619086
 20
10.962641
 30
0.0
 10
6.410966
 20
10.790881
 30
0.0
 10
7.369205
 20
10.014713
 30
0.0
 10
7.730185
 20
8.014125
 30
0.0
 10
7.667828
 20
7.305154
 30
0.0
 10
7.494311
 20
6.820155
 30
0.0
 10
7.105437
 20
6.342240
 30
0.0
 10
6.355191
 20
5.924297
 30
0.0
 10
6.355191
 20
5.774832
 30
0.0
 10
7.133127
 20
5.453861
 30
0.0
 10
7.632962
 20
4.968862
 30
0.0
 10
7.938561
 20
3.475991
 30
0.0
 10
7.938561
 20
2.386106
 30
0.0
 10
7.869237
 20
1.482938
 30
0.0
 10
7.695715
 20
0.855953
 30
0.0
 10
7.445698
 20
0.467982
 30
0.0
 10
7.056831
 20
0.206729
 30
0.0
 10
6.410966
 20
0.034997
 30
0.0
 10
5.216463
 20
-0.017242
 30
0.0
 10
4.577377
 20
-0.017242
 30
0.0
 10
4.577377
 20
1.251544
 30
0.0
  0
LWPOLYLINE
  5
15a
100
AcDbEntity
  8
B
 62
7
100
AcDbPolyline
 90
5
 70
0
 10
4.008015
 20
-0.017299
 30
0.0
 10
1.980388
 20
-0.017299
 30
0.0
 10
1.980388
 20
11.014824
 30
0.0
 10
4.008015
 20
11.014824
 30
0.0
 10
4.008015
 20
-0.017299
 30
0.0
  0
LWPOLYLINE
  5
15b
100
AcDbEntity
  8
A
 62
7
100
AcDbPolyline
 90
10
 70
0
 10
7.882190
 20
0.000001
 30
0.0
 10
6.078698
 20
0.000001
 30
0.0
 10
5.793506
 20
2.612024
 30
0.0
 10
4.754566
 20
2.612024
 30
0.0
 10
4.948733
 20
4.333749
 30
0.0
 10
5.610799
 20
4.333749
 30
0.0
 10
5.325279
 20
7.702749
 30
0.0
 10
5.702152
 20
10.982764
 30
0.0
 10
6.421192
 20
10.982764
 30
0.0
 10
7.882190
 20
0.000001
 30
0.0
  0
LWPOLYLINE
  5
15c
100
AcDbEntity
  8
A
 62
7
100
AcDbPolyline
 90
5
 70
0
 10
5.268306
 20
10.982764
 30
0.0
 10
4.024067
 20
0.000001
 30
0.0
 10
2.220575
 20
0.000001
 30
0.0
 10
3.658981
 20
10.982764
 30
0.0
 10
5.268306
 20
10.982764
 30
0.0
  0
ENDSEC
  0
SECTION
  2
OBJECTS
  0
DICTIONARY
  5
C
330
0
100
AcDbDictionary
  3
ACAD_GROUP
350
D
  3
ACAD_MLINESTYLE
350
17
  0
DICTIONARY
  5
D
330
C
100
AcDbDictionary
  0
DICTIONARY
  5
1A
330
C
100
AcDbDictionary
  0
DICTIONARY
  5
17
330
C
100
AcDbDictionary
  3
STANDARD
350
18
  0
DICTIONARY
  5
19
330
C
100
AcDbDictionary
  0
ENDSEC
  0
EOF
